SplineFontDB: 3.0
FontName: Tocode001
FullName: Tocode001
FamilyName: Tocode001
Weight: Book
Copyright: CCBYSA
Version: 2016/04/25
ItalicAngle: 0
UnderlinePosition: 10
UnderlineWidth: 20
Ascent: 2048
Descent: 0
sfntRevision: 0x00010000
LayerCount: 2
Layer: 0 1 "Back"  1
Layer: 1 1 "Fore"  0
XUID: [1021 770 1159489010 15608541]
FSType: 0
OS2Version: 4
OS2_WeightWidthSlopeOnly: 0
OS2_UseTypoMetrics: 1
CreationTime: 994166532
ModificationTime: 1461605807
PfmFamily: 81
TTFWeight: 400
TTFWidth: 5
LineGap: 0
VLineGap: 0
Panose: 0 0 4 9 0 0 0 0 0 0
OS2TypoAscent: 2048
OS2TypoAOffset: 0
OS2TypoDescent: 0
OS2TypoDOffset: 0
OS2TypoLinegap: 0
OS2WinAscent: 2048
OS2WinAOffset: 0
OS2WinDescent: 0
OS2WinDOffset: 0
HheadAscent: 2048
HheadAOffset: 0
HheadDescent: 0
HheadDOffset: 0
OS2SubXSize: 700
OS2SubYSize: 650
OS2SubXOff: 0
OS2SubYOff: 143
OS2SupXSize: 700
OS2SupYSize: 650
OS2SupXOff: 0
OS2SupYOff: 453
OS2StrikeYSize: 50
OS2StrikeYPos: 384
OS2Vendor: 'Alts'
OS2CodePages: 00000001.00000000
OS2UnicodeRanges: 00000000.00000000.00000000.00000000
DEI: 91125
TtTable: prep
PUSHB_2
 0
 1
SCANTYPE
PUSHW_1
 511
SCANCTRL
EndTTInstrs
ShortTable: cvt  1
  0
EndShort
ShortTable: maxp 16
  1
  0
  106
  528
  132
  0
  0
  2
  8
  64
  10
  0
  118
  0
  0
  0
EndShort
LangName: 1033 "" "" "Regular" "TTX ProggyTinyTT" "" "2004/04/15" 
GaspTable: 1 65535 2 0
Encoding: UnicodeBmp
UnicodeInterp: none
NameList: Adobe Glyph List
DisplaySize: -24
AntiAlias: 1
FitToEm: 1
WinInfo: 7956 51 15
BeginChars: 65539 107

StartChar: .notdef
Encoding: 65536 -1 0
Width: 768
Flags: W
LayerCount: 2
Fore
SplineSet
0 896 m 1,0,-1
 0 1024 l 1,1,-1
 128 1024 l 1,2,-1
 128 896 l 1,3,-1
 0 896 l 1,0,-1
128 896 m 1,4,-1
 128 1024 l 1,5,-1
 256 1024 l 1,6,-1
 256 896 l 1,7,-1
 128 896 l 1,4,-1
256 896 m 1,8,-1
 256 1024 l 1,9,-1
 384 1024 l 1,10,-1
 384 896 l 1,11,-1
 256 896 l 1,8,-1
384 896 m 1,12,-1
 384 1024 l 1,13,-1
 512 1024 l 1,14,-1
 512 896 l 1,15,-1
 384 896 l 1,12,-1
512 896 m 1,16,-1
 512 1024 l 1,17,-1
 640 1024 l 1,18,-1
 640 896 l 1,19,-1
 512 896 l 1,16,-1
640 896 m 1,20,-1
 640 1024 l 1,21,-1
 768 1024 l 1,22,-1
 768 896 l 1,23,-1
 640 896 l 1,20,-1
0 768 m 1,24,-1
 0 896 l 1,25,-1
 128 896 l 1,26,-1
 128 768 l 1,27,-1
 0 768 l 1,24,-1
640 768 m 1,28,-1
 640 896 l 1,29,-1
 768 896 l 1,30,-1
 768 768 l 1,31,-1
 640 768 l 1,28,-1
0 640 m 1,32,-1
 0 768 l 1,33,-1
 128 768 l 1,34,-1
 128 640 l 1,35,-1
 0 640 l 1,32,-1
640 640 m 1,36,-1
 640 768 l 1,37,-1
 768 768 l 1,38,-1
 768 640 l 1,39,-1
 640 640 l 1,36,-1
0 512 m 1,40,-1
 0 640 l 1,41,-1
 128 640 l 1,42,-1
 128 512 l 1,43,-1
 0 512 l 1,40,-1
640 512 m 1,44,-1
 640 640 l 1,45,-1
 768 640 l 1,46,-1
 768 512 l 1,47,-1
 640 512 l 1,44,-1
0 384 m 1,48,-1
 0 512 l 1,49,-1
 128 512 l 1,50,-1
 128 384 l 1,51,-1
 0 384 l 1,48,-1
640 384 m 1,52,-1
 640 512 l 1,53,-1
 768 512 l 1,54,-1
 768 384 l 1,55,-1
 640 384 l 1,52,-1
0 256 m 1,56,-1
 0 384 l 1,57,-1
 128 384 l 1,58,-1
 128 256 l 1,59,-1
 0 256 l 1,56,-1
640 256 m 1,60,-1
 640 384 l 1,61,-1
 768 384 l 1,62,-1
 768 256 l 1,63,-1
 640 256 l 1,60,-1
0 128 m 1,64,-1
 0 256 l 1,65,-1
 128 256 l 1,66,-1
 128 128 l 1,67,-1
 0 128 l 1,64,-1
640 128 m 1,68,-1
 640 256 l 1,69,-1
 768 256 l 1,70,-1
 768 128 l 1,71,-1
 640 128 l 1,68,-1
0 0 m 1,72,-1
 0 128 l 1,73,-1
 128 128 l 1,74,-1
 128 0 l 1,75,-1
 0 0 l 1,72,-1
640 0 m 1,76,-1
 640 128 l 1,77,-1
 768 128 l 1,78,-1
 768 0 l 1,79,-1
 640 0 l 1,76,-1
0 -128 m 1,80,-1
 0 0 l 1,81,-1
 128 0 l 1,82,-1
 128 -128 l 1,83,-1
 0 -128 l 1,80,-1
640 -128 m 1,84,-1
 640 0 l 1,85,-1
 768 0 l 1,86,-1
 768 -128 l 1,87,-1
 640 -128 l 1,84,-1
0 -256 m 1,88,-1
 0 -128 l 1,89,-1
 128 -128 l 1,90,-1
 128 -256 l 1,91,-1
 0 -256 l 1,88,-1
128 -256 m 1,92,-1
 128 -128 l 1,93,-1
 256 -128 l 1,94,-1
 256 -256 l 1,95,-1
 128 -256 l 1,92,-1
256 -256 m 1,96,-1
 256 -128 l 1,97,-1
 384 -128 l 1,98,-1
 384 -256 l 1,99,-1
 256 -256 l 1,96,-1
384 -256 m 1,100,-1
 384 -128 l 1,101,-1
 512 -128 l 1,102,-1
 512 -256 l 1,103,-1
 384 -256 l 1,100,-1
512 -256 m 1,104,-1
 512 -128 l 1,105,-1
 640 -128 l 1,106,-1
 640 -256 l 1,107,-1
 512 -256 l 1,104,-1
640 -256 m 1,108,-1
 640 -128 l 1,109,-1
 768 -128 l 1,110,-1
 768 -256 l 1,111,-1
 640 -256 l 1,108,-1
EndSplineSet
EndChar

StartChar: exclamdown
Encoding: 161 161 5
Width: 1280
GlyphClass: 2
Flags: W
LayerCount: 2
Fore
SplineSet
512 1792 m 1,0,-1
512 1792 m 1,1,-1
256 1792 m 1,2,-1
512 1536 m 1,3,-1
256 1792 m 1,4,-1
 512 1792 l 1,5,-1
 512 1536 l 1,6,-1
 256 1536 l 1,7,-1
 256 1792 l 1,4,-1
256 1280 m 1,8,-1
 512 1280 l 1,9,-1
 512 -0 l 1,10,-1
 256 -0 l 1,11,-1
 256 1280 l 1,8,-1
384 1280 m 1,12,-1
 512 1280 l 1,13,-1
 512 1152 l 1,14,-1
256 1024 m 1,15,-1
 256 1152 l 1,16,-1
512 1152 m 1,17,-1
 512 1024 l 1,18,-1
256 896 m 1,19,-1
 256 1024 l 1,20,-1
512 1024 m 1,21,-1
 512 896 l 1,22,-1
256 768 m 1,23,-1
 256 896 l 1,24,-1
512 896 m 1,25,-1
 512 768 l 1,26,-1
256 640 m 1,27,-1
 256 768 l 1,28,-1
512 768 m 1,29,-1
 512 640 l 1,30,-1
256 512 m 1,31,-1
 256 640 l 1,32,-1
512 640 m 1,33,-1
 512 512 l 1,34,-1
256 384 m 1,35,-1
 256 512 l 1,36,-1
512 512 m 1,37,-1
 512 384 l 1,38,-1
256 256 m 1,39,-1
 256 384 l 1,40,-1
512 384 m 1,41,-1
 512 256 l 1,42,-1
256 128 m 1,43,-1
 256 256 l 1,44,-1
512 256 m 1,45,-1
 512 128 l 1,46,-1
384 -0 m 1,47,-1
 256 -0 l 1,48,-1
 256 128 l 1,49,-1
512 128 m 1,50,-1
 512 -0 l 1,51,-1
 384 -0 l 1,52,-1
EndSplineSet
EndChar

StartChar: brokenbar
Encoding: 166 166 6
Width: 1280
GlyphClass: 2
Flags: W
LayerCount: 2
Fore
SplineSet
256 1920 m 5,0,-1
 256 2048 l 5,1,-1
 384 2048 l 5,2,-1
384 2048 m 5,3,-1
 512 2048 l 5,4,-1
 512 1920 l 5,5,-1
256 1792 m 5,6,-1
 256 1920 l 5,7,-1
512 1920 m 5,8,-1
 512 1792 l 5,9,-1
256 1664 m 5,10,-1
 256 1792 l 5,11,-1
512 1792 m 5,12,-1
 512 1664 l 5,13,-1
256 1536 m 5,14,-1
 256 1664 l 5,15,-1
512 1664 m 5,16,-1
 512 1536 l 5,17,-1
256 1536 m 5,18,-1
512 1536 m 5,19,-1
 512 1408 l 5,20,-1
256 2048 m 5,21,-1
 512 2048 l 5,22,-1
 512 1280 l 5,23,-1
 256 1280 l 5,24,-1
 256 2048 l 5,21,-1
512 1408 m 5,25,-1
 512 1280 l 5,26,-1
 384 1280 l 5,27,-1
256 768 m 5,28,-1
 512 768 l 5,29,-1
 512 0 l 5,30,-1
 256 0 l 5,31,-1
 256 768 l 5,28,-1
384 768 m 5,32,-1
 512 768 l 5,33,-1
 512 640 l 5,34,-1
256 512 m 5,35,-1
 256 640 l 5,36,-1
512 640 m 5,37,-1
 512 512 l 5,38,-1
256 384 m 5,39,-1
 256 512 l 5,40,-1
512 512 m 5,41,-1
 512 384 l 5,42,-1
256 256 m 5,43,-1
 256 384 l 5,44,-1
512 384 m 5,45,-1
 512 256 l 5,46,-1
256 128 m 5,47,-1
 256 256 l 5,48,-1
512 256 m 5,49,-1
 512 128 l 5,50,-1
384 0 m 5,51,-1
 256 0 l 5,52,-1
 256 128 l 5,53,-1
512 128 m 5,54,-1
 512 0 l 5,55,-1
 384 0 l 5,56,-1
EndSplineSet
EndChar

StartChar: plusminus
Encoding: 177 177 7
Width: 1280
GlyphClass: 2
Flags: W
LayerCount: 2
Fore
SplineSet
384 1664 m 1,0,-1
 640 1664 l 1,1,-1
 640 639 l 1,2,-1
 384 639 l 1,3,-1
 384 1664 l 1,0,-1
512 1664 m 1,4,-1
 640 1664 l 1,5,-1
 640 1536 l 1,6,-1
384 1408 m 1,7,-1
 384 1536 l 1,8,-1
640 1536 m 1,9,-1
 640 1408 l 1,10,-1
384 1280 m 1,11,-1
 384 1408 l 1,12,-1
640 1408 m 1,13,-1
 640 1280 l 1,14,-1
0 1280 m 1,15,-1
 1024 1280 l 1,16,-1
 1024 1024 l 1,17,-1
 0 1024 l 1,18,-1
 0 1280 l 1,15,-1
128 1280 m 1,19,-1
 256 1280 l 1,20,-1
256 1280 m 1,21,-1
 384 1280 l 1,22,-1
384 1280 m 1,23,-1
640 1280 m 1,24,-1
640 1280 m 1,25,-1
 768 1280 l 1,26,-1
768 1280 m 1,27,-1
 896 1280 l 1,28,-1
896 1280 m 1,29,-1
 1024 1280 l 1,30,-1
 1024 1152 l 1,31,-1
128 1024 m 1,32,-1
 0 1024 l 1,33,-1
 0 1152 l 1,34,-1
256 1024 m 1,35,-1
 128 1024 l 1,36,-1
384 1024 m 1,37,-1
 256 1024 l 1,38,-1
384 1024 m 1,39,-1
640 1024 m 1,40,-1
768 1024 m 1,41,-1
 640 1024 l 1,42,-1
896 1024 m 1,43,-1
 768 1024 l 1,44,-1
1024 1152 m 1,45,-1
 1024 1024 l 1,46,-1
 896 1024 l 1,47,-1
384 895 m 1,48,-1
 384 1024 l 1,49,-1
640 1024 m 1,50,-1
 640 895 l 1,51,-1
384 767 m 1,52,-1
 384 895 l 1,53,-1
640 895 m 1,54,-1
 640 767 l 1,55,-1
512 639 m 1,56,-1
 384 639 l 1,57,-1
 384 767 l 1,58,-1
640 767 m 1,59,-1
 640 639 l 1,60,-1
 512 639 l 1,61,-1
0 511 m 1,62,-1
 1024 511 l 1,63,-1
 1024 255 l 1,64,-1
 0 255 l 1,65,-1
 0 511 l 1,62,-1
128 511 m 1,66,-1
 256 511 l 1,67,-1
256 511 m 1,68,-1
 384 511 l 1,69,-1
384 511 m 1,70,-1
 512 511 l 1,71,-1
512 511 m 1,72,-1
 640 511 l 1,73,-1
640 511 m 1,74,-1
 768 511 l 1,75,-1
768 511 m 1,76,-1
 896 511 l 1,77,-1
896 511 m 1,78,-1
 1024 511 l 1,79,-1
 1024 383 l 1,80,-1
128 255 m 1,81,-1
 0 255 l 1,82,-1
 0 255 l 1,83,-1
256 255 m 1,84,-1
 128 255 l 1,85,-1
384 255 m 1,86,-1
 256 255 l 1,87,-1
512 255 m 1,88,-1
 384 255 l 1,89,-1
640 255 m 1,90,-1
 512 255 l 1,91,-1
768 255 m 1,92,-1
 640 255 l 1,93,-1
896 255 m 1,94,-1
 768 255 l 1,95,-1
1024 383 m 1,96,-1
 1024 255 l 1,97,-1
 896 255 l 1,98,-1
EndSplineSet
EndChar

StartChar: uni20BF
Encoding: 8383 8383 8
Width: 1280
GlyphClass: 2
Flags: W
LayerCount: 2
Fore
SplineSet
256 2048 m 1,0,-1
 384 2048 l 1,1,-1
 384 1920 l 1,2,-1
 256 1920 l 1,3,-1
 256 2048 l 1,0,-1
512 2048 m 1,4,-1
 640 2048 l 1,5,-1
 640 1920 l 1,6,-1
 512 1920 l 1,7,-1
 512 2048 l 1,4,-1
256 1920 m 1,8,-1
 384 1920 l 1,9,-1
 384 1792 l 1,10,-1
 256 1792 l 1,11,-1
 256 1920 l 1,8,-1
512 1920 m 1,12,-1
 640 1920 l 1,13,-1
 640 1792 l 1,14,-1
 512 1792 l 1,15,-1
 512 1920 l 1,12,-1
0 1792 m 1,16,-1
 128 1792 l 1,17,-1
 128 1664 l 1,18,-1
 0 1664 l 1,19,-1
 0 1792 l 1,16,-1
128 1792 m 1,20,-1
 256 1792 l 1,21,-1
 256 1664 l 1,22,-1
 128 1664 l 1,23,-1
 128 1792 l 1,20,-1
256 1792 m 1,24,-1
 384 1792 l 1,25,-1
 384 1664 l 1,26,-1
 256 1664 l 1,27,-1
 256 1792 l 1,24,-1
384 1792 m 1,28,-1
 512 1792 l 1,29,-1
 512 1664 l 1,30,-1
 384 1664 l 1,31,-1
 384 1792 l 1,28,-1
512 1792 m 1,32,-1
 640 1792 l 1,33,-1
 640 1664 l 1,34,-1
 512 1664 l 1,35,-1
 512 1792 l 1,32,-1
640 1792 m 1,36,-1
 768 1792 l 1,37,-1
 768 1664 l 1,38,-1
 640 1664 l 1,39,-1
 640 1792 l 1,36,-1
0 1664 m 1,40,-1
 128 1664 l 1,41,-1
 128 1536 l 1,42,-1
 0 1536 l 1,43,-1
 0 1664 l 1,40,-1
128 1664 m 1,44,-1
 256 1664 l 1,45,-1
 256 1536 l 1,46,-1
 128 1536 l 1,47,-1
 128 1664 l 1,44,-1
256 1664 m 1,48,-1
 384 1664 l 1,49,-1
 384 1536 l 1,50,-1
 256 1536 l 1,51,-1
 256 1664 l 1,48,-1
384 1664 m 1,52,-1
 512 1664 l 1,53,-1
 512 1536 l 1,54,-1
 384 1536 l 1,55,-1
 384 1664 l 1,52,-1
512 1664 m 1,56,-1
 640 1664 l 1,57,-1
 640 1536 l 1,58,-1
 512 1536 l 1,59,-1
 512 1664 l 1,56,-1
640 1664 m 1,60,-1
 768 1664 l 1,61,-1
 768 1536 l 1,62,-1
 640 1536 l 1,63,-1
 640 1664 l 1,60,-1
768 1664 m 1,64,-1
 896 1664 l 1,65,-1
 896 1536 l 1,66,-1
 768 1536 l 1,67,-1
 768 1664 l 1,64,-1
256 1536 m 1,68,-1
 384 1536 l 1,69,-1
 384 1408 l 1,70,-1
 256 1408 l 1,71,-1
 256 1536 l 1,68,-1
384 1536 m 1,72,-1
 512 1536 l 1,73,-1
 512 1408 l 1,74,-1
 384 1408 l 1,75,-1
 384 1536 l 1,72,-1
768 1536 m 1,76,-1
 896 1536 l 1,77,-1
 896 1408 l 1,78,-1
 768 1408 l 1,79,-1
 768 1536 l 1,76,-1
896 1536 m 1,80,-1
 1024 1536 l 1,81,-1
 1024 1408 l 1,82,-1
 896 1408 l 1,83,-1
 896 1536 l 1,80,-1
256 1408 m 1,84,-1
 384 1408 l 1,85,-1
 384 1280 l 1,86,-1
 256 1280 l 1,87,-1
 256 1408 l 1,84,-1
384 1408 m 1,88,-1
 512 1408 l 1,89,-1
 512 1280 l 1,90,-1
 384 1280 l 1,91,-1
 384 1408 l 1,88,-1
768 1408 m 1,92,-1
 896 1408 l 1,93,-1
 896 1280 l 1,94,-1
 768 1280 l 1,95,-1
 768 1408 l 1,92,-1
896 1408 m 1,96,-1
 1024 1408 l 1,97,-1
 1024 1280 l 1,98,-1
 896 1280 l 1,99,-1
 896 1408 l 1,96,-1
256 1280 m 1,100,-1
 384 1280 l 1,101,-1
 384 1152 l 1,102,-1
 256 1152 l 1,103,-1
 256 1280 l 1,100,-1
384 1280 m 1,104,-1
 512 1280 l 1,105,-1
 512 1152 l 1,106,-1
 384 1152 l 1,107,-1
 384 1280 l 1,104,-1
512 1280 m 1,108,-1
 640 1280 l 1,109,-1
 640 1152 l 1,110,-1
 512 1152 l 1,111,-1
 512 1280 l 1,108,-1
640 1280 m 1,112,-1
 768 1280 l 1,113,-1
 768 1152 l 1,114,-1
 640 1152 l 1,115,-1
 640 1280 l 1,112,-1
256 1152 m 1,116,-1
 384 1152 l 1,117,-1
 384 1024 l 1,118,-1
 256 1024 l 1,119,-1
 256 1152 l 1,116,-1
384 1152 m 1,120,-1
 512 1152 l 1,121,-1
 512 1024 l 1,122,-1
 384 1024 l 1,123,-1
 384 1152 l 1,120,-1
512 1152 m 1,124,-1
 640 1152 l 1,125,-1
 640 1024 l 1,126,-1
 512 1024 l 1,127,-1
 512 1152 l 1,124,-1
640 1152 m 1,128,-1
 768 1152 l 1,129,-1
 768 1024 l 1,130,-1
 640 1024 l 1,131,-1
 640 1152 l 1,128,-1
256 1024 m 1,132,-1
 384 1024 l 1,133,-1
 384 896 l 1,134,-1
 256 896 l 1,135,-1
 256 1024 l 1,132,-1
384 1024 m 1,136,-1
 512 1024 l 1,137,-1
 512 896 l 1,138,-1
 384 896 l 1,139,-1
 384 1024 l 1,136,-1
768 1024 m 1,140,-1
 896 1024 l 1,141,-1
 896 896 l 1,142,-1
 768 896 l 1,143,-1
 768 1024 l 1,140,-1
896 1024 m 1,144,-1
 1024 1024 l 1,145,-1
 1024 896 l 1,146,-1
 896 896 l 1,147,-1
 896 1024 l 1,144,-1
256 896 m 1,148,-1
 384 896 l 1,149,-1
 384 768 l 1,150,-1
 256 768 l 1,151,-1
 256 896 l 1,148,-1
384 896 m 1,152,-1
 512 896 l 1,153,-1
 512 768 l 1,154,-1
 384 768 l 1,155,-1
 384 896 l 1,152,-1
768 896 m 1,156,-1
 896 896 l 1,157,-1
 896 768 l 1,158,-1
 768 768 l 1,159,-1
 768 896 l 1,156,-1
896 896 m 1,160,-1
 1024 896 l 1,161,-1
 1024 768 l 1,162,-1
 896 768 l 1,163,-1
 896 896 l 1,160,-1
0 768 m 1,164,-1
 128 768 l 1,165,-1
 128 640 l 1,166,-1
 0 640 l 1,167,-1
 0 768 l 1,164,-1
128 768 m 1,168,-1
 256 768 l 1,169,-1
 256 640 l 1,170,-1
 128 640 l 1,171,-1
 128 768 l 1,168,-1
256 768 m 1,172,-1
 384 768 l 1,173,-1
 384 640 l 1,174,-1
 256 640 l 1,175,-1
 256 768 l 1,172,-1
384 768 m 1,176,-1
 512 768 l 1,177,-1
 512 640 l 1,178,-1
 384 640 l 1,179,-1
 384 768 l 1,176,-1
512 768 m 1,180,-1
 640 768 l 1,181,-1
 640 640 l 1,182,-1
 512 640 l 1,183,-1
 512 768 l 1,180,-1
640 768 m 1,184,-1
 768 768 l 1,185,-1
 768 640 l 1,186,-1
 640 640 l 1,187,-1
 640 768 l 1,184,-1
768 768 m 1,188,-1
 896 768 l 1,189,-1
 896 640 l 1,190,-1
 768 640 l 1,191,-1
 768 768 l 1,188,-1
0 640 m 1,192,-1
 128 640 l 1,193,-1
 128 512 l 1,194,-1
 0 512 l 1,195,-1
 0 640 l 1,192,-1
128 640 m 1,196,-1
 256 640 l 1,197,-1
 256 512 l 1,198,-1
 128 512 l 1,199,-1
 128 640 l 1,196,-1
256 640 m 1,200,-1
 384 640 l 1,201,-1
 384 512 l 1,202,-1
 256 512 l 1,203,-1
 256 640 l 1,200,-1
384 640 m 1,204,-1
 512 640 l 1,205,-1
 512 512 l 1,206,-1
 384 512 l 1,207,-1
 384 640 l 1,204,-1
512 640 m 1,208,-1
 640 640 l 1,209,-1
 640 512 l 1,210,-1
 512 512 l 1,211,-1
 512 640 l 1,208,-1
640 640 m 1,212,-1
 768 640 l 1,213,-1
 768 512 l 1,214,-1
 640 512 l 1,215,-1
 640 640 l 1,212,-1
256 512 m 1,216,-1
 384 512 l 1,217,-1
 384 384 l 1,218,-1
 256 384 l 1,219,-1
 256 512 l 1,216,-1
512 512 m 1,220,-1
 640 512 l 1,221,-1
 640 384 l 1,222,-1
 512 384 l 1,223,-1
 512 512 l 1,220,-1
256 384 m 1,224,-1
 384 384 l 1,225,-1
 384 256 l 1,226,-1
 256 256 l 1,227,-1
 256 384 l 1,224,-1
512 384 m 1,228,-1
 640 384 l 1,229,-1
 640 256 l 1,230,-1
 512 256 l 1,231,-1
 512 384 l 1,228,-1
EndSplineSet
EndChar

StartChar: uni25A3
Encoding: 9635 9635 9
Width: 2048
GlyphClass: 2
Flags: W
LayerCount: 2
Fore
SplineSet
512 1536 m 25,0,-1
 1280 1536 l 25,1,-1
 1280 768 l 25,2,-1
 512 768 l 25,3,-1
 512 1536 l 25,0,-1
1536 2048 m 1,4,-1
 1792 2048 l 1,5,-1
 1792 256 l 1,6,-1
 1536 256 l 1,7,-1
 1536 2048 l 1,4,-1
0 2048 m 1,8,-1
 1792 2048 l 1,9,-1
 1792 1792 l 1,10,-1
 0 1792 l 1,11,-1
 0 2048 l 1,8,-1
0 2048 m 1,12,-1
 256 2048 l 1,13,-1
 256 256 l 1,14,-1
 0 256 l 1,15,-1
 0 2048 l 1,12,-1
0 512 m 1,16,-1
 1792 512 l 1,17,-1
 1792 256 l 1,18,-1
 0 256 l 1,19,-1
 0 512 l 1,16,-1
EndSplineSet
EndChar

StartChar: uni25AE
Encoding: 9646 9646 10
Width: 1280
GlyphClass: 2
Flags: W
LayerCount: 2
Fore
SplineSet
0 2048 m 1,0,-1
 1024 2048 l 1,1,-1
 1024 256 l 1,2,-1
 0 256 l 1,3,-1
 0 2048 l 1,0,-1
EndSplineSet
EndChar

StartChar: uni25AF
Encoding: 9647 9647 11
Width: 1280
GlyphClass: 2
Flags: W
LayerCount: 2
Fore
SplineSet
0 2048 m 5,0,-1
 1024 2048 l 5,1,-1
 1024 1792 l 5,2,-1
 0 1792 l 5,3,-1
 0 2048 l 5,0,-1
1024 1792 m 5,4,-1
0 2048 m 5,5,-1
 256 2048 l 5,6,-1
 256 256 l 5,7,-1
 0 256 l 5,8,-1
 0 2048 l 5,5,-1
768 2048 m 5,9,-1
 1024 2048 l 5,10,-1
 1024 256 l 5,11,-1
 768 256 l 5,12,-1
 768 2048 l 5,9,-1
1024 512 m 5,13,-1
0 512 m 5,14,-1
 1024 512 l 5,15,-1
 1024 256 l 5,16,-1
 0 256 l 5,17,-1
 0 512 l 5,14,-1
256 256 m 5,18,-1
EndSplineSet
EndChar

StartChar: uniFF05
Encoding: 65285 65285 12
Width: 1280
Flags: W
LayerCount: 2
Fore
SplineSet
128 1792 m 1,69,-1
 256 1792 l 1,70,-1
 256 1664 l 1,71,-1
 128 1664 l 1,72,-1
 128 1792 l 1,69,-1
256 1792 m 1,73,-1
 384 1792 l 1,74,-1
 384 1664 l 1,75,-1
 256 1664 l 1,76,-1
 256 1792 l 1,73,-1
0 1664 m 1,97,-1
 128 1664 l 1,98,-1
 128 1536 l 1,99,-1
 0 1536 l 1,100,-1
 0 1664 l 1,97,-1
128 1664 m 1,101,-1
 256 1664 l 1,102,-1
 256 1536 l 1,103,-1
 128 1536 l 1,104,-1
 128 1664 l 1,101,-1
256 1664 m 1,105,-1
 384 1664 l 1,106,-1
 384 1536 l 1,107,-1
 256 1536 l 1,108,-1
 256 1664 l 1,105,-1
384 1664 m 1,109,-1
 512 1664 l 1,110,-1
 512 1536 l 1,111,-1
 384 1536 l 1,112,-1
 384 1664 l 1,109,-1
0 1536 m 1,129,-1
 128 1536 l 1,130,-1
 128 1408 l 1,131,-1
 0 1408 l 1,132,-1
 0 1536 l 1,129,-1
128 1536 m 1,133,-1
 256 1536 l 1,134,-1
 256 1408 l 1,135,-1
 128 1408 l 1,136,-1
 128 1536 l 1,133,-1
256 1536 m 1,137,-1
 384 1536 l 1,138,-1
 384 1408 l 1,139,-1
 256 1408 l 1,140,-1
 256 1536 l 1,137,-1
384 1536 m 1,141,-1
 512 1536 l 1,142,-1
 512 1408 l 1,143,-1
 384 1408 l 1,144,-1
 384 1536 l 1,141,-1
768 1536 m 1,153,-1
 1024 1536 l 1,154,-1
 1024 1280 l 1,155,-1
 768 1280 l 1,156,-1
 768 1536 l 1,153,-1
128 1408 m 1,165,-1
 256 1408 l 1,166,-1
 256 1280 l 1,167,-1
 128 1280 l 1,168,-1
 128 1408 l 1,165,-1
256 1408 m 1,169,-1
 384 1408 l 1,170,-1
 384 1280 l 1,171,-1
 256 1280 l 1,172,-1
 256 1408 l 1,169,-1
640 1408 m 1,181,-1
 768 1408 l 1,182,-1
 768 1280 l 1,183,-1
 640 1280 l 1,184,-1
 640 1408 l 1,181,-1
512 1280 m 1,209,-1
 768 1280 l 1,210,-1
 768 1024 l 1,211,-1
 512 1024 l 1,212,-1
 512 1280 l 1,209,-1
768 1280 m 1,217,-1
 896 1280 l 1,218,-1
 896 1152 l 1,219,-1
 768 1152 l 1,220,-1
 768 1280 l 1,217,-1
384 1152 m 1,237,-1
 512 1152 l 1,238,-1
 512 1024 l 1,239,-1
 384 1024 l 1,240,-1
 384 1152 l 1,237,-1
256 1024 m 1,265,-1
 512 1024 l 1,266,-1
 512 768 l 1,267,-1
 256 768 l 1,268,-1
 256 1024 l 1,265,-1
512 1024 m 1,273,-1
 640 1024 l 1,274,-1
 640 896 l 1,275,-1
 512 896 l 1,276,-1
 512 1024 l 1,273,-1
128 896 m 1,293,-1
 256 896 l 1,294,-1
 256 768 l 1,295,-1
 128 768 l 1,296,-1
 128 896 l 1,293,-1
0 768 m 1,321,-1
 256 768 l 1,322,-1
 256 512 l 1,323,-1
 0 512 l 1,324,-1
 0 768 l 1,321,-1
256 768 m 1,329,-1
 384 768 l 1,330,-1
 384 640 l 1,331,-1
 256 640 l 1,332,-1
 256 768 l 1,329,-1
640 768 m 1,341,-1
 768 768 l 1,342,-1
 768 640 l 1,343,-1
 640 640 l 1,344,-1
 640 768 l 1,341,-1
768 768 m 1,345,-1
 896 768 l 1,346,-1
 896 640 l 1,347,-1
 768 640 l 1,348,-1
 768 768 l 1,345,-1
512 640 m 1,369,-1
 640 640 l 1,370,-1
 640 512 l 1,371,-1
 512 512 l 1,372,-1
 512 640 l 1,369,-1
640 640 m 1,373,-1
 768 640 l 1,374,-1
 768 512 l 1,375,-1
 640 512 l 1,376,-1
 640 640 l 1,373,-1
768 640 m 1,377,-1
 896 640 l 1,378,-1
 896 512 l 1,379,-1
 768 512 l 1,380,-1
 768 640 l 1,377,-1
896 640 m 1,381,-1
 1024 640 l 1,382,-1
 1024 512 l 1,383,-1
 896 512 l 1,384,-1
 896 640 l 1,381,-1
512 512 m 1,401,-1
 640 512 l 1,402,-1
 640 384 l 1,403,-1
 512 384 l 1,404,-1
 512 512 l 1,401,-1
640 512 m 1,405,-1
 768 512 l 1,406,-1
 768 384 l 1,407,-1
 640 384 l 1,408,-1
 640 512 l 1,405,-1
768 512 m 1,409,-1
 896 512 l 1,410,-1
 896 384 l 1,411,-1
 768 384 l 1,412,-1
 768 512 l 1,409,-1
896 512 m 1,413,-1
 1024 512 l 1,414,-1
 1024 384 l 1,415,-1
 896 384 l 1,416,-1
 896 512 l 1,413,-1
640 384 m 1,437,-1
 768 384 l 1,438,-1
 768 256 l 1,439,-1
 640 256 l 1,440,-1
 640 384 l 1,437,-1
768 384 m 1,441,-1
 896 384 l 1,442,-1
 896 256 l 1,443,-1
 768 256 l 1,444,-1
 768 384 l 1,441,-1
EndSplineSet
EndChar

StartChar: uniFF06
Encoding: 65286 65286 13
Width: 1280
Flags: W
LayerCount: 2
Fore
SplineSet
256 1792 m 1,73,-1
 512 1792 l 1,74,-1
 512 1536 l 1,75,-1
 256 1536 l 1,76,-1
 256 1792 l 1,73,-1
128 1664 m 1,101,-1
 256 1664 l 1,102,-1
 256 1536 l 1,103,-1
 128 1536 l 1,104,-1
 128 1664 l 1,101,-1
512 1664 m 1,113,-1
 640 1664 l 1,114,-1
 640 1536 l 1,115,-1
 512 1536 l 1,116,-1
 512 1664 l 1,113,-1
0 1536 m 1,129,-1
 256 1536 l 1,130,-1
 256 1280 l 1,131,-1
 0 1280 l 1,132,-1
 0 1536 l 1,129,-1
512 1536 m 1,145,-1
 768 1536 l 1,146,-1
 768 1280 l 1,147,-1
 512 1280 l 1,148,-1
 512 1536 l 1,145,-1
128 1280 m 1,197,-1
 256 1280 l 1,198,-1
 256 1152 l 1,199,-1
 128 1152 l 1,200,-1
 128 1280 l 1,197,-1
256 1280 m 1,201,-1
 512 1280 l 1,202,-1
 512 1024 l 1,203,-1
 256 1024 l 1,204,-1
 256 1280 l 1,201,-1
512 1280 m 1,209,-1
 640 1280 l 1,210,-1
 640 1152 l 1,211,-1
 512 1152 l 1,212,-1
 512 1280 l 1,209,-1
128 1152 m 1,229,-1
 256 1152 l 1,230,-1
 256 1024 l 1,231,-1
 128 1024 l 1,232,-1
 128 1152 l 1,229,-1
0 1024 m 1,257,-1
 256 1024 l 1,258,-1
 256 768 l 1,259,-1
 0 768 l 1,260,-1
 0 1024 l 1,257,-1
384 1024 m 1,269,-1
 512 1024 l 1,270,-1
 512 896 l 1,271,-1
 384 896 l 1,272,-1
 384 1024 l 1,269,-1
512 1024 m 1,273,-1
 640 1024 l 1,274,-1
 640 896 l 1,275,-1
 512 896 l 1,276,-1
 512 1024 l 1,273,-1
768 1024 m 1,281,-1
 1024 1024 l 1,282,-1
 1024 768 l 1,283,-1
 768 768 l 1,284,-1
 768 1024 l 1,281,-1
384 896 m 1,301,-1
 512 896 l 1,302,-1
 512 768 l 1,303,-1
 384 768 l 1,304,-1
 384 896 l 1,301,-1
512 896 m 1,305,-1
 640 896 l 1,306,-1
 640 768 l 1,307,-1
 512 768 l 1,308,-1
 512 896 l 1,305,-1
640 896 m 1,309,-1
 768 896 l 1,310,-1
 768 768 l 1,311,-1
 640 768 l 1,312,-1
 640 896 l 1,309,-1
0 768 m 1,321,-1
 256 768 l 1,322,-1
 256 512 l 1,323,-1
 0 512 l 1,324,-1
 0 768 l 1,321,-1
512 768 m 1,337,-1
 768 768 l 1,338,-1
 768 512 l 1,339,-1
 512 512 l 1,340,-1
 512 768 l 1,337,-1
768 768 m 1,345,-1
 896 768 l 1,346,-1
 896 640 l 1,347,-1
 768 640 l 1,348,-1
 768 768 l 1,345,-1
768 640 m 1,377,-1
 896 640 l 1,378,-1
 896 512 l 1,379,-1
 768 512 l 1,380,-1
 768 640 l 1,377,-1
128 512 m 1,389,-1
 256 512 l 1,390,-1
 256 384 l 1,391,-1
 128 384 l 1,392,-1
 128 512 l 1,389,-1
256 512 m 1,393,-1
 512 512 l 1,394,-1
 512 256 l 1,395,-1
 256 256 l 1,396,-1
 256 512 l 1,393,-1
512 512 m 1,401,-1
 640 512 l 1,402,-1
 640 384 l 1,403,-1
 512 384 l 1,404,-1
 512 512 l 1,401,-1
640 512 m 1,405,-1
 768 512 l 1,406,-1
 768 384 l 1,407,-1
 640 384 l 1,408,-1
 640 512 l 1,405,-1
768 512 m 1,409,-1
 1024 512 l 1,410,-1
 1024 256 l 1,411,-1
 768 256 l 1,412,-1
 768 512 l 1,409,-1
EndSplineSet
EndChar

StartChar: uniFF07
Encoding: 65287 65287 14
Width: 1280
Flags: W
LayerCount: 2
Fore
SplineSet
256 2048 m 1,9,-1
 512 2048 l 1,10,-1
 512 1792 l 1,11,-1
 256 1792 l 1,12,-1
 256 2048 l 1,9,-1
256 1792 m 1,73,-1
 512 1792 l 1,74,-1
 512 1536 l 1,75,-1
 256 1536 l 1,76,-1
 256 1792 l 1,73,-1
256 1536 m 1,137,-1
 512 1536 l 1,138,-1
 512 1280 l 1,139,-1
 256 1280 l 1,140,-1
 256 1536 l 1,137,-1
EndSplineSet
EndChar

StartChar: uniFF08
Encoding: 65288 65288 15
Width: 1280
Flags: W
LayerCount: 2
Fore
SplineSet
512 1792 m 1,81,-1
 768 1792 l 1,82,-1
 768 1536 l 1,83,-1
 512 1536 l 1,84,-1
 512 1792 l 1,81,-1
256 1536 m 1,137,-1
 512 1536 l 1,138,-1
 512 1280 l 1,139,-1
 256 1280 l 1,140,-1
 256 1536 l 1,137,-1
256 1280 m 1,201,-1
 512 1280 l 1,202,-1
 512 1024 l 1,203,-1
 256 1024 l 1,204,-1
 256 1280 l 1,201,-1
256 1024 m 1,265,-1
 512 1024 l 1,266,-1
 512 768 l 1,267,-1
 256 768 l 1,268,-1
 256 1024 l 1,265,-1
256 768 m 1,329,-1
 512 768 l 1,330,-1
 512 512 l 1,331,-1
 256 512 l 1,332,-1
 256 768 l 1,329,-1
512 512 m 1,401,-1
 768 512 l 1,402,-1
 768 256 l 1,403,-1
 512 256 l 1,404,-1
 512 512 l 1,401,-1
EndSplineSet
EndChar

StartChar: uniFF09
Encoding: 65289 65289 16
Width: 1280
Flags: W
LayerCount: 2
Fore
SplineSet
256 1792 m 1,73,-1
 512 1792 l 1,74,-1
 512 1536 l 1,75,-1
 256 1536 l 1,76,-1
 256 1792 l 1,73,-1
512 1536 m 1,145,-1
 768 1536 l 1,146,-1
 768 1280 l 1,147,-1
 512 1280 l 1,148,-1
 512 1536 l 1,145,-1
512 1280 m 1,209,-1
 768 1280 l 1,210,-1
 768 1024 l 1,211,-1
 512 1024 l 1,212,-1
 512 1280 l 1,209,-1
512 1024 m 1,273,-1
 768 1024 l 1,274,-1
 768 768 l 1,275,-1
 512 768 l 1,276,-1
 512 1024 l 1,273,-1
512 768 m 1,337,-1
 768 768 l 1,338,-1
 768 512 l 1,339,-1
 512 512 l 1,340,-1
 512 768 l 1,337,-1
256 512 m 1,393,-1
 512 512 l 1,394,-1
 512 256 l 1,395,-1
 256 256 l 1,396,-1
 256 512 l 1,393,-1
EndSplineSet
EndChar

StartChar: uniFF0A
Encoding: 65290 65290 17
Width: 1280
Flags: W
LayerCount: 2
Fore
SplineSet
0 2048 m 1,1,-1
 256 2048 l 1,2,-1
 256 1792 l 1,3,-1
 0 1792 l 1,4,-1
 0 2048 l 1,1,-1
384 2048 m 1,13,-1
 512 2048 l 1,14,-1
 512 1920 l 1,15,-1
 384 1920 l 1,16,-1
 384 2048 l 1,13,-1
512 2048 m 1,17,-1
 640 2048 l 1,18,-1
 640 1920 l 1,19,-1
 512 1920 l 1,20,-1
 512 2048 l 1,17,-1
768 2048 m 1,25,-1
 1024 2048 l 1,26,-1
 1024 1792 l 1,27,-1
 768 1792 l 1,28,-1
 768 2048 l 1,25,-1
384 1920 m 1,45,-1
 512 1920 l 1,46,-1
 512 1792 l 1,47,-1
 384 1792 l 1,48,-1
 384 1920 l 1,45,-1
512 1920 m 1,49,-1
 640 1920 l 1,50,-1
 640 1792 l 1,51,-1
 512 1792 l 1,52,-1
 512 1920 l 1,49,-1
256 1792 m 1,73,-1
 512 1792 l 1,74,-1
 512 1536 l 1,75,-1
 256 1536 l 1,76,-1
 256 1792 l 1,73,-1
512 1792 m 1,81,-1
 768 1792 l 1,82,-1
 768 1536 l 1,83,-1
 512 1536 l 1,84,-1
 512 1792 l 1,81,-1
0 1536 m 1,129,-1
 256 1536 l 1,130,-1
 256 1280 l 1,131,-1
 0 1280 l 1,132,-1
 0 1536 l 1,129,-1
384 1536 m 1,141,-1
 512 1536 l 1,142,-1
 512 1408 l 1,143,-1
 384 1408 l 1,144,-1
 384 1536 l 1,141,-1
512 1536 m 1,145,-1
 640 1536 l 1,146,-1
 640 1408 l 1,147,-1
 512 1408 l 1,148,-1
 512 1536 l 1,145,-1
768 1536 m 1,153,-1
 1024 1536 l 1,154,-1
 1024 1280 l 1,155,-1
 768 1280 l 1,156,-1
 768 1536 l 1,153,-1
384 1408 m 1,173,-1
 512 1408 l 1,174,-1
 512 1280 l 1,175,-1
 384 1280 l 1,176,-1
 384 1408 l 1,173,-1
512 1408 m 1,177,-1
 640 1408 l 1,178,-1
 640 1280 l 1,179,-1
 512 1280 l 1,180,-1
 512 1408 l 1,177,-1
EndSplineSet
EndChar

StartChar: uniFF0B
Encoding: 65291 65291 18
Width: 1280
Flags: W
LayerCount: 2
Fore
SplineSet
384 1664 m 1,109,-1
 512 1664 l 1,110,-1
 512 1536 l 1,111,-1
 384 1536 l 1,112,-1
 384 1664 l 1,109,-1
512 1664 m 1,113,-1
 640 1664 l 1,114,-1
 640 1536 l 1,115,-1
 512 1536 l 1,116,-1
 512 1664 l 1,113,-1
384 1536 m 1,141,-1
 512 1536 l 1,142,-1
 512 1408 l 1,143,-1
 384 1408 l 1,144,-1
 384 1536 l 1,141,-1
512 1536 m 1,145,-1
 640 1536 l 1,146,-1
 640 1408 l 1,147,-1
 512 1408 l 1,148,-1
 512 1536 l 1,145,-1
384 1408 m 1,173,-1
 512 1408 l 1,174,-1
 512 1280 l 1,175,-1
 384 1280 l 1,176,-1
 384 1408 l 1,173,-1
512 1408 m 1,177,-1
 640 1408 l 1,178,-1
 640 1280 l 1,179,-1
 512 1280 l 1,180,-1
 512 1408 l 1,177,-1
0 1280 m 1,193,-1
 256 1280 l 1,194,-1
 256 1024 l 1,195,-1
 0 1024 l 1,196,-1
 0 1280 l 1,193,-1
256 1280 m 1,201,-1
 512 1280 l 1,202,-1
 512 1024 l 1,203,-1
 256 1024 l 1,204,-1
 256 1280 l 1,201,-1
512 1280 m 1,209,-1
 768 1280 l 1,210,-1
 768 1024 l 1,211,-1
 512 1024 l 1,212,-1
 512 1280 l 1,209,-1
768 1280 m 1,217,-1
 1024 1280 l 1,218,-1
 1024 1024 l 1,219,-1
 768 1024 l 1,220,-1
 768 1280 l 1,217,-1
384 1024 m 1,269,-1
 512 1024 l 1,270,-1
 512 896 l 1,271,-1
 384 896 l 1,272,-1
 384 1024 l 1,269,-1
512 1024 m 1,273,-1
 640 1024 l 1,274,-1
 640 896 l 1,275,-1
 512 896 l 1,276,-1
 512 1024 l 1,273,-1
384 896 m 1,301,-1
 512 896 l 1,302,-1
 512 768 l 1,303,-1
 384 768 l 1,304,-1
 384 896 l 1,301,-1
512 896 m 1,305,-1
 640 896 l 1,306,-1
 640 768 l 1,307,-1
 512 768 l 1,308,-1
 512 896 l 1,305,-1
384 768 m 1,333,-1
 512 768 l 1,334,-1
 512 640 l 1,335,-1
 384 640 l 1,336,-1
 384 768 l 1,333,-1
512 768 m 1,337,-1
 640 768 l 1,338,-1
 640 640 l 1,339,-1
 512 640 l 1,340,-1
 512 768 l 1,337,-1
EndSplineSet
EndChar

StartChar: uniFF0C
Encoding: 65292 65292 19
Width: 1280
Flags: W
LayerCount: 2
Fore
SplineSet
256 1024 m 1,265,-1
 512 1024 l 1,266,-1
 512 768 l 1,267,-1
 256 768 l 1,268,-1
 256 1024 l 1,265,-1
512 1024 m 1,273,-1
 768 1024 l 1,274,-1
 768 768 l 1,275,-1
 512 768 l 1,276,-1
 512 1024 l 1,273,-1
256 768 m 1,329,-1
 512 768 l 1,330,-1
 512 512 l 1,331,-1
 256 512 l 1,332,-1
 256 768 l 1,329,-1
512 768 m 1,337,-1
 768 768 l 1,338,-1
 768 512 l 1,339,-1
 512 512 l 1,340,-1
 512 768 l 1,337,-1
0 512 m 1,385,-1
 256 512 l 1,386,-1
 256 256 l 1,387,-1
 0 256 l 1,388,-1
 0 512 l 1,385,-1
256 512 m 1,393,-1
 512 512 l 1,394,-1
 512 256 l 1,395,-1
 256 256 l 1,396,-1
 256 512 l 1,393,-1
EndSplineSet
EndChar

StartChar: uniFF0D
Encoding: 65293 65293 20
Width: 1280
Flags: W
LayerCount: 2
Fore
SplineSet
0 1280 m 1,193,-1
 256 1280 l 1,194,-1
 256 1024 l 1,195,-1
 0 1024 l 1,196,-1
 0 1280 l 1,193,-1
256 1280 m 1,201,-1
 512 1280 l 1,202,-1
 512 1024 l 1,203,-1
 256 1024 l 1,204,-1
 256 1280 l 1,201,-1
512 1280 m 1,209,-1
 768 1280 l 1,210,-1
 768 1024 l 1,211,-1
 512 1024 l 1,212,-1
 512 1280 l 1,209,-1
768 1280 m 1,217,-1
 1024 1280 l 1,218,-1
 1024 1024 l 1,219,-1
 768 1024 l 1,220,-1
 768 1280 l 1,217,-1
EndSplineSet
EndChar

StartChar: uniFF0E
Encoding: 65294 65294 21
Width: 1280
Flags: W
LayerCount: 2
Fore
SplineSet
256 768 m 1,329,-1
 512 768 l 1,330,-1
 512 512 l 1,331,-1
 256 512 l 1,332,-1
 256 768 l 1,329,-1
512 768 m 1,337,-1
 768 768 l 1,338,-1
 768 512 l 1,339,-1
 512 512 l 1,340,-1
 512 768 l 1,337,-1
256 512 m 1,393,-1
 512 512 l 1,394,-1
 512 256 l 1,395,-1
 256 256 l 1,396,-1
 256 512 l 1,393,-1
512 512 m 1,401,-1
 768 512 l 1,402,-1
 768 256 l 1,403,-1
 512 256 l 1,404,-1
 512 512 l 1,401,-1
EndSplineSet
EndChar

StartChar: uniFF0F
Encoding: 65295 65295 22
Width: 1280
Flags: W
LayerCount: 2
Fore
SplineSet
768 2048 m 1,25,-1
 1024 2048 l 1,26,-1
 1024 1792 l 1,27,-1
 768 1792 l 1,28,-1
 768 2048 l 1,25,-1
640 1792 m 1,85,-1
 768 1792 l 1,86,-1
 768 1664 l 1,87,-1
 640 1664 l 1,88,-1
 640 1792 l 1,85,-1
768 1792 m 1,89,-1
 896 1792 l 1,90,-1
 896 1664 l 1,91,-1
 768 1664 l 1,92,-1
 768 1792 l 1,89,-1
640 1664 m 1,117,-1
 768 1664 l 1,118,-1
 768 1536 l 1,119,-1
 640 1536 l 1,120,-1
 640 1664 l 1,117,-1
768 1664 m 1,121,-1
 896 1664 l 1,122,-1
 896 1536 l 1,123,-1
 768 1536 l 1,124,-1
 768 1664 l 1,121,-1
512 1536 m 1,145,-1
 768 1536 l 1,146,-1
 768 1280 l 1,147,-1
 512 1280 l 1,148,-1
 512 1536 l 1,145,-1
384 1280 m 1,205,-1
 512 1280 l 1,206,-1
 512 1152 l 1,207,-1
 384 1152 l 1,208,-1
 384 1280 l 1,205,-1
512 1280 m 1,209,-1
 640 1280 l 1,210,-1
 640 1152 l 1,211,-1
 512 1152 l 1,212,-1
 512 1280 l 1,209,-1
384 1152 m 1,237,-1
 512 1152 l 1,238,-1
 512 1024 l 1,239,-1
 384 1024 l 1,240,-1
 384 1152 l 1,237,-1
512 1152 m 1,241,-1
 640 1152 l 1,242,-1
 640 1024 l 1,243,-1
 512 1024 l 1,244,-1
 512 1152 l 1,241,-1
256 1024 m 1,265,-1
 512 1024 l 1,266,-1
 512 768 l 1,267,-1
 256 768 l 1,268,-1
 256 1024 l 1,265,-1
128 768 m 1,325,-1
 256 768 l 1,326,-1
 256 640 l 1,327,-1
 128 640 l 1,328,-1
 128 768 l 1,325,-1
256 768 m 1,329,-1
 384 768 l 1,330,-1
 384 640 l 1,331,-1
 256 640 l 1,332,-1
 256 768 l 1,329,-1
128 640 m 1,357,-1
 256 640 l 1,358,-1
 256 512 l 1,359,-1
 128 512 l 1,360,-1
 128 640 l 1,357,-1
256 640 m 1,361,-1
 384 640 l 1,362,-1
 384 512 l 1,363,-1
 256 512 l 1,364,-1
 256 640 l 1,361,-1
0 512 m 1,385,-1
 256 512 l 1,386,-1
 256 256 l 1,387,-1
 0 256 l 1,388,-1
 0 512 l 1,385,-1
EndSplineSet
EndChar

StartChar: uniFF10
Encoding: 65296 65296 23
Width: 1280
Flags: W
LayerCount: 2
Fore
SplineSet
256 2048 m 1,9,-1
 512 2048 l 1,10,-1
 512 1792 l 1,11,-1
 256 1792 l 1,12,-1
 256 2048 l 1,9,-1
512 2048 m 1,17,-1
 768 2048 l 1,18,-1
 768 1792 l 1,19,-1
 512 1792 l 1,20,-1
 512 2048 l 1,17,-1
0 1792 m 1,65,-1
 256 1792 l 1,66,-1
 256 1536 l 1,67,-1
 0 1536 l 1,68,-1
 0 1792 l 1,65,-1
768 1792 m 1,89,-1
 1024 1792 l 1,90,-1
 1024 1536 l 1,91,-1
 768 1536 l 1,92,-1
 768 1792 l 1,89,-1
0 1536 m 1,129,-1
 256 1536 l 1,130,-1
 256 1280 l 1,131,-1
 0 1280 l 1,132,-1
 0 1536 l 1,129,-1
512 1536 m 1,145,-1
 768 1536 l 1,146,-1
 768 1280 l 1,147,-1
 512 1280 l 1,148,-1
 512 1536 l 1,145,-1
768 1536 m 1,153,-1
 1024 1536 l 1,154,-1
 1024 1280 l 1,155,-1
 768 1280 l 1,156,-1
 768 1536 l 1,153,-1
0 1280 m 1,193,-1
 256 1280 l 1,194,-1
 256 1024 l 1,195,-1
 0 1024 l 1,196,-1
 0 1280 l 1,193,-1
384 1280 m 1,205,-1
 512 1280 l 1,206,-1
 512 1152 l 1,207,-1
 384 1152 l 1,208,-1
 384 1280 l 1,205,-1
512 1280 m 1,209,-1
 640 1280 l 1,210,-1
 640 1152 l 1,211,-1
 512 1152 l 1,212,-1
 512 1280 l 1,209,-1
768 1280 m 1,217,-1
 1024 1280 l 1,218,-1
 1024 1024 l 1,219,-1
 768 1024 l 1,220,-1
 768 1280 l 1,217,-1
384 1152 m 1,237,-1
 512 1152 l 1,238,-1
 512 1024 l 1,239,-1
 384 1024 l 1,240,-1
 384 1152 l 1,237,-1
512 1152 m 1,241,-1
 640 1152 l 1,242,-1
 640 1024 l 1,243,-1
 512 1024 l 1,244,-1
 512 1152 l 1,241,-1
0 1024 m 1,257,-1
 256 1024 l 1,258,-1
 256 768 l 1,259,-1
 0 768 l 1,260,-1
 0 1024 l 1,257,-1
256 1024 m 1,265,-1
 512 1024 l 1,266,-1
 512 768 l 1,267,-1
 256 768 l 1,268,-1
 256 1024 l 1,265,-1
768 1024 m 1,281,-1
 1024 1024 l 1,282,-1
 1024 768 l 1,283,-1
 768 768 l 1,284,-1
 768 1024 l 1,281,-1
0 768 m 1,321,-1
 256 768 l 1,322,-1
 256 512 l 1,323,-1
 0 512 l 1,324,-1
 0 768 l 1,321,-1
768 768 m 1,345,-1
 1024 768 l 1,346,-1
 1024 512 l 1,347,-1
 768 512 l 1,348,-1
 768 768 l 1,345,-1
256 512 m 1,393,-1
 512 512 l 1,394,-1
 512 256 l 1,395,-1
 256 256 l 1,396,-1
 256 512 l 1,393,-1
512 512 m 1,401,-1
 768 512 l 1,402,-1
 768 256 l 1,403,-1
 512 256 l 1,404,-1
 512 512 l 1,401,-1
EndSplineSet
EndChar

StartChar: uniFF11
Encoding: 65297 65297 24
Width: 1280
Flags: W
LayerCount: 2
Fore
SplineSet
512 2048 m 1,17,-1
 768 2048 l 1,18,-1
 768 1792 l 1,19,-1
 512 1792 l 1,20,-1
 512 2048 l 1,17,-1
256 1792 m 1,73,-1
 512 1792 l 1,74,-1
 512 1536 l 1,75,-1
 256 1536 l 1,76,-1
 256 1792 l 1,73,-1
512 1792 m 1,81,-1
 768 1792 l 1,82,-1
 768 1536 l 1,83,-1
 512 1536 l 1,84,-1
 512 1792 l 1,81,-1
0 1536 m 1,129,-1
 256 1536 l 1,130,-1
 256 1280 l 1,131,-1
 0 1280 l 1,132,-1
 0 1536 l 1,129,-1
512 1536 m 1,145,-1
 768 1536 l 1,146,-1
 768 1280 l 1,147,-1
 512 1280 l 1,148,-1
 512 1536 l 1,145,-1
512 1280 m 1,209,-1
 768 1280 l 1,210,-1
 768 1024 l 1,211,-1
 512 1024 l 1,212,-1
 512 1280 l 1,209,-1
512 1024 m 1,273,-1
 768 1024 l 1,274,-1
 768 768 l 1,275,-1
 512 768 l 1,276,-1
 512 1024 l 1,273,-1
512 768 m 1,337,-1
 768 768 l 1,338,-1
 768 512 l 1,339,-1
 512 512 l 1,340,-1
 512 768 l 1,337,-1
512 512 m 1,401,-1
 768 512 l 1,402,-1
 768 256 l 1,403,-1
 512 256 l 1,404,-1
 512 512 l 1,401,-1
EndSplineSet
EndChar

StartChar: uniFF12
Encoding: 65298 65298 25
Width: 1280
Flags: W
LayerCount: 2
Fore
SplineSet
256 2048 m 1,9,-1
 512 2048 l 1,10,-1
 512 1792 l 1,11,-1
 256 1792 l 1,12,-1
 256 2048 l 1,9,-1
512 2048 m 1,17,-1
 768 2048 l 1,18,-1
 768 1792 l 1,19,-1
 512 1792 l 1,20,-1
 512 2048 l 1,17,-1
0 1792 m 1,65,-1
 256 1792 l 1,66,-1
 256 1536 l 1,67,-1
 0 1536 l 1,68,-1
 0 1792 l 1,65,-1
768 1792 m 1,89,-1
 1024 1792 l 1,90,-1
 1024 1536 l 1,91,-1
 768 1536 l 1,92,-1
 768 1792 l 1,89,-1
768 1536 m 1,153,-1
 1024 1536 l 1,154,-1
 1024 1280 l 1,155,-1
 768 1280 l 1,156,-1
 768 1536 l 1,153,-1
512 1280 m 1,209,-1
 768 1280 l 1,210,-1
 768 1024 l 1,211,-1
 512 1024 l 1,212,-1
 512 1280 l 1,209,-1
256 1024 m 1,265,-1
 512 1024 l 1,266,-1
 512 768 l 1,267,-1
 256 768 l 1,268,-1
 256 1024 l 1,265,-1
0 768 m 1,321,-1
 256 768 l 1,322,-1
 256 512 l 1,323,-1
 0 512 l 1,324,-1
 0 768 l 1,321,-1
0 512 m 1,385,-1
 256 512 l 1,386,-1
 256 256 l 1,387,-1
 0 256 l 1,388,-1
 0 512 l 1,385,-1
256 512 m 1,393,-1
 512 512 l 1,394,-1
 512 256 l 1,395,-1
 256 256 l 1,396,-1
 256 512 l 1,393,-1
512 512 m 1,401,-1
 768 512 l 1,402,-1
 768 256 l 1,403,-1
 512 256 l 1,404,-1
 512 512 l 1,401,-1
768 512 m 1,409,-1
 1024 512 l 1,410,-1
 1024 256 l 1,411,-1
 768 256 l 1,412,-1
 768 512 l 1,409,-1
EndSplineSet
EndChar

StartChar: uniFF13
Encoding: 65299 65299 26
Width: 1280
Flags: W
LayerCount: 2
Fore
SplineSet
256 2048 m 1,9,-1
 512 2048 l 1,10,-1
 512 1792 l 1,11,-1
 256 1792 l 1,12,-1
 256 2048 l 1,9,-1
512 2048 m 1,17,-1
 768 2048 l 1,18,-1
 768 1792 l 1,19,-1
 512 1792 l 1,20,-1
 512 2048 l 1,17,-1
0 1792 m 1,65,-1
 256 1792 l 1,66,-1
 256 1536 l 1,67,-1
 0 1536 l 1,68,-1
 0 1792 l 1,65,-1
768 1792 m 1,89,-1
 1024 1792 l 1,90,-1
 1024 1536 l 1,91,-1
 768 1536 l 1,92,-1
 768 1792 l 1,89,-1
768 1536 m 1,153,-1
 1024 1536 l 1,154,-1
 1024 1280 l 1,155,-1
 768 1280 l 1,156,-1
 768 1536 l 1,153,-1
512 1280 m 1,209,-1
 768 1280 l 1,210,-1
 768 1024 l 1,211,-1
 512 1024 l 1,212,-1
 512 1280 l 1,209,-1
768 1024 m 1,281,-1
 1024 1024 l 1,282,-1
 1024 768 l 1,283,-1
 768 768 l 1,284,-1
 768 1024 l 1,281,-1
0 768 m 1,321,-1
 256 768 l 1,322,-1
 256 512 l 1,323,-1
 0 512 l 1,324,-1
 0 768 l 1,321,-1
768 768 m 1,345,-1
 1024 768 l 1,346,-1
 1024 512 l 1,347,-1
 768 512 l 1,348,-1
 768 768 l 1,345,-1
256 512 m 1,393,-1
 512 512 l 1,394,-1
 512 256 l 1,395,-1
 256 256 l 1,396,-1
 256 512 l 1,393,-1
512 512 m 1,401,-1
 768 512 l 1,402,-1
 768 256 l 1,403,-1
 512 256 l 1,404,-1
 512 512 l 1,401,-1
EndSplineSet
EndChar

StartChar: uniFF14
Encoding: 65300 65300 27
Width: 1280
Flags: W
LayerCount: 2
Fore
SplineSet
512 2048 m 1,17,-1
 768 2048 l 1,18,-1
 768 1792 l 1,19,-1
 512 1792 l 1,20,-1
 512 2048 l 1,17,-1
256 1792 m 1,73,-1
 512 1792 l 1,74,-1
 512 1536 l 1,75,-1
 256 1536 l 1,76,-1
 256 1792 l 1,73,-1
0 1536 m 1,129,-1
 256 1536 l 1,130,-1
 256 1280 l 1,131,-1
 0 1280 l 1,132,-1
 0 1536 l 1,129,-1
0 1280 m 1,193,-1
 256 1280 l 1,194,-1
 256 1024 l 1,195,-1
 0 1024 l 1,196,-1
 0 1280 l 1,193,-1
512 1280 m 1,209,-1
 768 1280 l 1,210,-1
 768 1024 l 1,211,-1
 512 1024 l 1,212,-1
 512 1280 l 1,209,-1
0 1024 m 1,257,-1
 256 1024 l 1,258,-1
 256 768 l 1,259,-1
 0 768 l 1,260,-1
 0 1024 l 1,257,-1
256 1024 m 1,265,-1
 512 1024 l 1,266,-1
 512 768 l 1,267,-1
 256 768 l 1,268,-1
 256 1024 l 1,265,-1
512 1024 m 1,273,-1
 768 1024 l 1,274,-1
 768 768 l 1,275,-1
 512 768 l 1,276,-1
 512 1024 l 1,273,-1
768 1024 m 1,281,-1
 1024 1024 l 1,282,-1
 1024 768 l 1,283,-1
 768 768 l 1,284,-1
 768 1024 l 1,281,-1
512 768 m 1,337,-1
 768 768 l 1,338,-1
 768 512 l 1,339,-1
 512 512 l 1,340,-1
 512 768 l 1,337,-1
512 512 m 1,401,-1
 768 512 l 1,402,-1
 768 256 l 1,403,-1
 512 256 l 1,404,-1
 512 512 l 1,401,-1
EndSplineSet
EndChar

StartChar: uniFF15
Encoding: 65301 65301 28
Width: 1280
Flags: W
LayerCount: 2
Fore
SplineSet
0 2048 m 1,1,-1
 256 2048 l 1,2,-1
 256 1792 l 1,3,-1
 0 1792 l 1,4,-1
 0 2048 l 1,1,-1
256 2048 m 1,9,-1
 512 2048 l 1,10,-1
 512 1792 l 1,11,-1
 256 1792 l 1,12,-1
 256 2048 l 1,9,-1
512 2048 m 1,17,-1
 768 2048 l 1,18,-1
 768 1792 l 1,19,-1
 512 1792 l 1,20,-1
 512 2048 l 1,17,-1
768 2048 m 1,25,-1
 1024 2048 l 1,26,-1
 1024 1792 l 1,27,-1
 768 1792 l 1,28,-1
 768 2048 l 1,25,-1
0 1792 m 1,65,-1
 256 1792 l 1,66,-1
 256 1536 l 1,67,-1
 0 1536 l 1,68,-1
 0 1792 l 1,65,-1
0 1536 m 1,129,-1
 256 1536 l 1,130,-1
 256 1280 l 1,131,-1
 0 1280 l 1,132,-1
 0 1536 l 1,129,-1
0 1280 m 1,193,-1
 256 1280 l 1,194,-1
 256 1024 l 1,195,-1
 0 1024 l 1,196,-1
 0 1280 l 1,193,-1
256 1280 m 1,201,-1
 512 1280 l 1,202,-1
 512 1024 l 1,203,-1
 256 1024 l 1,204,-1
 256 1280 l 1,201,-1
512 1280 m 1,209,-1
 768 1280 l 1,210,-1
 768 1024 l 1,211,-1
 512 1024 l 1,212,-1
 512 1280 l 1,209,-1
768 1024 m 1,281,-1
 1024 1024 l 1,282,-1
 1024 768 l 1,283,-1
 768 768 l 1,284,-1
 768 1024 l 1,281,-1
0 768 m 1,321,-1
 256 768 l 1,322,-1
 256 512 l 1,323,-1
 0 512 l 1,324,-1
 0 768 l 1,321,-1
768 768 m 1,345,-1
 1024 768 l 1,346,-1
 1024 512 l 1,347,-1
 768 512 l 1,348,-1
 768 768 l 1,345,-1
256 512 m 1,393,-1
 512 512 l 1,394,-1
 512 256 l 1,395,-1
 256 256 l 1,396,-1
 256 512 l 1,393,-1
512 512 m 1,401,-1
 768 512 l 1,402,-1
 768 256 l 1,403,-1
 512 256 l 1,404,-1
 512 512 l 1,401,-1
EndSplineSet
EndChar

StartChar: uniFF16
Encoding: 65302 65302 29
Width: 1280
Flags: W
LayerCount: 2
Fore
SplineSet
256 2048 m 1,9,-1
 512 2048 l 1,10,-1
 512 1792 l 1,11,-1
 256 1792 l 1,12,-1
 256 2048 l 1,9,-1
512 2048 m 1,17,-1
 768 2048 l 1,18,-1
 768 1792 l 1,19,-1
 512 1792 l 1,20,-1
 512 2048 l 1,17,-1
0 1792 m 1,65,-1
 256 1792 l 1,66,-1
 256 1536 l 1,67,-1
 0 1536 l 1,68,-1
 0 1792 l 1,65,-1
0 1536 m 1,129,-1
 256 1536 l 1,130,-1
 256 1280 l 1,131,-1
 0 1280 l 1,132,-1
 0 1536 l 1,129,-1
0 1280 m 1,193,-1
 256 1280 l 1,194,-1
 256 1024 l 1,195,-1
 0 1024 l 1,196,-1
 0 1280 l 1,193,-1
256 1280 m 1,201,-1
 512 1280 l 1,202,-1
 512 1024 l 1,203,-1
 256 1024 l 1,204,-1
 256 1280 l 1,201,-1
512 1280 m 1,209,-1
 768 1280 l 1,210,-1
 768 1024 l 1,211,-1
 512 1024 l 1,212,-1
 512 1280 l 1,209,-1
0 1024 m 1,257,-1
 256 1024 l 1,258,-1
 256 768 l 1,259,-1
 0 768 l 1,260,-1
 0 1024 l 1,257,-1
768 1024 m 1,281,-1
 1024 1024 l 1,282,-1
 1024 768 l 1,283,-1
 768 768 l 1,284,-1
 768 1024 l 1,281,-1
0 768 m 1,321,-1
 256 768 l 1,322,-1
 256 512 l 1,323,-1
 0 512 l 1,324,-1
 0 768 l 1,321,-1
768 768 m 1,345,-1
 1024 768 l 1,346,-1
 1024 512 l 1,347,-1
 768 512 l 1,348,-1
 768 768 l 1,345,-1
256 512 m 1,393,-1
 512 512 l 1,394,-1
 512 256 l 1,395,-1
 256 256 l 1,396,-1
 256 512 l 1,393,-1
512 512 m 1,401,-1
 768 512 l 1,402,-1
 768 256 l 1,403,-1
 512 256 l 1,404,-1
 512 512 l 1,401,-1
EndSplineSet
EndChar

StartChar: uniFF17
Encoding: 65303 65303 30
Width: 1280
Flags: W
LayerCount: 2
Fore
SplineSet
0 2048 m 1,1,-1
 256 2048 l 1,2,-1
 256 1792 l 1,3,-1
 0 1792 l 1,4,-1
 0 2048 l 1,1,-1
256 2048 m 1,9,-1
 512 2048 l 1,10,-1
 512 1792 l 1,11,-1
 256 1792 l 1,12,-1
 256 2048 l 1,9,-1
512 2048 m 1,17,-1
 768 2048 l 1,18,-1
 768 1792 l 1,19,-1
 512 1792 l 1,20,-1
 512 2048 l 1,17,-1
768 2048 m 1,25,-1
 1024 2048 l 1,26,-1
 1024 1792 l 1,27,-1
 768 1792 l 1,28,-1
 768 2048 l 1,25,-1
0 1792 m 1,65,-1
 256 1792 l 1,66,-1
 256 1536 l 1,67,-1
 0 1536 l 1,68,-1
 0 1792 l 1,65,-1
768 1792 m 1,89,-1
 1024 1792 l 1,90,-1
 1024 1536 l 1,91,-1
 768 1536 l 1,92,-1
 768 1792 l 1,89,-1
640 1536 m 1,149,-1
 768 1536 l 1,150,-1
 768 1408 l 1,151,-1
 640 1408 l 1,152,-1
 640 1536 l 1,149,-1
768 1536 m 1,153,-1
 896 1536 l 1,154,-1
 896 1408 l 1,155,-1
 768 1408 l 1,156,-1
 768 1536 l 1,153,-1
640 1408 m 1,181,-1
 768 1408 l 1,182,-1
 768 1280 l 1,183,-1
 640 1280 l 1,184,-1
 640 1408 l 1,181,-1
768 1408 m 1,185,-1
 896 1408 l 1,186,-1
 896 1280 l 1,187,-1
 768 1280 l 1,188,-1
 768 1408 l 1,185,-1
512 1280 m 1,209,-1
 768 1280 l 1,210,-1
 768 1024 l 1,211,-1
 512 1024 l 1,212,-1
 512 1280 l 1,209,-1
384 1024 m 1,269,-1
 512 1024 l 1,270,-1
 512 896 l 1,271,-1
 384 896 l 1,272,-1
 384 1024 l 1,269,-1
512 1024 m 1,273,-1
 640 1024 l 1,274,-1
 640 896 l 1,275,-1
 512 896 l 1,276,-1
 512 1024 l 1,273,-1
384 896 m 1,301,-1
 512 896 l 1,302,-1
 512 768 l 1,303,-1
 384 768 l 1,304,-1
 384 896 l 1,301,-1
512 896 m 1,305,-1
 640 896 l 1,306,-1
 640 768 l 1,307,-1
 512 768 l 1,308,-1
 512 896 l 1,305,-1
256 768 m 1,329,-1
 512 768 l 1,330,-1
 512 512 l 1,331,-1
 256 512 l 1,332,-1
 256 768 l 1,329,-1
256 512 m 1,393,-1
 512 512 l 1,394,-1
 512 256 l 1,395,-1
 256 256 l 1,396,-1
 256 512 l 1,393,-1
EndSplineSet
EndChar

StartChar: uniFF18
Encoding: 65304 65304 31
Width: 1280
Flags: W
LayerCount: 2
Fore
SplineSet
256 2048 m 1,9,-1
 512 2048 l 1,10,-1
 512 1792 l 1,11,-1
 256 1792 l 1,12,-1
 256 2048 l 1,9,-1
512 2048 m 1,17,-1
 768 2048 l 1,18,-1
 768 1792 l 1,19,-1
 512 1792 l 1,20,-1
 512 2048 l 1,17,-1
0 1792 m 1,65,-1
 256 1792 l 1,66,-1
 256 1536 l 1,67,-1
 0 1536 l 1,68,-1
 0 1792 l 1,65,-1
768 1792 m 1,89,-1
 1024 1792 l 1,90,-1
 1024 1536 l 1,91,-1
 768 1536 l 1,92,-1
 768 1792 l 1,89,-1
0 1536 m 1,129,-1
 256 1536 l 1,130,-1
 256 1280 l 1,131,-1
 0 1280 l 1,132,-1
 0 1536 l 1,129,-1
768 1536 m 1,153,-1
 1024 1536 l 1,154,-1
 1024 1280 l 1,155,-1
 768 1280 l 1,156,-1
 768 1536 l 1,153,-1
256 1280 m 1,201,-1
 512 1280 l 1,202,-1
 512 1024 l 1,203,-1
 256 1024 l 1,204,-1
 256 1280 l 1,201,-1
512 1280 m 1,209,-1
 768 1280 l 1,210,-1
 768 1024 l 1,211,-1
 512 1024 l 1,212,-1
 512 1280 l 1,209,-1
0 1024 m 1,257,-1
 256 1024 l 1,258,-1
 256 768 l 1,259,-1
 0 768 l 1,260,-1
 0 1024 l 1,257,-1
768 1024 m 1,281,-1
 1024 1024 l 1,282,-1
 1024 768 l 1,283,-1
 768 768 l 1,284,-1
 768 1024 l 1,281,-1
0 768 m 1,321,-1
 256 768 l 1,322,-1
 256 512 l 1,323,-1
 0 512 l 1,324,-1
 0 768 l 1,321,-1
768 768 m 1,345,-1
 1024 768 l 1,346,-1
 1024 512 l 1,347,-1
 768 512 l 1,348,-1
 768 768 l 1,345,-1
256 512 m 1,393,-1
 512 512 l 1,394,-1
 512 256 l 1,395,-1
 256 256 l 1,396,-1
 256 512 l 1,393,-1
512 512 m 1,401,-1
 768 512 l 1,402,-1
 768 256 l 1,403,-1
 512 256 l 1,404,-1
 512 512 l 1,401,-1
EndSplineSet
EndChar

StartChar: uniFF19
Encoding: 65305 65305 32
Width: 1280
Flags: W
LayerCount: 2
Fore
SplineSet
256 2048 m 1,9,-1
 512 2048 l 1,10,-1
 512 1792 l 1,11,-1
 256 1792 l 1,12,-1
 256 2048 l 1,9,-1
512 2048 m 1,17,-1
 768 2048 l 1,18,-1
 768 1792 l 1,19,-1
 512 1792 l 1,20,-1
 512 2048 l 1,17,-1
0 1792 m 1,65,-1
 256 1792 l 1,66,-1
 256 1536 l 1,67,-1
 0 1536 l 1,68,-1
 0 1792 l 1,65,-1
768 1792 m 1,89,-1
 1024 1792 l 1,90,-1
 1024 1536 l 1,91,-1
 768 1536 l 1,92,-1
 768 1792 l 1,89,-1
0 1536 m 1,129,-1
 256 1536 l 1,130,-1
 256 1280 l 1,131,-1
 0 1280 l 1,132,-1
 0 1536 l 1,129,-1
768 1536 m 1,153,-1
 1024 1536 l 1,154,-1
 1024 1280 l 1,155,-1
 768 1280 l 1,156,-1
 768 1536 l 1,153,-1
256 1280 m 1,201,-1
 512 1280 l 1,202,-1
 512 1024 l 1,203,-1
 256 1024 l 1,204,-1
 256 1280 l 1,201,-1
512 1280 m 1,209,-1
 768 1280 l 1,210,-1
 768 1024 l 1,211,-1
 512 1024 l 1,212,-1
 512 1280 l 1,209,-1
768 1280 m 1,217,-1
 1024 1280 l 1,218,-1
 1024 1024 l 1,219,-1
 768 1024 l 1,220,-1
 768 1280 l 1,217,-1
768 1024 m 1,281,-1
 1024 1024 l 1,282,-1
 1024 768 l 1,283,-1
 768 768 l 1,284,-1
 768 1024 l 1,281,-1
768 768 m 1,345,-1
 1024 768 l 1,346,-1
 1024 512 l 1,347,-1
 768 512 l 1,348,-1
 768 768 l 1,345,-1
256 512 m 1,393,-1
 512 512 l 1,394,-1
 512 256 l 1,395,-1
 256 256 l 1,396,-1
 256 512 l 1,393,-1
512 512 m 1,401,-1
 768 512 l 1,402,-1
 768 256 l 1,403,-1
 512 256 l 1,404,-1
 512 512 l 1,401,-1
EndSplineSet
EndChar

StartChar: uniFF1A
Encoding: 65306 65306 33
Width: 1280
Flags: W
LayerCount: 2
Fore
SplineSet
256 1792 m 1,73,-1
 512 1792 l 1,74,-1
 512 1536 l 1,75,-1
 256 1536 l 1,76,-1
 256 1792 l 1,73,-1
512 1792 m 1,81,-1
 768 1792 l 1,82,-1
 768 1536 l 1,83,-1
 512 1536 l 1,84,-1
 512 1792 l 1,81,-1
256 1536 m 1,137,-1
 512 1536 l 1,138,-1
 512 1280 l 1,139,-1
 256 1280 l 1,140,-1
 256 1536 l 1,137,-1
512 1536 m 1,145,-1
 768 1536 l 1,146,-1
 768 1280 l 1,147,-1
 512 1280 l 1,148,-1
 512 1536 l 1,145,-1
256 1024 m 1,265,-1
 512 1024 l 1,266,-1
 512 768 l 1,267,-1
 256 768 l 1,268,-1
 256 1024 l 1,265,-1
512 1024 m 1,273,-1
 768 1024 l 1,274,-1
 768 768 l 1,275,-1
 512 768 l 1,276,-1
 512 1024 l 1,273,-1
256 768 m 1,329,-1
 512 768 l 1,330,-1
 512 512 l 1,331,-1
 256 512 l 1,332,-1
 256 768 l 1,329,-1
512 768 m 1,337,-1
 768 768 l 1,338,-1
 768 512 l 1,339,-1
 512 512 l 1,340,-1
 512 768 l 1,337,-1
EndSplineSet
EndChar

StartChar: uniFF1B
Encoding: 65307 65307 34
Width: 1280
Flags: W
LayerCount: 2
Fore
SplineSet
256 1792 m 1,73,-1
 512 1792 l 1,74,-1
 512 1536 l 1,75,-1
 256 1536 l 1,76,-1
 256 1792 l 1,73,-1
512 1792 m 1,81,-1
 768 1792 l 1,82,-1
 768 1536 l 1,83,-1
 512 1536 l 1,84,-1
 512 1792 l 1,81,-1
256 1536 m 1,137,-1
 512 1536 l 1,138,-1
 512 1280 l 1,139,-1
 256 1280 l 1,140,-1
 256 1536 l 1,137,-1
512 1536 m 1,145,-1
 768 1536 l 1,146,-1
 768 1280 l 1,147,-1
 512 1280 l 1,148,-1
 512 1536 l 1,145,-1
256 1024 m 1,265,-1
 512 1024 l 1,266,-1
 512 768 l 1,267,-1
 256 768 l 1,268,-1
 256 1024 l 1,265,-1
512 1024 m 1,273,-1
 768 1024 l 1,274,-1
 768 768 l 1,275,-1
 512 768 l 1,276,-1
 512 1024 l 1,273,-1
256 768 m 1,329,-1
 512 768 l 1,330,-1
 512 512 l 1,331,-1
 256 512 l 1,332,-1
 256 768 l 1,329,-1
512 768 m 1,337,-1
 768 768 l 1,338,-1
 768 512 l 1,339,-1
 512 512 l 1,340,-1
 512 768 l 1,337,-1
0 512 m 1,385,-1
 256 512 l 1,386,-1
 256 256 l 1,387,-1
 0 256 l 1,388,-1
 0 512 l 1,385,-1
256 512 m 1,393,-1
 512 512 l 1,394,-1
 512 256 l 1,395,-1
 256 256 l 1,396,-1
 256 512 l 1,393,-1
EndSplineSet
EndChar

StartChar: uniFF1C
Encoding: 65308 65308 35
Width: 1280
Flags: W
LayerCount: 2
Fore
SplineSet
512 1792 m 1,81,-1
 768 1792 l 1,82,-1
 768 1536 l 1,83,-1
 512 1536 l 1,84,-1
 512 1792 l 1,81,-1
256 1536 m 1,137,-1
 512 1536 l 1,138,-1
 512 1280 l 1,139,-1
 256 1280 l 1,140,-1
 256 1536 l 1,137,-1
0 1280 m 1,193,-1
 256 1280 l 1,194,-1
 256 1024 l 1,195,-1
 0 1024 l 1,196,-1
 0 1280 l 1,193,-1
256 1024 m 1,265,-1
 512 1024 l 1,266,-1
 512 768 l 1,267,-1
 256 768 l 1,268,-1
 256 1024 l 1,265,-1
512 768 m 1,337,-1
 768 768 l 1,338,-1
 768 512 l 1,339,-1
 512 512 l 1,340,-1
 512 768 l 1,337,-1
EndSplineSet
EndChar

StartChar: uniFF1D
Encoding: 65309 65309 36
Width: 1280
Flags: W
LayerCount: 2
Fore
SplineSet
0 1536 m 1,129,-1
 256 1536 l 1,130,-1
 256 1280 l 1,131,-1
 0 1280 l 1,132,-1
 0 1536 l 1,129,-1
256 1536 m 1,137,-1
 512 1536 l 1,138,-1
 512 1280 l 1,139,-1
 256 1280 l 1,140,-1
 256 1536 l 1,137,-1
512 1536 m 1,145,-1
 768 1536 l 1,146,-1
 768 1280 l 1,147,-1
 512 1280 l 1,148,-1
 512 1536 l 1,145,-1
768 1536 m 1,153,-1
 1024 1536 l 1,154,-1
 1024 1280 l 1,155,-1
 768 1280 l 1,156,-1
 768 1536 l 1,153,-1
0 1024 m 1,257,-1
 256 1024 l 1,258,-1
 256 768 l 1,259,-1
 0 768 l 1,260,-1
 0 1024 l 1,257,-1
256 1024 m 1,265,-1
 512 1024 l 1,266,-1
 512 768 l 1,267,-1
 256 768 l 1,268,-1
 256 1024 l 1,265,-1
512 1024 m 1,273,-1
 768 1024 l 1,274,-1
 768 768 l 1,275,-1
 512 768 l 1,276,-1
 512 1024 l 1,273,-1
768 1024 m 1,281,-1
 1024 1024 l 1,282,-1
 1024 768 l 1,283,-1
 768 768 l 1,284,-1
 768 1024 l 1,281,-1
EndSplineSet
EndChar

StartChar: uniFF1E
Encoding: 65310 65310 37
Width: 1280
Flags: W
LayerCount: 2
Fore
SplineSet
256 1792 m 1,73,-1
 512 1792 l 1,74,-1
 512 1536 l 1,75,-1
 256 1536 l 1,76,-1
 256 1792 l 1,73,-1
512 1536 m 1,145,-1
 768 1536 l 1,146,-1
 768 1280 l 1,147,-1
 512 1280 l 1,148,-1
 512 1536 l 1,145,-1
768 1280 m 1,217,-1
 1024 1280 l 1,218,-1
 1024 1024 l 1,219,-1
 768 1024 l 1,220,-1
 768 1280 l 1,217,-1
512 1024 m 1,273,-1
 768 1024 l 1,274,-1
 768 768 l 1,275,-1
 512 768 l 1,276,-1
 512 1024 l 1,273,-1
256 768 m 1,329,-1
 512 768 l 1,330,-1
 512 512 l 1,331,-1
 256 512 l 1,332,-1
 256 768 l 1,329,-1
EndSplineSet
EndChar

StartChar: uniFF1F
Encoding: 65311 65311 38
Width: 1280
Flags: W
LayerCount: 2
Fore
SplineSet
256 2048 m 1,9,-1
 512 2048 l 1,10,-1
 512 1792 l 1,11,-1
 256 1792 l 1,12,-1
 256 2048 l 1,9,-1
512 2048 m 1,17,-1
 768 2048 l 1,18,-1
 768 1792 l 1,19,-1
 512 1792 l 1,20,-1
 512 2048 l 1,17,-1
0 1792 m 1,65,-1
 256 1792 l 1,66,-1
 256 1536 l 1,67,-1
 0 1536 l 1,68,-1
 0 1792 l 1,65,-1
768 1792 m 1,89,-1
 1024 1792 l 1,90,-1
 1024 1536 l 1,91,-1
 768 1536 l 1,92,-1
 768 1792 l 1,89,-1
768 1536 m 1,153,-1
 1024 1536 l 1,154,-1
 1024 1280 l 1,155,-1
 768 1280 l 1,156,-1
 768 1536 l 1,153,-1
512 1280 m 1,209,-1
 768 1280 l 1,210,-1
 768 1024 l 1,211,-1
 512 1024 l 1,212,-1
 512 1280 l 1,209,-1
256 1024 m 1,265,-1
 512 1024 l 1,266,-1
 512 768 l 1,267,-1
 256 768 l 1,268,-1
 256 1024 l 1,265,-1
256 512 m 1,393,-1
 512 512 l 1,394,-1
 512 256 l 1,395,-1
 256 256 l 1,396,-1
 256 512 l 1,393,-1
EndSplineSet
EndChar

StartChar: uniFF20
Encoding: 65312 65312 39
Width: 1280
Flags: W
LayerCount: 2
Fore
SplineSet
256 2048 m 1,9,-1
 512 2048 l 1,10,-1
 512 1792 l 1,11,-1
 256 1792 l 1,12,-1
 256 2048 l 1,9,-1
512 2048 m 1,17,-1
 768 2048 l 1,18,-1
 768 1792 l 1,19,-1
 512 1792 l 1,20,-1
 512 2048 l 1,17,-1
0 1792 m 1,65,-1
 256 1792 l 1,66,-1
 256 1536 l 1,67,-1
 0 1536 l 1,68,-1
 0 1792 l 1,65,-1
768 1792 m 1,89,-1
 1024 1792 l 1,90,-1
 1024 1536 l 1,91,-1
 768 1536 l 1,92,-1
 768 1792 l 1,89,-1
0 1536 m 1,129,-1
 256 1536 l 1,130,-1
 256 1280 l 1,131,-1
 0 1280 l 1,132,-1
 0 1536 l 1,129,-1
512 1536 m 1,145,-1
 768 1536 l 1,146,-1
 768 1280 l 1,147,-1
 512 1280 l 1,148,-1
 512 1536 l 1,145,-1
768 1536 m 1,153,-1
 1024 1536 l 1,154,-1
 1024 1280 l 1,155,-1
 768 1280 l 1,156,-1
 768 1536 l 1,153,-1
0 1280 m 1,193,-1
 256 1280 l 1,194,-1
 256 1024 l 1,195,-1
 0 1024 l 1,196,-1
 0 1280 l 1,193,-1
384 1280 m 1,205,-1
 512 1280 l 1,206,-1
 512 1152 l 1,207,-1
 384 1152 l 1,208,-1
 384 1280 l 1,205,-1
512 1280 m 1,209,-1
 640 1280 l 1,210,-1
 640 1152 l 1,211,-1
 512 1152 l 1,212,-1
 512 1280 l 1,209,-1
768 1280 m 1,217,-1
 1024 1280 l 1,218,-1
 1024 1024 l 1,219,-1
 768 1024 l 1,220,-1
 768 1280 l 1,217,-1
384 1152 m 1,237,-1
 512 1152 l 1,238,-1
 512 1024 l 1,239,-1
 384 1024 l 1,240,-1
 384 1152 l 1,237,-1
512 1152 m 1,241,-1
 640 1152 l 1,242,-1
 640 1024 l 1,243,-1
 512 1024 l 1,244,-1
 512 1152 l 1,241,-1
0 1024 m 1,257,-1
 256 1024 l 1,258,-1
 256 768 l 1,259,-1
 0 768 l 1,260,-1
 0 1024 l 1,257,-1
384 1024 m 1,269,-1
 512 1024 l 1,270,-1
 512 896 l 1,271,-1
 384 896 l 1,272,-1
 384 1024 l 1,269,-1
512 1024 m 1,273,-1
 768 1024 l 1,274,-1
 768 768 l 1,275,-1
 512 768 l 1,276,-1
 512 1024 l 1,273,-1
768 1024 m 1,281,-1
 1024 1024 l 1,282,-1
 1024 768 l 1,283,-1
 768 768 l 1,284,-1
 768 1024 l 1,281,-1
384 896 m 1,301,-1
 512 896 l 1,302,-1
 512 768 l 1,303,-1
 384 768 l 1,304,-1
 384 896 l 1,301,-1
0 768 m 1,321,-1
 256 768 l 1,322,-1
 256 512 l 1,323,-1
 0 512 l 1,324,-1
 0 768 l 1,321,-1
256 512 m 1,393,-1
 512 512 l 1,394,-1
 512 256 l 1,395,-1
 256 256 l 1,396,-1
 256 512 l 1,393,-1
512 512 m 1,401,-1
 768 512 l 1,402,-1
 768 256 l 1,403,-1
 512 256 l 1,404,-1
 512 512 l 1,401,-1
EndSplineSet
EndChar

StartChar: uniFF21
Encoding: 65313 65313 40
Width: 1280
Flags: W
LayerCount: 2
Fore
SplineSet
256 2048 m 1,9,-1
 512 2048 l 1,10,-1
 512 1792 l 1,11,-1
 256 1792 l 1,12,-1
 256 2048 l 1,9,-1
512 2048 m 1,17,-1
 768 2048 l 1,18,-1
 768 1792 l 1,19,-1
 512 1792 l 1,20,-1
 512 2048 l 1,17,-1
0 1792 m 1,65,-1
 256 1792 l 1,66,-1
 256 1536 l 1,67,-1
 0 1536 l 1,68,-1
 0 1792 l 1,65,-1
768 1792 m 1,89,-1
 1024 1792 l 1,90,-1
 1024 1536 l 1,91,-1
 768 1536 l 1,92,-1
 768 1792 l 1,89,-1
0 1536 m 1,129,-1
 256 1536 l 1,130,-1
 256 1280 l 1,131,-1
 0 1280 l 1,132,-1
 0 1536 l 1,129,-1
768 1536 m 1,153,-1
 1024 1536 l 1,154,-1
 1024 1280 l 1,155,-1
 768 1280 l 1,156,-1
 768 1536 l 1,153,-1
0 1280 m 1,193,-1
 256 1280 l 1,194,-1
 256 1024 l 1,195,-1
 0 1024 l 1,196,-1
 0 1280 l 1,193,-1
256 1280 m 1,201,-1
 512 1280 l 1,202,-1
 512 1024 l 1,203,-1
 256 1024 l 1,204,-1
 256 1280 l 1,201,-1
512 1280 m 1,209,-1
 768 1280 l 1,210,-1
 768 1024 l 1,211,-1
 512 1024 l 1,212,-1
 512 1280 l 1,209,-1
768 1280 m 1,217,-1
 1024 1280 l 1,218,-1
 1024 1024 l 1,219,-1
 768 1024 l 1,220,-1
 768 1280 l 1,217,-1
0 1024 m 1,257,-1
 256 1024 l 1,258,-1
 256 768 l 1,259,-1
 0 768 l 1,260,-1
 0 1024 l 1,257,-1
768 1024 m 1,281,-1
 1024 1024 l 1,282,-1
 1024 768 l 1,283,-1
 768 768 l 1,284,-1
 768 1024 l 1,281,-1
0 768 m 1,321,-1
 256 768 l 1,322,-1
 256 512 l 1,323,-1
 0 512 l 1,324,-1
 0 768 l 1,321,-1
768 768 m 1,345,-1
 1024 768 l 1,346,-1
 1024 512 l 1,347,-1
 768 512 l 1,348,-1
 768 768 l 1,345,-1
0 512 m 1,385,-1
 256 512 l 1,386,-1
 256 256 l 1,387,-1
 0 256 l 1,388,-1
 0 512 l 1,385,-1
768 512 m 1,409,-1
 1024 512 l 1,410,-1
 1024 256 l 1,411,-1
 768 256 l 1,412,-1
 768 512 l 1,409,-1
EndSplineSet
EndChar

StartChar: uniFF22
Encoding: 65314 65314 41
Width: 1280
Flags: W
LayerCount: 2
Fore
SplineSet
0 2048 m 1,1,-1
 256 2048 l 1,2,-1
 256 1792 l 1,3,-1
 0 1792 l 1,4,-1
 0 2048 l 1,1,-1
256 2048 m 1,9,-1
 512 2048 l 1,10,-1
 512 1792 l 1,11,-1
 256 1792 l 1,12,-1
 256 2048 l 1,9,-1
512 2048 m 1,17,-1
 768 2048 l 1,18,-1
 768 1792 l 1,19,-1
 512 1792 l 1,20,-1
 512 2048 l 1,17,-1
0 1792 m 1,65,-1
 256 1792 l 1,66,-1
 256 1536 l 1,67,-1
 0 1536 l 1,68,-1
 0 1792 l 1,65,-1
768 1792 m 1,89,-1
 1024 1792 l 1,90,-1
 1024 1536 l 1,91,-1
 768 1536 l 1,92,-1
 768 1792 l 1,89,-1
0 1536 m 1,129,-1
 256 1536 l 1,130,-1
 256 1280 l 1,131,-1
 0 1280 l 1,132,-1
 0 1536 l 1,129,-1
768 1536 m 1,153,-1
 1024 1536 l 1,154,-1
 1024 1280 l 1,155,-1
 768 1280 l 1,156,-1
 768 1536 l 1,153,-1
0 1280 m 1,193,-1
 256 1280 l 1,194,-1
 256 1024 l 1,195,-1
 0 1024 l 1,196,-1
 0 1280 l 1,193,-1
256 1280 m 1,201,-1
 512 1280 l 1,202,-1
 512 1024 l 1,203,-1
 256 1024 l 1,204,-1
 256 1280 l 1,201,-1
512 1280 m 1,209,-1
 768 1280 l 1,210,-1
 768 1024 l 1,211,-1
 512 1024 l 1,212,-1
 512 1280 l 1,209,-1
0 1024 m 1,257,-1
 256 1024 l 1,258,-1
 256 768 l 1,259,-1
 0 768 l 1,260,-1
 0 1024 l 1,257,-1
768 1024 m 1,281,-1
 1024 1024 l 1,282,-1
 1024 768 l 1,283,-1
 768 768 l 1,284,-1
 768 1024 l 1,281,-1
0 768 m 1,321,-1
 256 768 l 1,322,-1
 256 512 l 1,323,-1
 0 512 l 1,324,-1
 0 768 l 1,321,-1
768 768 m 1,345,-1
 1024 768 l 1,346,-1
 1024 512 l 1,347,-1
 768 512 l 1,348,-1
 768 768 l 1,345,-1
0 512 m 1,385,-1
 256 512 l 1,386,-1
 256 256 l 1,387,-1
 0 256 l 1,388,-1
 0 512 l 1,385,-1
256 512 m 1,393,-1
 512 512 l 1,394,-1
 512 256 l 1,395,-1
 256 256 l 1,396,-1
 256 512 l 1,393,-1
512 512 m 1,401,-1
 768 512 l 1,402,-1
 768 256 l 1,403,-1
 512 256 l 1,404,-1
 512 512 l 1,401,-1
EndSplineSet
EndChar

StartChar: uniFF23
Encoding: 65315 65315 42
Width: 1280
Flags: W
LayerCount: 2
Fore
SplineSet
256 2048 m 1,9,-1
 512 2048 l 1,10,-1
 512 1792 l 1,11,-1
 256 1792 l 1,12,-1
 256 2048 l 1,9,-1
512 2048 m 1,17,-1
 768 2048 l 1,18,-1
 768 1792 l 1,19,-1
 512 1792 l 1,20,-1
 512 2048 l 1,17,-1
0 1792 m 1,65,-1
 256 1792 l 1,66,-1
 256 1536 l 1,67,-1
 0 1536 l 1,68,-1
 0 1792 l 1,65,-1
768 1792 m 1,89,-1
 1024 1792 l 1,90,-1
 1024 1536 l 1,91,-1
 768 1536 l 1,92,-1
 768 1792 l 1,89,-1
0 1536 m 1,129,-1
 256 1536 l 1,130,-1
 256 1280 l 1,131,-1
 0 1280 l 1,132,-1
 0 1536 l 1,129,-1
0 1280 m 1,193,-1
 256 1280 l 1,194,-1
 256 1024 l 1,195,-1
 0 1024 l 1,196,-1
 0 1280 l 1,193,-1
0 1024 m 1,257,-1
 256 1024 l 1,258,-1
 256 768 l 1,259,-1
 0 768 l 1,260,-1
 0 1024 l 1,257,-1
0 768 m 1,321,-1
 256 768 l 1,322,-1
 256 512 l 1,323,-1
 0 512 l 1,324,-1
 0 768 l 1,321,-1
768 768 m 1,345,-1
 1024 768 l 1,346,-1
 1024 512 l 1,347,-1
 768 512 l 1,348,-1
 768 768 l 1,345,-1
256 512 m 1,393,-1
 512 512 l 1,394,-1
 512 256 l 1,395,-1
 256 256 l 1,396,-1
 256 512 l 1,393,-1
512 512 m 1,401,-1
 768 512 l 1,402,-1
 768 256 l 1,403,-1
 512 256 l 1,404,-1
 512 512 l 1,401,-1
EndSplineSet
EndChar

StartChar: uniFF24
Encoding: 65316 65316 43
Width: 1280
Flags: W
LayerCount: 2
Fore
SplineSet
0 2048 m 1,1,-1
 256 2048 l 1,2,-1
 256 1792 l 1,3,-1
 0 1792 l 1,4,-1
 0 2048 l 1,1,-1
256 2048 m 1,9,-1
 512 2048 l 1,10,-1
 512 1792 l 1,11,-1
 256 1792 l 1,12,-1
 256 2048 l 1,9,-1
512 2048 m 1,17,-1
 768 2048 l 1,18,-1
 768 1792 l 1,19,-1
 512 1792 l 1,20,-1
 512 2048 l 1,17,-1
0 1792 m 1,65,-1
 256 1792 l 1,66,-1
 256 1536 l 1,67,-1
 0 1536 l 1,68,-1
 0 1792 l 1,65,-1
768 1792 m 1,89,-1
 1024 1792 l 1,90,-1
 1024 1536 l 1,91,-1
 768 1536 l 1,92,-1
 768 1792 l 1,89,-1
0 1536 m 1,129,-1
 256 1536 l 1,130,-1
 256 1280 l 1,131,-1
 0 1280 l 1,132,-1
 0 1536 l 1,129,-1
768 1536 m 1,153,-1
 1024 1536 l 1,154,-1
 1024 1280 l 1,155,-1
 768 1280 l 1,156,-1
 768 1536 l 1,153,-1
0 1280 m 1,193,-1
 256 1280 l 1,194,-1
 256 1024 l 1,195,-1
 0 1024 l 1,196,-1
 0 1280 l 1,193,-1
768 1280 m 1,217,-1
 1024 1280 l 1,218,-1
 1024 1024 l 1,219,-1
 768 1024 l 1,220,-1
 768 1280 l 1,217,-1
0 1024 m 1,257,-1
 256 1024 l 1,258,-1
 256 768 l 1,259,-1
 0 768 l 1,260,-1
 0 1024 l 1,257,-1
768 1024 m 1,281,-1
 1024 1024 l 1,282,-1
 1024 768 l 1,283,-1
 768 768 l 1,284,-1
 768 1024 l 1,281,-1
0 768 m 1,321,-1
 256 768 l 1,322,-1
 256 512 l 1,323,-1
 0 512 l 1,324,-1
 0 768 l 1,321,-1
768 768 m 1,345,-1
 1024 768 l 1,346,-1
 1024 512 l 1,347,-1
 768 512 l 1,348,-1
 768 768 l 1,345,-1
0 512 m 1,385,-1
 256 512 l 1,386,-1
 256 256 l 1,387,-1
 0 256 l 1,388,-1
 0 512 l 1,385,-1
256 512 m 1,393,-1
 512 512 l 1,394,-1
 512 256 l 1,395,-1
 256 256 l 1,396,-1
 256 512 l 1,393,-1
512 512 m 1,401,-1
 768 512 l 1,402,-1
 768 256 l 1,403,-1
 512 256 l 1,404,-1
 512 512 l 1,401,-1
EndSplineSet
EndChar

StartChar: uniFF25
Encoding: 65317 65317 44
Width: 1280
Flags: W
LayerCount: 2
Fore
SplineSet
0 2048 m 1,1,-1
 256 2048 l 1,2,-1
 256 1792 l 1,3,-1
 0 1792 l 1,4,-1
 0 2048 l 1,1,-1
256 2048 m 1,9,-1
 512 2048 l 1,10,-1
 512 1792 l 1,11,-1
 256 1792 l 1,12,-1
 256 2048 l 1,9,-1
512 2048 m 1,17,-1
 768 2048 l 1,18,-1
 768 1792 l 1,19,-1
 512 1792 l 1,20,-1
 512 2048 l 1,17,-1
768 2048 m 1,25,-1
 1024 2048 l 1,26,-1
 1024 1792 l 1,27,-1
 768 1792 l 1,28,-1
 768 2048 l 1,25,-1
0 1792 m 1,65,-1
 256 1792 l 1,66,-1
 256 1536 l 1,67,-1
 0 1536 l 1,68,-1
 0 1792 l 1,65,-1
0 1536 m 1,129,-1
 256 1536 l 1,130,-1
 256 1280 l 1,131,-1
 0 1280 l 1,132,-1
 0 1536 l 1,129,-1
0 1280 m 1,193,-1
 256 1280 l 1,194,-1
 256 1024 l 1,195,-1
 0 1024 l 1,196,-1
 0 1280 l 1,193,-1
256 1280 m 1,201,-1
 512 1280 l 1,202,-1
 512 1024 l 1,203,-1
 256 1024 l 1,204,-1
 256 1280 l 1,201,-1
512 1280 m 1,209,-1
 768 1280 l 1,210,-1
 768 1024 l 1,211,-1
 512 1024 l 1,212,-1
 512 1280 l 1,209,-1
0 1024 m 1,257,-1
 256 1024 l 1,258,-1
 256 768 l 1,259,-1
 0 768 l 1,260,-1
 0 1024 l 1,257,-1
0 768 m 1,321,-1
 256 768 l 1,322,-1
 256 512 l 1,323,-1
 0 512 l 1,324,-1
 0 768 l 1,321,-1
0 512 m 1,385,-1
 256 512 l 1,386,-1
 256 256 l 1,387,-1
 0 256 l 1,388,-1
 0 512 l 1,385,-1
256 512 m 1,393,-1
 512 512 l 1,394,-1
 512 256 l 1,395,-1
 256 256 l 1,396,-1
 256 512 l 1,393,-1
512 512 m 1,401,-1
 768 512 l 1,402,-1
 768 256 l 1,403,-1
 512 256 l 1,404,-1
 512 512 l 1,401,-1
768 512 m 1,409,-1
 1024 512 l 1,410,-1
 1024 256 l 1,411,-1
 768 256 l 1,412,-1
 768 512 l 1,409,-1
EndSplineSet
EndChar

StartChar: uniFF26
Encoding: 65318 65318 45
Width: 1280
Flags: W
LayerCount: 2
Fore
SplineSet
0 2048 m 1,1,-1
 256 2048 l 1,2,-1
 256 1792 l 1,3,-1
 0 1792 l 1,4,-1
 0 2048 l 1,1,-1
256 2048 m 1,9,-1
 512 2048 l 1,10,-1
 512 1792 l 1,11,-1
 256 1792 l 1,12,-1
 256 2048 l 1,9,-1
512 2048 m 1,17,-1
 768 2048 l 1,18,-1
 768 1792 l 1,19,-1
 512 1792 l 1,20,-1
 512 2048 l 1,17,-1
768 2048 m 1,25,-1
 1024 2048 l 1,26,-1
 1024 1792 l 1,27,-1
 768 1792 l 1,28,-1
 768 2048 l 1,25,-1
0 1792 m 1,65,-1
 256 1792 l 1,66,-1
 256 1536 l 1,67,-1
 0 1536 l 1,68,-1
 0 1792 l 1,65,-1
0 1536 m 1,129,-1
 256 1536 l 1,130,-1
 256 1280 l 1,131,-1
 0 1280 l 1,132,-1
 0 1536 l 1,129,-1
0 1280 m 1,193,-1
 256 1280 l 1,194,-1
 256 1024 l 1,195,-1
 0 1024 l 1,196,-1
 0 1280 l 1,193,-1
256 1280 m 1,201,-1
 512 1280 l 1,202,-1
 512 1024 l 1,203,-1
 256 1024 l 1,204,-1
 256 1280 l 1,201,-1
512 1280 m 1,209,-1
 768 1280 l 1,210,-1
 768 1024 l 1,211,-1
 512 1024 l 1,212,-1
 512 1280 l 1,209,-1
0 1024 m 1,257,-1
 256 1024 l 1,258,-1
 256 768 l 1,259,-1
 0 768 l 1,260,-1
 0 1024 l 1,257,-1
0 768 m 1,321,-1
 256 768 l 1,322,-1
 256 512 l 1,323,-1
 0 512 l 1,324,-1
 0 768 l 1,321,-1
0 512 m 1,385,-1
 256 512 l 1,386,-1
 256 256 l 1,387,-1
 0 256 l 1,388,-1
 0 512 l 1,385,-1
EndSplineSet
EndChar

StartChar: uniFF27
Encoding: 65319 65319 46
Width: 1280
Flags: W
LayerCount: 2
Fore
SplineSet
256 2048 m 1,9,-1
 512 2048 l 1,10,-1
 512 1792 l 1,11,-1
 256 1792 l 1,12,-1
 256 2048 l 1,9,-1
512 2048 m 1,17,-1
 768 2048 l 1,18,-1
 768 1792 l 1,19,-1
 512 1792 l 1,20,-1
 512 2048 l 1,17,-1
0 1792 m 1,65,-1
 256 1792 l 1,66,-1
 256 1536 l 1,67,-1
 0 1536 l 1,68,-1
 0 1792 l 1,65,-1
768 1792 m 1,89,-1
 1024 1792 l 1,90,-1
 1024 1536 l 1,91,-1
 768 1536 l 1,92,-1
 768 1792 l 1,89,-1
0 1536 m 1,129,-1
 256 1536 l 1,130,-1
 256 1280 l 1,131,-1
 0 1280 l 1,132,-1
 0 1536 l 1,129,-1
0 1280 m 1,193,-1
 256 1280 l 1,194,-1
 256 1024 l 1,195,-1
 0 1024 l 1,196,-1
 0 1280 l 1,193,-1
512 1280 m 1,209,-1
 768 1280 l 1,210,-1
 768 1024 l 1,211,-1
 512 1024 l 1,212,-1
 512 1280 l 1,209,-1
768 1280 m 1,217,-1
 1024 1280 l 1,218,-1
 1024 1024 l 1,219,-1
 768 1024 l 1,220,-1
 768 1280 l 1,217,-1
0 1024 m 1,257,-1
 256 1024 l 1,258,-1
 256 768 l 1,259,-1
 0 768 l 1,260,-1
 0 1024 l 1,257,-1
768 1024 m 1,281,-1
 1024 1024 l 1,282,-1
 1024 768 l 1,283,-1
 768 768 l 1,284,-1
 768 1024 l 1,281,-1
0 768 m 1,321,-1
 256 768 l 1,322,-1
 256 512 l 1,323,-1
 0 512 l 1,324,-1
 0 768 l 1,321,-1
768 768 m 1,345,-1
 1024 768 l 1,346,-1
 1024 512 l 1,347,-1
 768 512 l 1,348,-1
 768 768 l 1,345,-1
256 512 m 1,393,-1
 512 512 l 1,394,-1
 512 256 l 1,395,-1
 256 256 l 1,396,-1
 256 512 l 1,393,-1
512 512 m 1,401,-1
 768 512 l 1,402,-1
 768 256 l 1,403,-1
 512 256 l 1,404,-1
 512 512 l 1,401,-1
EndSplineSet
EndChar

StartChar: uniFF28
Encoding: 65320 65320 47
Width: 1280
Flags: W
LayerCount: 2
Fore
SplineSet
0 2048 m 1,1,-1
 256 2048 l 1,2,-1
 256 1792 l 1,3,-1
 0 1792 l 1,4,-1
 0 2048 l 1,1,-1
768 2048 m 1,25,-1
 1024 2048 l 1,26,-1
 1024 1792 l 1,27,-1
 768 1792 l 1,28,-1
 768 2048 l 1,25,-1
0 1792 m 1,65,-1
 256 1792 l 1,66,-1
 256 1536 l 1,67,-1
 0 1536 l 1,68,-1
 0 1792 l 1,65,-1
768 1792 m 1,89,-1
 1024 1792 l 1,90,-1
 1024 1536 l 1,91,-1
 768 1536 l 1,92,-1
 768 1792 l 1,89,-1
0 1536 m 1,129,-1
 256 1536 l 1,130,-1
 256 1280 l 1,131,-1
 0 1280 l 1,132,-1
 0 1536 l 1,129,-1
768 1536 m 1,153,-1
 1024 1536 l 1,154,-1
 1024 1280 l 1,155,-1
 768 1280 l 1,156,-1
 768 1536 l 1,153,-1
0 1280 m 1,193,-1
 256 1280 l 1,194,-1
 256 1024 l 1,195,-1
 0 1024 l 1,196,-1
 0 1280 l 1,193,-1
256 1280 m 1,201,-1
 512 1280 l 1,202,-1
 512 1024 l 1,203,-1
 256 1024 l 1,204,-1
 256 1280 l 1,201,-1
512 1280 m 1,209,-1
 768 1280 l 1,210,-1
 768 1024 l 1,211,-1
 512 1024 l 1,212,-1
 512 1280 l 1,209,-1
768 1280 m 1,217,-1
 1024 1280 l 1,218,-1
 1024 1024 l 1,219,-1
 768 1024 l 1,220,-1
 768 1280 l 1,217,-1
0 1024 m 1,257,-1
 256 1024 l 1,258,-1
 256 768 l 1,259,-1
 0 768 l 1,260,-1
 0 1024 l 1,257,-1
768 1024 m 1,281,-1
 1024 1024 l 1,282,-1
 1024 768 l 1,283,-1
 768 768 l 1,284,-1
 768 1024 l 1,281,-1
0 768 m 1,321,-1
 256 768 l 1,322,-1
 256 512 l 1,323,-1
 0 512 l 1,324,-1
 0 768 l 1,321,-1
768 768 m 1,345,-1
 1024 768 l 1,346,-1
 1024 512 l 1,347,-1
 768 512 l 1,348,-1
 768 768 l 1,345,-1
0 512 m 1,385,-1
 256 512 l 1,386,-1
 256 256 l 1,387,-1
 0 256 l 1,388,-1
 0 512 l 1,385,-1
768 512 m 1,409,-1
 1024 512 l 1,410,-1
 1024 256 l 1,411,-1
 768 256 l 1,412,-1
 768 512 l 1,409,-1
EndSplineSet
EndChar

StartChar: uniFF29
Encoding: 65321 65321 48
Width: 1280
Flags: W
LayerCount: 2
Fore
SplineSet
0 2048 m 1,1,-1
 256 2048 l 1,2,-1
 256 1792 l 1,3,-1
 0 1792 l 1,4,-1
 0 2048 l 1,1,-1
256 2048 m 1,9,-1
 512 2048 l 1,10,-1
 512 1792 l 1,11,-1
 256 1792 l 1,12,-1
 256 2048 l 1,9,-1
512 2048 m 1,17,-1
 768 2048 l 1,18,-1
 768 1792 l 1,19,-1
 512 1792 l 1,20,-1
 512 2048 l 1,17,-1
256 1792 m 1,73,-1
 512 1792 l 1,74,-1
 512 1536 l 1,75,-1
 256 1536 l 1,76,-1
 256 1792 l 1,73,-1
256 1536 m 1,137,-1
 512 1536 l 1,138,-1
 512 1280 l 1,139,-1
 256 1280 l 1,140,-1
 256 1536 l 1,137,-1
256 1280 m 1,201,-1
 512 1280 l 1,202,-1
 512 1024 l 1,203,-1
 256 1024 l 1,204,-1
 256 1280 l 1,201,-1
256 1024 m 1,265,-1
 512 1024 l 1,266,-1
 512 768 l 1,267,-1
 256 768 l 1,268,-1
 256 1024 l 1,265,-1
256 768 m 1,329,-1
 512 768 l 1,330,-1
 512 512 l 1,331,-1
 256 512 l 1,332,-1
 256 768 l 1,329,-1
0 512 m 1,385,-1
 256 512 l 1,386,-1
 256 256 l 1,387,-1
 0 256 l 1,388,-1
 0 512 l 1,385,-1
256 512 m 1,393,-1
 512 512 l 1,394,-1
 512 256 l 1,395,-1
 256 256 l 1,396,-1
 256 512 l 1,393,-1
512 512 m 1,401,-1
 768 512 l 1,402,-1
 768 256 l 1,403,-1
 512 256 l 1,404,-1
 512 512 l 1,401,-1
EndSplineSet
EndChar

StartChar: uniFF2A
Encoding: 65322 65322 49
Width: 1280
Flags: W
LayerCount: 2
Fore
SplineSet
768 2048 m 1,25,-1
 1024 2048 l 1,26,-1
 1024 1792 l 1,27,-1
 768 1792 l 1,28,-1
 768 2048 l 1,25,-1
768 1792 m 1,89,-1
 1024 1792 l 1,90,-1
 1024 1536 l 1,91,-1
 768 1536 l 1,92,-1
 768 1792 l 1,89,-1
768 1536 m 1,153,-1
 1024 1536 l 1,154,-1
 1024 1280 l 1,155,-1
 768 1280 l 1,156,-1
 768 1536 l 1,153,-1
768 1280 m 1,217,-1
 1024 1280 l 1,218,-1
 1024 1024 l 1,219,-1
 768 1024 l 1,220,-1
 768 1280 l 1,217,-1
768 1024 m 1,281,-1
 1024 1024 l 1,282,-1
 1024 768 l 1,283,-1
 768 768 l 1,284,-1
 768 1024 l 1,281,-1
0 768 m 1,321,-1
 256 768 l 1,322,-1
 256 512 l 1,323,-1
 0 512 l 1,324,-1
 0 768 l 1,321,-1
768 768 m 1,345,-1
 1024 768 l 1,346,-1
 1024 512 l 1,347,-1
 768 512 l 1,348,-1
 768 768 l 1,345,-1
256 512 m 1,393,-1
 512 512 l 1,394,-1
 512 256 l 1,395,-1
 256 256 l 1,396,-1
 256 512 l 1,393,-1
512 512 m 1,401,-1
 768 512 l 1,402,-1
 768 256 l 1,403,-1
 512 256 l 1,404,-1
 512 512 l 1,401,-1
EndSplineSet
EndChar

StartChar: uniFF2B
Encoding: 65323 65323 50
Width: 1280
Flags: W
LayerCount: 2
Fore
SplineSet
0 2048 m 1,1,-1
 256 2048 l 1,2,-1
 256 1792 l 1,3,-1
 0 1792 l 1,4,-1
 0 2048 l 1,1,-1
768 2048 m 1,25,-1
 1024 2048 l 1,26,-1
 1024 1792 l 1,27,-1
 768 1792 l 1,28,-1
 768 2048 l 1,25,-1
0 1792 m 1,65,-1
 256 1792 l 1,66,-1
 256 1536 l 1,67,-1
 0 1536 l 1,68,-1
 0 1792 l 1,65,-1
768 1792 m 1,89,-1
 1024 1792 l 1,90,-1
 1024 1536 l 1,91,-1
 768 1536 l 1,92,-1
 768 1792 l 1,89,-1
0 1536 m 1,129,-1
 256 1536 l 1,130,-1
 256 1280 l 1,131,-1
 0 1280 l 1,132,-1
 0 1536 l 1,129,-1
512 1536 m 1,145,-1
 768 1536 l 1,146,-1
 768 1280 l 1,147,-1
 512 1280 l 1,148,-1
 512 1536 l 1,145,-1
0 1280 m 1,193,-1
 256 1280 l 1,194,-1
 256 1024 l 1,195,-1
 0 1024 l 1,196,-1
 0 1280 l 1,193,-1
256 1280 m 1,201,-1
 512 1280 l 1,202,-1
 512 1024 l 1,203,-1
 256 1024 l 1,204,-1
 256 1280 l 1,201,-1
0 1024 m 1,257,-1
 256 1024 l 1,258,-1
 256 768 l 1,259,-1
 0 768 l 1,260,-1
 0 1024 l 1,257,-1
512 1024 m 1,273,-1
 768 1024 l 1,274,-1
 768 768 l 1,275,-1
 512 768 l 1,276,-1
 512 1024 l 1,273,-1
0 768 m 1,321,-1
 256 768 l 1,322,-1
 256 512 l 1,323,-1
 0 512 l 1,324,-1
 0 768 l 1,321,-1
768 768 m 1,345,-1
 1024 768 l 1,346,-1
 1024 512 l 1,347,-1
 768 512 l 1,348,-1
 768 768 l 1,345,-1
0 512 m 1,385,-1
 256 512 l 1,386,-1
 256 256 l 1,387,-1
 0 256 l 1,388,-1
 0 512 l 1,385,-1
768 512 m 1,409,-1
 1024 512 l 1,410,-1
 1024 256 l 1,411,-1
 768 256 l 1,412,-1
 768 512 l 1,409,-1
EndSplineSet
EndChar

StartChar: uniFF2C
Encoding: 65324 65324 51
Width: 1280
Flags: W
LayerCount: 2
Fore
SplineSet
0 2048 m 1,1,-1
 256 2048 l 1,2,-1
 256 1792 l 1,3,-1
 0 1792 l 1,4,-1
 0 2048 l 1,1,-1
0 1792 m 1,65,-1
 256 1792 l 1,66,-1
 256 1536 l 1,67,-1
 0 1536 l 1,68,-1
 0 1792 l 1,65,-1
0 1536 m 1,129,-1
 256 1536 l 1,130,-1
 256 1280 l 1,131,-1
 0 1280 l 1,132,-1
 0 1536 l 1,129,-1
0 1280 m 1,193,-1
 256 1280 l 1,194,-1
 256 1024 l 1,195,-1
 0 1024 l 1,196,-1
 0 1280 l 1,193,-1
0 1024 m 1,257,-1
 256 1024 l 1,258,-1
 256 768 l 1,259,-1
 0 768 l 1,260,-1
 0 1024 l 1,257,-1
0 768 m 1,321,-1
 256 768 l 1,322,-1
 256 512 l 1,323,-1
 0 512 l 1,324,-1
 0 768 l 1,321,-1
0 512 m 1,385,-1
 256 512 l 1,386,-1
 256 256 l 1,387,-1
 0 256 l 1,388,-1
 0 512 l 1,385,-1
256 512 m 1,393,-1
 512 512 l 1,394,-1
 512 256 l 1,395,-1
 256 256 l 1,396,-1
 256 512 l 1,393,-1
512 512 m 1,401,-1
 768 512 l 1,402,-1
 768 256 l 1,403,-1
 512 256 l 1,404,-1
 512 512 l 1,401,-1
768 512 m 1,409,-1
 1024 512 l 1,410,-1
 1024 256 l 1,411,-1
 768 256 l 1,412,-1
 768 512 l 1,409,-1
EndSplineSet
EndChar

StartChar: uniFF2D
Encoding: 65325 65325 52
Width: 1280
Flags: W
LayerCount: 2
Fore
SplineSet
0 2048 m 1,1,-1
 256 2048 l 1,2,-1
 256 1792 l 1,3,-1
 0 1792 l 1,4,-1
 0 2048 l 1,1,-1
768 2048 m 1,25,-1
 1024 2048 l 1,26,-1
 1024 1792 l 1,27,-1
 768 1792 l 1,28,-1
 768 2048 l 1,25,-1
256 1920 m 1,41,-1
 384 1920 l 1,42,-1
 384 1792 l 1,43,-1
 256 1792 l 1,44,-1
 256 1920 l 1,41,-1
640 1920 m 1,53,-1
 768 1920 l 1,54,-1
 768 1792 l 1,55,-1
 640 1792 l 1,56,-1
 640 1920 l 1,53,-1
0 1792 m 1,65,-1
 256 1792 l 1,66,-1
 256 1536 l 1,67,-1
 0 1536 l 1,68,-1
 0 1792 l 1,65,-1
256 1792 m 1,73,-1
 512 1792 l 1,74,-1
 512 1536 l 1,75,-1
 256 1536 l 1,76,-1
 256 1792 l 1,73,-1
512 1792 m 1,81,-1
 768 1792 l 1,82,-1
 768 1536 l 1,83,-1
 512 1536 l 1,84,-1
 512 1792 l 1,81,-1
768 1792 m 1,89,-1
 1024 1792 l 1,90,-1
 1024 1536 l 1,91,-1
 768 1536 l 1,92,-1
 768 1792 l 1,89,-1
0 1536 m 1,129,-1
 256 1536 l 1,130,-1
 256 1280 l 1,131,-1
 0 1280 l 1,132,-1
 0 1536 l 1,129,-1
384 1536 m 1,141,-1
 512 1536 l 1,142,-1
 512 1408 l 1,143,-1
 384 1408 l 1,144,-1
 384 1536 l 1,141,-1
512 1536 m 1,145,-1
 640 1536 l 1,146,-1
 640 1408 l 1,147,-1
 512 1408 l 1,148,-1
 512 1536 l 1,145,-1
768 1536 m 1,153,-1
 1024 1536 l 1,154,-1
 1024 1280 l 1,155,-1
 768 1280 l 1,156,-1
 768 1536 l 1,153,-1
0 1280 m 1,193,-1
 256 1280 l 1,194,-1
 256 1024 l 1,195,-1
 0 1024 l 1,196,-1
 0 1280 l 1,193,-1
768 1280 m 1,217,-1
 1024 1280 l 1,218,-1
 1024 1024 l 1,219,-1
 768 1024 l 1,220,-1
 768 1280 l 1,217,-1
0 1024 m 1,257,-1
 256 1024 l 1,258,-1
 256 768 l 1,259,-1
 0 768 l 1,260,-1
 0 1024 l 1,257,-1
768 1024 m 1,281,-1
 1024 1024 l 1,282,-1
 1024 768 l 1,283,-1
 768 768 l 1,284,-1
 768 1024 l 1,281,-1
0 768 m 1,321,-1
 256 768 l 1,322,-1
 256 512 l 1,323,-1
 0 512 l 1,324,-1
 0 768 l 1,321,-1
768 768 m 1,345,-1
 1024 768 l 1,346,-1
 1024 512 l 1,347,-1
 768 512 l 1,348,-1
 768 768 l 1,345,-1
0 512 m 1,385,-1
 256 512 l 1,386,-1
 256 256 l 1,387,-1
 0 256 l 1,388,-1
 0 512 l 1,385,-1
768 512 m 1,409,-1
 1024 512 l 1,410,-1
 1024 256 l 1,411,-1
 768 256 l 1,412,-1
 768 512 l 1,409,-1
EndSplineSet
EndChar

StartChar: uniFF2E
Encoding: 65326 65326 53
Width: 1280
Flags: W
LayerCount: 2
Fore
SplineSet
0 2048 m 1,1,-1
 256 2048 l 1,2,-1
 256 1792 l 1,3,-1
 0 1792 l 1,4,-1
 0 2048 l 1,1,-1
768 2048 m 1,25,-1
 1024 2048 l 1,26,-1
 1024 1792 l 1,27,-1
 768 1792 l 1,28,-1
 768 2048 l 1,25,-1
256 1920 m 1,41,-1
 384 1920 l 1,42,-1
 384 1792 l 1,43,-1
 256 1792 l 1,44,-1
 256 1920 l 1,41,-1
0 1792 m 1,65,-1
 256 1792 l 1,66,-1
 256 1536 l 1,67,-1
 0 1536 l 1,68,-1
 0 1792 l 1,65,-1
256 1792 m 1,73,-1
 384 1792 l 1,74,-1
 384 1664 l 1,75,-1
 256 1664 l 1,76,-1
 256 1792 l 1,73,-1
768 1792 m 1,89,-1
 1024 1792 l 1,90,-1
 1024 1536 l 1,91,-1
 768 1536 l 1,92,-1
 768 1792 l 1,89,-1
256 1664 m 1,105,-1
 384 1664 l 1,106,-1
 384 1536 l 1,107,-1
 256 1536 l 1,108,-1
 256 1664 l 1,105,-1
0 1536 m 1,129,-1
 256 1536 l 1,130,-1
 256 1280 l 1,131,-1
 0 1280 l 1,132,-1
 0 1536 l 1,129,-1
256 1536 m 1,137,-1
 512 1536 l 1,138,-1
 512 1280 l 1,139,-1
 256 1280 l 1,140,-1
 256 1536 l 1,137,-1
768 1536 m 1,153,-1
 1024 1536 l 1,154,-1
 1024 1280 l 1,155,-1
 768 1280 l 1,156,-1
 768 1536 l 1,153,-1
0 1280 m 1,193,-1
 256 1280 l 1,194,-1
 256 1024 l 1,195,-1
 0 1024 l 1,196,-1
 0 1280 l 1,193,-1
384 1280 m 1,205,-1
 512 1280 l 1,206,-1
 512 1152 l 1,207,-1
 384 1152 l 1,208,-1
 384 1280 l 1,205,-1
512 1280 m 1,209,-1
 640 1280 l 1,210,-1
 640 1152 l 1,211,-1
 512 1152 l 1,212,-1
 512 1280 l 1,209,-1
768 1280 m 1,217,-1
 1024 1280 l 1,218,-1
 1024 1024 l 1,219,-1
 768 1024 l 1,220,-1
 768 1280 l 1,217,-1
384 1152 m 1,237,-1
 512 1152 l 1,238,-1
 512 1024 l 1,239,-1
 384 1024 l 1,240,-1
 384 1152 l 1,237,-1
512 1152 m 1,241,-1
 640 1152 l 1,242,-1
 640 1024 l 1,243,-1
 512 1024 l 1,244,-1
 512 1152 l 1,241,-1
0 1024 m 1,257,-1
 256 1024 l 1,258,-1
 256 768 l 1,259,-1
 0 768 l 1,260,-1
 0 1024 l 1,257,-1
384 1024 m 1,269,-1
 512 1024 l 1,270,-1
 512 896 l 1,271,-1
 384 896 l 1,272,-1
 384 1024 l 1,269,-1
512 1024 m 1,273,-1
 640 1024 l 1,274,-1
 640 896 l 1,275,-1
 512 896 l 1,276,-1
 512 1024 l 1,273,-1
768 1024 m 1,281,-1
 1024 1024 l 1,282,-1
 1024 768 l 1,283,-1
 768 768 l 1,284,-1
 768 1024 l 1,281,-1
384 896 m 1,301,-1
 512 896 l 1,302,-1
 512 768 l 1,303,-1
 384 768 l 1,304,-1
 384 896 l 1,301,-1
512 896 m 1,305,-1
 640 896 l 1,306,-1
 640 768 l 1,307,-1
 512 768 l 1,308,-1
 512 896 l 1,305,-1
0 768 m 1,321,-1
 256 768 l 1,322,-1
 256 512 l 1,323,-1
 0 512 l 1,324,-1
 0 768 l 1,321,-1
512 768 m 1,337,-1
 768 768 l 1,338,-1
 768 512 l 1,339,-1
 512 512 l 1,340,-1
 512 768 l 1,337,-1
768 768 m 1,345,-1
 1024 768 l 1,346,-1
 1024 512 l 1,347,-1
 768 512 l 1,348,-1
 768 768 l 1,345,-1
0 512 m 1,385,-1
 256 512 l 1,386,-1
 256 256 l 1,387,-1
 0 256 l 1,388,-1
 0 512 l 1,385,-1
640 512 m 1,405,-1
 768 512 l 1,406,-1
 768 384 l 1,407,-1
 640 384 l 1,408,-1
 640 512 l 1,405,-1
768 512 m 1,409,-1
 1024 512 l 1,410,-1
 1024 256 l 1,411,-1
 768 256 l 1,412,-1
 768 512 l 1,409,-1
EndSplineSet
EndChar

StartChar: uniFF2F
Encoding: 65327 65327 54
Width: 1280
Flags: W
LayerCount: 2
Fore
SplineSet
256 2048 m 1,9,-1
 512 2048 l 1,10,-1
 512 1792 l 1,11,-1
 256 1792 l 1,12,-1
 256 2048 l 1,9,-1
512 2048 m 1,17,-1
 768 2048 l 1,18,-1
 768 1792 l 1,19,-1
 512 1792 l 1,20,-1
 512 2048 l 1,17,-1
0 1792 m 1,65,-1
 256 1792 l 1,66,-1
 256 1536 l 1,67,-1
 0 1536 l 1,68,-1
 0 1792 l 1,65,-1
768 1792 m 1,89,-1
 1024 1792 l 1,90,-1
 1024 1536 l 1,91,-1
 768 1536 l 1,92,-1
 768 1792 l 1,89,-1
0 1536 m 1,129,-1
 256 1536 l 1,130,-1
 256 1280 l 1,131,-1
 0 1280 l 1,132,-1
 0 1536 l 1,129,-1
768 1536 m 1,153,-1
 1024 1536 l 1,154,-1
 1024 1280 l 1,155,-1
 768 1280 l 1,156,-1
 768 1536 l 1,153,-1
0 1280 m 1,193,-1
 256 1280 l 1,194,-1
 256 1024 l 1,195,-1
 0 1024 l 1,196,-1
 0 1280 l 1,193,-1
768 1280 m 1,217,-1
 1024 1280 l 1,218,-1
 1024 1024 l 1,219,-1
 768 1024 l 1,220,-1
 768 1280 l 1,217,-1
0 1024 m 1,257,-1
 256 1024 l 1,258,-1
 256 768 l 1,259,-1
 0 768 l 1,260,-1
 0 1024 l 1,257,-1
768 1024 m 1,281,-1
 1024 1024 l 1,282,-1
 1024 768 l 1,283,-1
 768 768 l 1,284,-1
 768 1024 l 1,281,-1
0 768 m 1,321,-1
 256 768 l 1,322,-1
 256 512 l 1,323,-1
 0 512 l 1,324,-1
 0 768 l 1,321,-1
768 768 m 1,345,-1
 1024 768 l 1,346,-1
 1024 512 l 1,347,-1
 768 512 l 1,348,-1
 768 768 l 1,345,-1
256 512 m 1,393,-1
 512 512 l 1,394,-1
 512 256 l 1,395,-1
 256 256 l 1,396,-1
 256 512 l 1,393,-1
512 512 m 1,401,-1
 768 512 l 1,402,-1
 768 256 l 1,403,-1
 512 256 l 1,404,-1
 512 512 l 1,401,-1
EndSplineSet
EndChar

StartChar: uniFF30
Encoding: 65328 65328 55
Width: 1280
Flags: W
LayerCount: 2
Fore
SplineSet
0 2048 m 1,1,-1
 256 2048 l 1,2,-1
 256 1792 l 1,3,-1
 0 1792 l 1,4,-1
 0 2048 l 1,1,-1
256 2048 m 1,9,-1
 512 2048 l 1,10,-1
 512 1792 l 1,11,-1
 256 1792 l 1,12,-1
 256 2048 l 1,9,-1
512 2048 m 1,17,-1
 768 2048 l 1,18,-1
 768 1792 l 1,19,-1
 512 1792 l 1,20,-1
 512 2048 l 1,17,-1
0 1792 m 1,65,-1
 256 1792 l 1,66,-1
 256 1536 l 1,67,-1
 0 1536 l 1,68,-1
 0 1792 l 1,65,-1
768 1792 m 1,89,-1
 1024 1792 l 1,90,-1
 1024 1536 l 1,91,-1
 768 1536 l 1,92,-1
 768 1792 l 1,89,-1
0 1536 m 1,129,-1
 256 1536 l 1,130,-1
 256 1280 l 1,131,-1
 0 1280 l 1,132,-1
 0 1536 l 1,129,-1
768 1536 m 1,153,-1
 1024 1536 l 1,154,-1
 1024 1280 l 1,155,-1
 768 1280 l 1,156,-1
 768 1536 l 1,153,-1
0 1280 m 1,193,-1
 256 1280 l 1,194,-1
 256 1024 l 1,195,-1
 0 1024 l 1,196,-1
 0 1280 l 1,193,-1
256 1280 m 1,201,-1
 512 1280 l 1,202,-1
 512 1024 l 1,203,-1
 256 1024 l 1,204,-1
 256 1280 l 1,201,-1
512 1280 m 1,209,-1
 768 1280 l 1,210,-1
 768 1024 l 1,211,-1
 512 1024 l 1,212,-1
 512 1280 l 1,209,-1
0 1024 m 1,257,-1
 256 1024 l 1,258,-1
 256 768 l 1,259,-1
 0 768 l 1,260,-1
 0 1024 l 1,257,-1
0 768 m 1,321,-1
 256 768 l 1,322,-1
 256 512 l 1,323,-1
 0 512 l 1,324,-1
 0 768 l 1,321,-1
0 512 m 1,385,-1
 256 512 l 1,386,-1
 256 256 l 1,387,-1
 0 256 l 1,388,-1
 0 512 l 1,385,-1
EndSplineSet
EndChar

StartChar: uniFF31
Encoding: 65329 65329 56
Width: 1280
Flags: W
LayerCount: 2
Fore
SplineSet
256 2048 m 1,9,-1
 512 2048 l 1,10,-1
 512 1792 l 1,11,-1
 256 1792 l 1,12,-1
 256 2048 l 1,9,-1
512 2048 m 1,17,-1
 768 2048 l 1,18,-1
 768 1792 l 1,19,-1
 512 1792 l 1,20,-1
 512 2048 l 1,17,-1
0 1792 m 1,65,-1
 256 1792 l 1,66,-1
 256 1536 l 1,67,-1
 0 1536 l 1,68,-1
 0 1792 l 1,65,-1
768 1792 m 1,89,-1
 1024 1792 l 1,90,-1
 1024 1536 l 1,91,-1
 768 1536 l 1,92,-1
 768 1792 l 1,89,-1
0 1536 m 1,129,-1
 256 1536 l 1,130,-1
 256 1280 l 1,131,-1
 0 1280 l 1,132,-1
 0 1536 l 1,129,-1
768 1536 m 1,153,-1
 1024 1536 l 1,154,-1
 1024 1280 l 1,155,-1
 768 1280 l 1,156,-1
 768 1536 l 1,153,-1
0 1280 m 1,193,-1
 256 1280 l 1,194,-1
 256 1024 l 1,195,-1
 0 1024 l 1,196,-1
 0 1280 l 1,193,-1
768 1280 m 1,217,-1
 1024 1280 l 1,218,-1
 1024 1024 l 1,219,-1
 768 1024 l 1,220,-1
 768 1280 l 1,217,-1
0 1024 m 1,257,-1
 256 1024 l 1,258,-1
 256 768 l 1,259,-1
 0 768 l 1,260,-1
 0 1024 l 1,257,-1
768 1024 m 1,281,-1
 1024 1024 l 1,282,-1
 1024 768 l 1,283,-1
 768 768 l 1,284,-1
 768 1024 l 1,281,-1
0 768 m 1,321,-1
 256 768 l 1,322,-1
 256 512 l 1,323,-1
 0 512 l 1,324,-1
 0 768 l 1,321,-1
512 768 m 1,337,-1
 768 768 l 1,338,-1
 768 512 l 1,339,-1
 512 512 l 1,340,-1
 512 768 l 1,337,-1
256 512 m 1,393,-1
 512 512 l 1,394,-1
 512 256 l 1,395,-1
 256 256 l 1,396,-1
 256 512 l 1,393,-1
768 512 m 1,409,-1
 1024 512 l 1,410,-1
 1024 256 l 1,411,-1
 768 256 l 1,412,-1
 768 512 l 1,409,-1
EndSplineSet
EndChar

StartChar: uniFF32
Encoding: 65330 65330 57
Width: 1280
Flags: W
LayerCount: 2
Fore
SplineSet
0 2048 m 1,1,-1
 256 2048 l 1,2,-1
 256 1792 l 1,3,-1
 0 1792 l 1,4,-1
 0 2048 l 1,1,-1
256 2048 m 1,9,-1
 512 2048 l 1,10,-1
 512 1792 l 1,11,-1
 256 1792 l 1,12,-1
 256 2048 l 1,9,-1
512 2048 m 1,17,-1
 768 2048 l 1,18,-1
 768 1792 l 1,19,-1
 512 1792 l 1,20,-1
 512 2048 l 1,17,-1
0 1792 m 1,65,-1
 256 1792 l 1,66,-1
 256 1536 l 1,67,-1
 0 1536 l 1,68,-1
 0 1792 l 1,65,-1
768 1792 m 1,89,-1
 1024 1792 l 1,90,-1
 1024 1536 l 1,91,-1
 768 1536 l 1,92,-1
 768 1792 l 1,89,-1
0 1536 m 1,129,-1
 256 1536 l 1,130,-1
 256 1280 l 1,131,-1
 0 1280 l 1,132,-1
 0 1536 l 1,129,-1
768 1536 m 1,153,-1
 1024 1536 l 1,154,-1
 1024 1280 l 1,155,-1
 768 1280 l 1,156,-1
 768 1536 l 1,153,-1
0 1280 m 1,193,-1
 256 1280 l 1,194,-1
 256 1024 l 1,195,-1
 0 1024 l 1,196,-1
 0 1280 l 1,193,-1
256 1280 m 1,201,-1
 512 1280 l 1,202,-1
 512 1024 l 1,203,-1
 256 1024 l 1,204,-1
 256 1280 l 1,201,-1
512 1280 m 1,209,-1
 768 1280 l 1,210,-1
 768 1024 l 1,211,-1
 512 1024 l 1,212,-1
 512 1280 l 1,209,-1
0 1024 m 1,257,-1
 256 1024 l 1,258,-1
 256 768 l 1,259,-1
 0 768 l 1,260,-1
 0 1024 l 1,257,-1
256 1024 m 1,265,-1
 512 1024 l 1,266,-1
 512 768 l 1,267,-1
 256 768 l 1,268,-1
 256 1024 l 1,265,-1
0 768 m 1,321,-1
 256 768 l 1,322,-1
 256 512 l 1,323,-1
 0 512 l 1,324,-1
 0 768 l 1,321,-1
512 768 m 1,337,-1
 768 768 l 1,338,-1
 768 512 l 1,339,-1
 512 512 l 1,340,-1
 512 768 l 1,337,-1
0 512 m 1,385,-1
 256 512 l 1,386,-1
 256 256 l 1,387,-1
 0 256 l 1,388,-1
 0 512 l 1,385,-1
768 512 m 1,409,-1
 1024 512 l 1,410,-1
 1024 256 l 1,411,-1
 768 256 l 1,412,-1
 768 512 l 1,409,-1
EndSplineSet
EndChar

StartChar: uniFF33
Encoding: 65331 65331 58
Width: 1280
Flags: W
LayerCount: 2
Fore
SplineSet
256 2048 m 1,9,-1
 512 2048 l 1,10,-1
 512 1792 l 1,11,-1
 256 1792 l 1,12,-1
 256 2048 l 1,9,-1
512 2048 m 1,17,-1
 768 2048 l 1,18,-1
 768 1792 l 1,19,-1
 512 1792 l 1,20,-1
 512 2048 l 1,17,-1
0 1792 m 1,65,-1
 256 1792 l 1,66,-1
 256 1536 l 1,67,-1
 0 1536 l 1,68,-1
 0 1792 l 1,65,-1
768 1792 m 1,89,-1
 1024 1792 l 1,90,-1
 1024 1536 l 1,91,-1
 768 1536 l 1,92,-1
 768 1792 l 1,89,-1
0 1536 m 1,129,-1
 256 1536 l 1,130,-1
 256 1280 l 1,131,-1
 0 1280 l 1,132,-1
 0 1536 l 1,129,-1
256 1280 m 1,201,-1
 512 1280 l 1,202,-1
 512 1024 l 1,203,-1
 256 1024 l 1,204,-1
 256 1280 l 1,201,-1
512 1280 m 1,209,-1
 768 1280 l 1,210,-1
 768 1024 l 1,211,-1
 512 1024 l 1,212,-1
 512 1280 l 1,209,-1
768 1024 m 1,281,-1
 1024 1024 l 1,282,-1
 1024 768 l 1,283,-1
 768 768 l 1,284,-1
 768 1024 l 1,281,-1
0 768 m 1,321,-1
 256 768 l 1,322,-1
 256 512 l 1,323,-1
 0 512 l 1,324,-1
 0 768 l 1,321,-1
768 768 m 1,345,-1
 1024 768 l 1,346,-1
 1024 512 l 1,347,-1
 768 512 l 1,348,-1
 768 768 l 1,345,-1
256 512 m 1,393,-1
 512 512 l 1,394,-1
 512 256 l 1,395,-1
 256 256 l 1,396,-1
 256 512 l 1,393,-1
512 512 m 1,401,-1
 768 512 l 1,402,-1
 768 256 l 1,403,-1
 512 256 l 1,404,-1
 512 512 l 1,401,-1
EndSplineSet
EndChar

StartChar: uniFF34
Encoding: 65332 65332 59
Width: 1280
Flags: W
LayerCount: 2
Fore
SplineSet
0 2048 m 1,1,-1
 256 2048 l 1,2,-1
 256 1792 l 1,3,-1
 0 1792 l 1,4,-1
 0 2048 l 1,1,-1
256 2048 m 1,9,-1
 512 2048 l 1,10,-1
 512 1792 l 1,11,-1
 256 1792 l 1,12,-1
 256 2048 l 1,9,-1
512 2048 m 1,17,-1
 768 2048 l 1,18,-1
 768 1792 l 1,19,-1
 512 1792 l 1,20,-1
 512 2048 l 1,17,-1
256 1792 m 1,73,-1
 512 1792 l 1,74,-1
 512 1536 l 1,75,-1
 256 1536 l 1,76,-1
 256 1792 l 1,73,-1
256 1536 m 1,137,-1
 512 1536 l 1,138,-1
 512 1280 l 1,139,-1
 256 1280 l 1,140,-1
 256 1536 l 1,137,-1
256 1280 m 1,201,-1
 512 1280 l 1,202,-1
 512 1024 l 1,203,-1
 256 1024 l 1,204,-1
 256 1280 l 1,201,-1
256 1024 m 1,265,-1
 512 1024 l 1,266,-1
 512 768 l 1,267,-1
 256 768 l 1,268,-1
 256 1024 l 1,265,-1
256 768 m 1,329,-1
 512 768 l 1,330,-1
 512 512 l 1,331,-1
 256 512 l 1,332,-1
 256 768 l 1,329,-1
256 512 m 1,393,-1
 512 512 l 1,394,-1
 512 256 l 1,395,-1
 256 256 l 1,396,-1
 256 512 l 1,393,-1
EndSplineSet
EndChar

StartChar: uniFF35
Encoding: 65333 65333 60
Width: 1280
Flags: W
LayerCount: 2
Fore
SplineSet
0 2048 m 1,1,-1
 256 2048 l 1,2,-1
 256 1792 l 1,3,-1
 0 1792 l 1,4,-1
 0 2048 l 1,1,-1
768 2048 m 1,25,-1
 1024 2048 l 1,26,-1
 1024 1792 l 1,27,-1
 768 1792 l 1,28,-1
 768 2048 l 1,25,-1
0 1792 m 1,65,-1
 256 1792 l 1,66,-1
 256 1536 l 1,67,-1
 0 1536 l 1,68,-1
 0 1792 l 1,65,-1
768 1792 m 1,89,-1
 1024 1792 l 1,90,-1
 1024 1536 l 1,91,-1
 768 1536 l 1,92,-1
 768 1792 l 1,89,-1
0 1536 m 1,129,-1
 256 1536 l 1,130,-1
 256 1280 l 1,131,-1
 0 1280 l 1,132,-1
 0 1536 l 1,129,-1
768 1536 m 1,153,-1
 1024 1536 l 1,154,-1
 1024 1280 l 1,155,-1
 768 1280 l 1,156,-1
 768 1536 l 1,153,-1
0 1280 m 1,193,-1
 256 1280 l 1,194,-1
 256 1024 l 1,195,-1
 0 1024 l 1,196,-1
 0 1280 l 1,193,-1
768 1280 m 1,217,-1
 1024 1280 l 1,218,-1
 1024 1024 l 1,219,-1
 768 1024 l 1,220,-1
 768 1280 l 1,217,-1
0 1024 m 1,257,-1
 256 1024 l 1,258,-1
 256 768 l 1,259,-1
 0 768 l 1,260,-1
 0 1024 l 1,257,-1
768 1024 m 1,281,-1
 1024 1024 l 1,282,-1
 1024 768 l 1,283,-1
 768 768 l 1,284,-1
 768 1024 l 1,281,-1
0 768 m 1,321,-1
 256 768 l 1,322,-1
 256 512 l 1,323,-1
 0 512 l 1,324,-1
 0 768 l 1,321,-1
768 768 m 1,345,-1
 1024 768 l 1,346,-1
 1024 512 l 1,347,-1
 768 512 l 1,348,-1
 768 768 l 1,345,-1
256 512 m 1,393,-1
 512 512 l 1,394,-1
 512 256 l 1,395,-1
 256 256 l 1,396,-1
 256 512 l 1,393,-1
512 512 m 1,401,-1
 768 512 l 1,402,-1
 768 256 l 1,403,-1
 512 256 l 1,404,-1
 512 512 l 1,401,-1
EndSplineSet
EndChar

StartChar: uniFF36
Encoding: 65334 65334 61
Width: 1280
Flags: W
LayerCount: 2
Fore
SplineSet
0 2048 m 1,1,-1
 256 2048 l 1,2,-1
 256 1792 l 1,3,-1
 0 1792 l 1,4,-1
 0 2048 l 1,1,-1
768 2048 m 1,25,-1
 1024 2048 l 1,26,-1
 1024 1792 l 1,27,-1
 768 1792 l 1,28,-1
 768 2048 l 1,25,-1
0 1792 m 1,65,-1
 256 1792 l 1,66,-1
 256 1536 l 1,67,-1
 0 1536 l 1,68,-1
 0 1792 l 1,65,-1
768 1792 m 1,89,-1
 1024 1792 l 1,90,-1
 1024 1536 l 1,91,-1
 768 1536 l 1,92,-1
 768 1792 l 1,89,-1
0 1536 m 1,129,-1
 256 1536 l 1,130,-1
 256 1280 l 1,131,-1
 0 1280 l 1,132,-1
 0 1536 l 1,129,-1
768 1536 m 1,153,-1
 1024 1536 l 1,154,-1
 1024 1280 l 1,155,-1
 768 1280 l 1,156,-1
 768 1536 l 1,153,-1
0 1280 m 1,193,-1
 256 1280 l 1,194,-1
 256 1024 l 1,195,-1
 0 1024 l 1,196,-1
 0 1280 l 1,193,-1
512 1280 m 1,209,-1
 768 1280 l 1,210,-1
 768 1024 l 1,211,-1
 512 1024 l 1,212,-1
 512 1280 l 1,209,-1
0 1024 m 1,257,-1
 256 1024 l 1,258,-1
 256 768 l 1,259,-1
 0 768 l 1,260,-1
 0 1024 l 1,257,-1
512 1024 m 1,273,-1
 768 1024 l 1,274,-1
 768 768 l 1,275,-1
 512 768 l 1,276,-1
 512 1024 l 1,273,-1
0 768 m 1,321,-1
 256 768 l 1,322,-1
 256 512 l 1,323,-1
 0 512 l 1,324,-1
 0 768 l 1,321,-1
512 768 m 1,337,-1
 768 768 l 1,338,-1
 768 512 l 1,339,-1
 512 512 l 1,340,-1
 512 768 l 1,337,-1
256 512 m 1,393,-1
 512 512 l 1,394,-1
 512 256 l 1,395,-1
 256 256 l 1,396,-1
 256 512 l 1,393,-1
EndSplineSet
EndChar

StartChar: uniFF37
Encoding: 65335 65335 62
Width: 1280
Flags: W
LayerCount: 2
Fore
SplineSet
0 2048 m 1,1,-1
 256 2048 l 1,2,-1
 256 1792 l 1,3,-1
 0 1792 l 1,4,-1
 0 2048 l 1,1,-1
768 2048 m 1,25,-1
 1024 2048 l 1,26,-1
 1024 1792 l 1,27,-1
 768 1792 l 1,28,-1
 768 2048 l 1,25,-1
0 1792 m 1,65,-1
 256 1792 l 1,66,-1
 256 1536 l 1,67,-1
 0 1536 l 1,68,-1
 0 1792 l 1,65,-1
768 1792 m 1,89,-1
 1024 1792 l 1,90,-1
 1024 1536 l 1,91,-1
 768 1536 l 1,92,-1
 768 1792 l 1,89,-1
0 1536 m 1,129,-1
 256 1536 l 1,130,-1
 256 1280 l 1,131,-1
 0 1280 l 1,132,-1
 0 1536 l 1,129,-1
768 1536 m 1,153,-1
 1024 1536 l 1,154,-1
 1024 1280 l 1,155,-1
 768 1280 l 1,156,-1
 768 1536 l 1,153,-1
0 1280 m 1,193,-1
 256 1280 l 1,194,-1
 256 1024 l 1,195,-1
 0 1024 l 1,196,-1
 0 1280 l 1,193,-1
768 1280 m 1,217,-1
 1024 1280 l 1,218,-1
 1024 1024 l 1,219,-1
 768 1024 l 1,220,-1
 768 1280 l 1,217,-1
0 1024 m 1,257,-1
 256 1024 l 1,258,-1
 256 768 l 1,259,-1
 0 768 l 1,260,-1
 0 1024 l 1,257,-1
768 1024 m 1,281,-1
 1024 1024 l 1,282,-1
 1024 768 l 1,283,-1
 768 768 l 1,284,-1
 768 1024 l 1,281,-1
384 896 m 1,301,-1
 512 896 l 1,302,-1
 512 768 l 1,303,-1
 384 768 l 1,304,-1
 384 896 l 1,301,-1
512 896 m 1,305,-1
 640 896 l 1,306,-1
 640 768 l 1,307,-1
 512 768 l 1,308,-1
 512 896 l 1,305,-1
0 768 m 1,321,-1
 256 768 l 1,322,-1
 256 512 l 1,323,-1
 0 512 l 1,324,-1
 0 768 l 1,321,-1
256 768 m 1,329,-1
 512 768 l 1,330,-1
 512 512 l 1,331,-1
 256 512 l 1,332,-1
 256 768 l 1,329,-1
512 768 m 1,337,-1
 768 768 l 1,338,-1
 768 512 l 1,339,-1
 512 512 l 1,340,-1
 512 768 l 1,337,-1
768 768 m 1,345,-1
 1024 768 l 1,346,-1
 1024 512 l 1,347,-1
 768 512 l 1,348,-1
 768 768 l 1,345,-1
0 512 m 1,385,-1
 256 512 l 1,386,-1
 256 256 l 1,387,-1
 0 256 l 1,388,-1
 0 512 l 1,385,-1
256 512 m 1,393,-1
 384 512 l 1,394,-1
 384 384 l 1,395,-1
 256 384 l 1,396,-1
 256 512 l 1,393,-1
640 512 m 1,405,-1
 768 512 l 1,406,-1
 768 384 l 1,407,-1
 640 384 l 1,408,-1
 640 512 l 1,405,-1
768 512 m 1,409,-1
 1024 512 l 1,410,-1
 1024 256 l 1,411,-1
 768 256 l 1,412,-1
 768 512 l 1,409,-1
EndSplineSet
EndChar

StartChar: uniFF38
Encoding: 65336 65336 63
Width: 1280
Flags: W
LayerCount: 2
Fore
SplineSet
0 2048 m 1,1,-1
 256 2048 l 1,2,-1
 256 1792 l 1,3,-1
 0 1792 l 1,4,-1
 0 2048 l 1,1,-1
768 2048 m 1,25,-1
 1024 2048 l 1,26,-1
 1024 1792 l 1,27,-1
 768 1792 l 1,28,-1
 768 2048 l 1,25,-1
0 1792 m 1,65,-1
 256 1792 l 1,66,-1
 256 1536 l 1,67,-1
 0 1536 l 1,68,-1
 0 1792 l 1,65,-1
768 1792 m 1,89,-1
 1024 1792 l 1,90,-1
 1024 1536 l 1,91,-1
 768 1536 l 1,92,-1
 768 1792 l 1,89,-1
0 1536 m 1,129,-1
 256 1536 l 1,130,-1
 256 1280 l 1,131,-1
 0 1280 l 1,132,-1
 0 1536 l 1,129,-1
512 1536 m 1,145,-1
 768 1536 l 1,146,-1
 768 1280 l 1,147,-1
 512 1280 l 1,148,-1
 512 1536 l 1,145,-1
256 1280 m 1,201,-1
 512 1280 l 1,202,-1
 512 1024 l 1,203,-1
 256 1024 l 1,204,-1
 256 1280 l 1,201,-1
512 1280 m 1,209,-1
 768 1280 l 1,210,-1
 768 1024 l 1,211,-1
 512 1024 l 1,212,-1
 512 1280 l 1,209,-1
256 1024 m 1,265,-1
 512 1024 l 1,266,-1
 512 768 l 1,267,-1
 256 768 l 1,268,-1
 256 1024 l 1,265,-1
768 1024 m 1,281,-1
 1024 1024 l 1,282,-1
 1024 768 l 1,283,-1
 768 768 l 1,284,-1
 768 1024 l 1,281,-1
0 768 m 1,321,-1
 256 768 l 1,322,-1
 256 512 l 1,323,-1
 0 512 l 1,324,-1
 0 768 l 1,321,-1
768 768 m 1,345,-1
 1024 768 l 1,346,-1
 1024 512 l 1,347,-1
 768 512 l 1,348,-1
 768 768 l 1,345,-1
0 512 m 1,385,-1
 256 512 l 1,386,-1
 256 256 l 1,387,-1
 0 256 l 1,388,-1
 0 512 l 1,385,-1
768 512 m 1,409,-1
 1024 512 l 1,410,-1
 1024 256 l 1,411,-1
 768 256 l 1,412,-1
 768 512 l 1,409,-1
EndSplineSet
EndChar

StartChar: uniFF39
Encoding: 65337 65337 64
Width: 1280
Flags: W
LayerCount: 2
Fore
SplineSet
0 2048 m 1,1,-1
 256 2048 l 1,2,-1
 256 1792 l 1,3,-1
 0 1792 l 1,4,-1
 0 2048 l 1,1,-1
768 2048 m 1,25,-1
 1024 2048 l 1,26,-1
 1024 1792 l 1,27,-1
 768 1792 l 1,28,-1
 768 2048 l 1,25,-1
0 1792 m 1,65,-1
 256 1792 l 1,66,-1
 256 1536 l 1,67,-1
 0 1536 l 1,68,-1
 0 1792 l 1,65,-1
768 1792 m 1,89,-1
 1024 1792 l 1,90,-1
 1024 1536 l 1,91,-1
 768 1536 l 1,92,-1
 768 1792 l 1,89,-1
0 1536 m 1,129,-1
 256 1536 l 1,130,-1
 256 1280 l 1,131,-1
 0 1280 l 1,132,-1
 0 1536 l 1,129,-1
768 1536 m 1,153,-1
 1024 1536 l 1,154,-1
 1024 1280 l 1,155,-1
 768 1280 l 1,156,-1
 768 1536 l 1,153,-1
256 1280 m 1,201,-1
 512 1280 l 1,202,-1
 512 1024 l 1,203,-1
 256 1024 l 1,204,-1
 256 1280 l 1,201,-1
512 1280 m 1,209,-1
 768 1280 l 1,210,-1
 768 1024 l 1,211,-1
 512 1024 l 1,212,-1
 512 1280 l 1,209,-1
512 1024 m 1,273,-1
 768 1024 l 1,274,-1
 768 768 l 1,275,-1
 512 768 l 1,276,-1
 512 1024 l 1,273,-1
512 768 m 1,337,-1
 768 768 l 1,338,-1
 768 512 l 1,339,-1
 512 512 l 1,340,-1
 512 768 l 1,337,-1
512 512 m 1,401,-1
 768 512 l 1,402,-1
 768 256 l 1,403,-1
 512 256 l 1,404,-1
 512 512 l 1,401,-1
EndSplineSet
EndChar

StartChar: uniFF3A
Encoding: 65338 65338 65
Width: 1280
Flags: W
LayerCount: 2
Fore
SplineSet
0 2048 m 1,1,-1
 256 2048 l 1,2,-1
 256 1792 l 1,3,-1
 0 1792 l 1,4,-1
 0 2048 l 1,1,-1
256 2048 m 1,9,-1
 512 2048 l 1,10,-1
 512 1792 l 1,11,-1
 256 1792 l 1,12,-1
 256 2048 l 1,9,-1
512 2048 m 1,17,-1
 768 2048 l 1,18,-1
 768 1792 l 1,19,-1
 512 1792 l 1,20,-1
 512 2048 l 1,17,-1
768 2048 m 1,25,-1
 1024 2048 l 1,26,-1
 1024 1792 l 1,27,-1
 768 1792 l 1,28,-1
 768 2048 l 1,25,-1
640 1792 m 1,85,-1
 768 1792 l 1,86,-1
 768 1664 l 1,87,-1
 640 1664 l 1,88,-1
 640 1792 l 1,85,-1
768 1792 m 1,89,-1
 896 1792 l 1,90,-1
 896 1664 l 1,91,-1
 768 1664 l 1,92,-1
 768 1792 l 1,89,-1
640 1664 m 1,117,-1
 768 1664 l 1,118,-1
 768 1536 l 1,119,-1
 640 1536 l 1,120,-1
 640 1664 l 1,117,-1
768 1664 m 1,121,-1
 896 1664 l 1,122,-1
 896 1536 l 1,123,-1
 768 1536 l 1,124,-1
 768 1664 l 1,121,-1
512 1536 m 1,145,-1
 768 1536 l 1,146,-1
 768 1280 l 1,147,-1
 512 1280 l 1,148,-1
 512 1536 l 1,145,-1
384 1280 m 1,205,-1
 512 1280 l 1,206,-1
 512 1152 l 1,207,-1
 384 1152 l 1,208,-1
 384 1280 l 1,205,-1
512 1280 m 1,209,-1
 640 1280 l 1,210,-1
 640 1152 l 1,211,-1
 512 1152 l 1,212,-1
 512 1280 l 1,209,-1
384 1152 m 1,237,-1
 512 1152 l 1,238,-1
 512 1024 l 1,239,-1
 384 1024 l 1,240,-1
 384 1152 l 1,237,-1
512 1152 m 1,241,-1
 640 1152 l 1,242,-1
 640 1024 l 1,243,-1
 512 1024 l 1,244,-1
 512 1152 l 1,241,-1
256 1024 m 1,265,-1
 512 1024 l 1,266,-1
 512 768 l 1,267,-1
 256 768 l 1,268,-1
 256 1024 l 1,265,-1
128 768 m 1,325,-1
 256 768 l 1,326,-1
 256 640 l 1,327,-1
 128 640 l 1,328,-1
 128 768 l 1,325,-1
256 768 m 1,329,-1
 384 768 l 1,330,-1
 384 640 l 1,331,-1
 256 640 l 1,332,-1
 256 768 l 1,329,-1
128 640 m 1,357,-1
 256 640 l 1,358,-1
 256 512 l 1,359,-1
 128 512 l 1,360,-1
 128 640 l 1,357,-1
256 640 m 1,361,-1
 384 640 l 1,362,-1
 384 512 l 1,363,-1
 256 512 l 1,364,-1
 256 640 l 1,361,-1
0 512 m 1,385,-1
 256 512 l 1,386,-1
 256 256 l 1,387,-1
 0 256 l 1,388,-1
 0 512 l 1,385,-1
256 512 m 1,393,-1
 512 512 l 1,394,-1
 512 256 l 1,395,-1
 256 256 l 1,396,-1
 256 512 l 1,393,-1
512 512 m 1,401,-1
 768 512 l 1,402,-1
 768 256 l 1,403,-1
 512 256 l 1,404,-1
 512 512 l 1,401,-1
768 512 m 1,409,-1
 1024 512 l 1,410,-1
 1024 256 l 1,411,-1
 768 256 l 1,412,-1
 768 512 l 1,409,-1
EndSplineSet
EndChar

StartChar: uniFF3B
Encoding: 65339 65339 66
Width: 1280
Flags: W
LayerCount: 2
Fore
SplineSet
256 2048 m 1,9,-1
 512 2048 l 1,10,-1
 512 1792 l 1,11,-1
 256 1792 l 1,12,-1
 256 2048 l 1,9,-1
512 2048 m 1,17,-1
 768 2048 l 1,18,-1
 768 1792 l 1,19,-1
 512 1792 l 1,20,-1
 512 2048 l 1,17,-1
768 2048 m 1,25,-1
 1024 2048 l 1,26,-1
 1024 1792 l 1,27,-1
 768 1792 l 1,28,-1
 768 2048 l 1,25,-1
256 1792 m 1,73,-1
 512 1792 l 1,74,-1
 512 1536 l 1,75,-1
 256 1536 l 1,76,-1
 256 1792 l 1,73,-1
256 1536 m 1,137,-1
 512 1536 l 1,138,-1
 512 1280 l 1,139,-1
 256 1280 l 1,140,-1
 256 1536 l 1,137,-1
256 1280 m 1,201,-1
 512 1280 l 1,202,-1
 512 1024 l 1,203,-1
 256 1024 l 1,204,-1
 256 1280 l 1,201,-1
256 1024 m 1,265,-1
 512 1024 l 1,266,-1
 512 768 l 1,267,-1
 256 768 l 1,268,-1
 256 1024 l 1,265,-1
256 768 m 1,329,-1
 512 768 l 1,330,-1
 512 512 l 1,331,-1
 256 512 l 1,332,-1
 256 768 l 1,329,-1
256 512 m 1,393,-1
 512 512 l 1,394,-1
 512 256 l 1,395,-1
 256 256 l 1,396,-1
 256 512 l 1,393,-1
512 512 m 1,401,-1
 768 512 l 1,402,-1
 768 256 l 1,403,-1
 512 256 l 1,404,-1
 512 512 l 1,401,-1
768 512 m 1,409,-1
 1024 512 l 1,410,-1
 1024 256 l 1,411,-1
 768 256 l 1,412,-1
 768 512 l 1,409,-1
EndSplineSet
EndChar

StartChar: uniFF3C
Encoding: 65340 65340 67
Width: 1280
Flags: W
LayerCount: 2
Fore
SplineSet
0 2048 m 1,1,-1
 256 2048 l 1,2,-1
 256 1792 l 1,3,-1
 0 1792 l 1,4,-1
 0 2048 l 1,1,-1
128 1792 m 1,69,-1
 256 1792 l 1,70,-1
 256 1664 l 1,71,-1
 128 1664 l 1,72,-1
 128 1792 l 1,69,-1
256 1792 m 1,73,-1
 384 1792 l 1,74,-1
 384 1664 l 1,75,-1
 256 1664 l 1,76,-1
 256 1792 l 1,73,-1
128 1664 m 1,101,-1
 256 1664 l 1,102,-1
 256 1536 l 1,103,-1
 128 1536 l 1,104,-1
 128 1664 l 1,101,-1
256 1664 m 1,105,-1
 384 1664 l 1,106,-1
 384 1536 l 1,107,-1
 256 1536 l 1,108,-1
 256 1664 l 1,105,-1
256 1536 m 1,137,-1
 512 1536 l 1,138,-1
 512 1280 l 1,139,-1
 256 1280 l 1,140,-1
 256 1536 l 1,137,-1
384 1280 m 1,205,-1
 512 1280 l 1,206,-1
 512 1152 l 1,207,-1
 384 1152 l 1,208,-1
 384 1280 l 1,205,-1
512 1280 m 1,209,-1
 640 1280 l 1,210,-1
 640 1152 l 1,211,-1
 512 1152 l 1,212,-1
 512 1280 l 1,209,-1
384 1152 m 1,237,-1
 512 1152 l 1,238,-1
 512 1024 l 1,239,-1
 384 1024 l 1,240,-1
 384 1152 l 1,237,-1
512 1152 m 1,241,-1
 640 1152 l 1,242,-1
 640 1024 l 1,243,-1
 512 1024 l 1,244,-1
 512 1152 l 1,241,-1
512 1024 m 1,273,-1
 768 1024 l 1,274,-1
 768 768 l 1,275,-1
 512 768 l 1,276,-1
 512 1024 l 1,273,-1
640 768 m 1,341,-1
 768 768 l 1,342,-1
 768 640 l 1,343,-1
 640 640 l 1,344,-1
 640 768 l 1,341,-1
768 768 m 1,345,-1
 896 768 l 1,346,-1
 896 640 l 1,347,-1
 768 640 l 1,348,-1
 768 768 l 1,345,-1
640 640 m 1,373,-1
 768 640 l 1,374,-1
 768 512 l 1,375,-1
 640 512 l 1,376,-1
 640 640 l 1,373,-1
768 640 m 1,377,-1
 896 640 l 1,378,-1
 896 512 l 1,379,-1
 768 512 l 1,380,-1
 768 640 l 1,377,-1
768 512 m 1,409,-1
 1024 512 l 1,410,-1
 1024 256 l 1,411,-1
 768 256 l 1,412,-1
 768 512 l 1,409,-1
EndSplineSet
EndChar

StartChar: uniFF3D
Encoding: 65341 65341 68
Width: 1280
Flags: W
LayerCount: 2
Fore
SplineSet
0 2048 m 1,1,-1
 256 2048 l 1,2,-1
 256 1792 l 1,3,-1
 0 1792 l 1,4,-1
 0 2048 l 1,1,-1
256 2048 m 1,9,-1
 512 2048 l 1,10,-1
 512 1792 l 1,11,-1
 256 1792 l 1,12,-1
 256 2048 l 1,9,-1
512 2048 m 1,17,-1
 768 2048 l 1,18,-1
 768 1792 l 1,19,-1
 512 1792 l 1,20,-1
 512 2048 l 1,17,-1
512 1792 m 1,81,-1
 768 1792 l 1,82,-1
 768 1536 l 1,83,-1
 512 1536 l 1,84,-1
 512 1792 l 1,81,-1
512 1536 m 1,145,-1
 768 1536 l 1,146,-1
 768 1280 l 1,147,-1
 512 1280 l 1,148,-1
 512 1536 l 1,145,-1
512 1280 m 1,209,-1
 768 1280 l 1,210,-1
 768 1024 l 1,211,-1
 512 1024 l 1,212,-1
 512 1280 l 1,209,-1
512 1024 m 1,273,-1
 768 1024 l 1,274,-1
 768 768 l 1,275,-1
 512 768 l 1,276,-1
 512 1024 l 1,273,-1
512 768 m 1,337,-1
 768 768 l 1,338,-1
 768 512 l 1,339,-1
 512 512 l 1,340,-1
 512 768 l 1,337,-1
0 512 m 1,385,-1
 256 512 l 1,386,-1
 256 256 l 1,387,-1
 0 256 l 1,388,-1
 0 512 l 1,385,-1
256 512 m 1,393,-1
 512 512 l 1,394,-1
 512 256 l 1,395,-1
 256 256 l 1,396,-1
 256 512 l 1,393,-1
512 512 m 1,401,-1
 768 512 l 1,402,-1
 768 256 l 1,403,-1
 512 256 l 1,404,-1
 512 512 l 1,401,-1
EndSplineSet
EndChar

StartChar: uniFF3E
Encoding: 65342 65342 69
Width: 1280
Flags: W
LayerCount: 2
Fore
SplineSet
256 2048 m 1,9,-1
 512 2048 l 1,10,-1
 512 1792 l 1,11,-1
 256 1792 l 1,12,-1
 256 2048 l 1,9,-1
0 1792 m 1,65,-1
 256 1792 l 1,66,-1
 256 1536 l 1,67,-1
 0 1536 l 1,68,-1
 0 1792 l 1,65,-1
512 1792 m 1,81,-1
 768 1792 l 1,82,-1
 768 1536 l 1,83,-1
 512 1536 l 1,84,-1
 512 1792 l 1,81,-1
EndSplineSet
EndChar

StartChar: uniFF3F
Encoding: 65343 65343 70
Width: 1280
Flags: W
LayerCount: 2
Fore
SplineSet
0 512 m 1,385,-1
 256 512 l 1,386,-1
 256 256 l 1,387,-1
 0 256 l 1,388,-1
 0 512 l 1,385,-1
256 512 m 1,393,-1
 512 512 l 1,394,-1
 512 256 l 1,395,-1
 256 256 l 1,396,-1
 256 512 l 1,393,-1
512 512 m 1,401,-1
 768 512 l 1,402,-1
 768 256 l 1,403,-1
 512 256 l 1,404,-1
 512 512 l 1,401,-1
768 512 m 1,409,-1
 1024 512 l 1,410,-1
 1024 256 l 1,411,-1
 768 256 l 1,412,-1
 768 512 l 1,409,-1
EndSplineSet
EndChar

StartChar: uniFF40
Encoding: 65344 65344 71
Width: 1280
Flags: W
LayerCount: 2
Fore
SplineSet
0 2048 m 1,1,-1
 256 2048 l 1,2,-1
 256 1792 l 1,3,-1
 0 1792 l 1,4,-1
 0 2048 l 1,1,-1
256 2048 m 1,9,-1
 512 2048 l 1,10,-1
 512 1792 l 1,11,-1
 256 1792 l 1,12,-1
 256 2048 l 1,9,-1
256 1792 m 1,73,-1
 512 1792 l 1,74,-1
 512 1536 l 1,75,-1
 256 1536 l 1,76,-1
 256 1792 l 1,73,-1
512 1792 m 1,81,-1
 768 1792 l 1,82,-1
 768 1536 l 1,83,-1
 512 1536 l 1,84,-1
 512 1792 l 1,81,-1
512 1536 m 1,145,-1
 768 1536 l 1,146,-1
 768 1280 l 1,147,-1
 512 1280 l 1,148,-1
 512 1536 l 1,145,-1
EndSplineSet
EndChar

StartChar: uniFF41
Encoding: 65345 65345 72
Width: 1280
Flags: W
LayerCount: 2
Fore
SplineSet
0 1536 m 1,129,-1
 256 1536 l 1,130,-1
 256 1280 l 1,131,-1
 0 1280 l 1,132,-1
 0 1536 l 1,129,-1
256 1536 m 1,137,-1
 512 1536 l 1,138,-1
 512 1280 l 1,139,-1
 256 1280 l 1,140,-1
 256 1536 l 1,137,-1
512 1536 m 1,145,-1
 768 1536 l 1,146,-1
 768 1280 l 1,147,-1
 512 1280 l 1,148,-1
 512 1536 l 1,145,-1
768 1280 m 1,217,-1
 1024 1280 l 1,218,-1
 1024 1024 l 1,219,-1
 768 1024 l 1,220,-1
 768 1280 l 1,217,-1
256 1024 m 1,265,-1
 512 1024 l 1,266,-1
 512 768 l 1,267,-1
 256 768 l 1,268,-1
 256 1024 l 1,265,-1
512 1024 m 1,273,-1
 768 1024 l 1,274,-1
 768 768 l 1,275,-1
 512 768 l 1,276,-1
 512 1024 l 1,273,-1
768 1024 m 1,281,-1
 1024 1024 l 1,282,-1
 1024 768 l 1,283,-1
 768 768 l 1,284,-1
 768 1024 l 1,281,-1
0 768 m 1,321,-1
 256 768 l 1,322,-1
 256 512 l 1,323,-1
 0 512 l 1,324,-1
 0 768 l 1,321,-1
768 768 m 1,345,-1
 1024 768 l 1,346,-1
 1024 512 l 1,347,-1
 768 512 l 1,348,-1
 768 768 l 1,345,-1
256 512 m 1,393,-1
 512 512 l 1,394,-1
 512 256 l 1,395,-1
 256 256 l 1,396,-1
 256 512 l 1,393,-1
512 512 m 1,401,-1
 768 512 l 1,402,-1
 768 256 l 1,403,-1
 512 256 l 1,404,-1
 512 512 l 1,401,-1
768 512 m 1,409,-1
 1024 512 l 1,410,-1
 1024 256 l 1,411,-1
 768 256 l 1,412,-1
 768 512 l 1,409,-1
EndSplineSet
EndChar

StartChar: uniFF42
Encoding: 65346 65346 73
Width: 1280
Flags: W
LayerCount: 2
Fore
SplineSet
0 2048 m 1,1,-1
 256 2048 l 1,2,-1
 256 1792 l 1,3,-1
 0 1792 l 1,4,-1
 0 2048 l 1,1,-1
0 1792 m 1,65,-1
 256 1792 l 1,66,-1
 256 1536 l 1,67,-1
 0 1536 l 1,68,-1
 0 1792 l 1,65,-1
0 1536 m 1,129,-1
 256 1536 l 1,130,-1
 256 1280 l 1,131,-1
 0 1280 l 1,132,-1
 0 1536 l 1,129,-1
256 1536 m 1,137,-1
 512 1536 l 1,138,-1
 512 1280 l 1,139,-1
 256 1280 l 1,140,-1
 256 1536 l 1,137,-1
512 1536 m 1,145,-1
 768 1536 l 1,146,-1
 768 1280 l 1,147,-1
 512 1280 l 1,148,-1
 512 1536 l 1,145,-1
0 1280 m 1,193,-1
 256 1280 l 1,194,-1
 256 1024 l 1,195,-1
 0 1024 l 1,196,-1
 0 1280 l 1,193,-1
768 1280 m 1,217,-1
 1024 1280 l 1,218,-1
 1024 1024 l 1,219,-1
 768 1024 l 1,220,-1
 768 1280 l 1,217,-1
0 1024 m 1,257,-1
 256 1024 l 1,258,-1
 256 768 l 1,259,-1
 0 768 l 1,260,-1
 0 1024 l 1,257,-1
768 1024 m 1,281,-1
 1024 1024 l 1,282,-1
 1024 768 l 1,283,-1
 768 768 l 1,284,-1
 768 1024 l 1,281,-1
0 768 m 1,321,-1
 256 768 l 1,322,-1
 256 512 l 1,323,-1
 0 512 l 1,324,-1
 0 768 l 1,321,-1
768 768 m 1,345,-1
 1024 768 l 1,346,-1
 1024 512 l 1,347,-1
 768 512 l 1,348,-1
 768 768 l 1,345,-1
0 512 m 1,385,-1
 256 512 l 1,386,-1
 256 256 l 1,387,-1
 0 256 l 1,388,-1
 0 512 l 1,385,-1
256 512 m 1,393,-1
 512 512 l 1,394,-1
 512 256 l 1,395,-1
 256 256 l 1,396,-1
 256 512 l 1,393,-1
512 512 m 1,401,-1
 768 512 l 1,402,-1
 768 256 l 1,403,-1
 512 256 l 1,404,-1
 512 512 l 1,401,-1
EndSplineSet
EndChar

StartChar: uniFF43
Encoding: 65347 65347 74
Width: 1280
Flags: W
LayerCount: 2
Fore
SplineSet
256 1536 m 1,137,-1
 512 1536 l 1,138,-1
 512 1280 l 1,139,-1
 256 1280 l 1,140,-1
 256 1536 l 1,137,-1
512 1536 m 1,145,-1
 768 1536 l 1,146,-1
 768 1280 l 1,147,-1
 512 1280 l 1,148,-1
 512 1536 l 1,145,-1
0 1280 m 1,193,-1
 256 1280 l 1,194,-1
 256 1024 l 1,195,-1
 0 1024 l 1,196,-1
 0 1280 l 1,193,-1
768 1280 m 1,217,-1
 1024 1280 l 1,218,-1
 1024 1024 l 1,219,-1
 768 1024 l 1,220,-1
 768 1280 l 1,217,-1
0 1024 m 1,257,-1
 256 1024 l 1,258,-1
 256 768 l 1,259,-1
 0 768 l 1,260,-1
 0 1024 l 1,257,-1
0 768 m 1,321,-1
 256 768 l 1,322,-1
 256 512 l 1,323,-1
 0 512 l 1,324,-1
 0 768 l 1,321,-1
768 768 m 1,345,-1
 1024 768 l 1,346,-1
 1024 512 l 1,347,-1
 768 512 l 1,348,-1
 768 768 l 1,345,-1
256 512 m 1,393,-1
 512 512 l 1,394,-1
 512 256 l 1,395,-1
 256 256 l 1,396,-1
 256 512 l 1,393,-1
512 512 m 1,401,-1
 768 512 l 1,402,-1
 768 256 l 1,403,-1
 512 256 l 1,404,-1
 512 512 l 1,401,-1
EndSplineSet
EndChar

StartChar: uniFF44
Encoding: 65348 65348 75
Width: 1280
Flags: W
LayerCount: 2
Fore
SplineSet
768 2048 m 1,25,-1
 1024 2048 l 1,26,-1
 1024 1792 l 1,27,-1
 768 1792 l 1,28,-1
 768 2048 l 1,25,-1
768 1792 m 1,89,-1
 1024 1792 l 1,90,-1
 1024 1536 l 1,91,-1
 768 1536 l 1,92,-1
 768 1792 l 1,89,-1
256 1536 m 1,137,-1
 512 1536 l 1,138,-1
 512 1280 l 1,139,-1
 256 1280 l 1,140,-1
 256 1536 l 1,137,-1
512 1536 m 1,145,-1
 768 1536 l 1,146,-1
 768 1280 l 1,147,-1
 512 1280 l 1,148,-1
 512 1536 l 1,145,-1
768 1536 m 1,153,-1
 1024 1536 l 1,154,-1
 1024 1280 l 1,155,-1
 768 1280 l 1,156,-1
 768 1536 l 1,153,-1
0 1280 m 1,193,-1
 256 1280 l 1,194,-1
 256 1024 l 1,195,-1
 0 1024 l 1,196,-1
 0 1280 l 1,193,-1
768 1280 m 1,217,-1
 1024 1280 l 1,218,-1
 1024 1024 l 1,219,-1
 768 1024 l 1,220,-1
 768 1280 l 1,217,-1
0 1024 m 1,257,-1
 256 1024 l 1,258,-1
 256 768 l 1,259,-1
 0 768 l 1,260,-1
 0 1024 l 1,257,-1
768 1024 m 1,281,-1
 1024 1024 l 1,282,-1
 1024 768 l 1,283,-1
 768 768 l 1,284,-1
 768 1024 l 1,281,-1
0 768 m 1,321,-1
 256 768 l 1,322,-1
 256 512 l 1,323,-1
 0 512 l 1,324,-1
 0 768 l 1,321,-1
768 768 m 1,345,-1
 1024 768 l 1,346,-1
 1024 512 l 1,347,-1
 768 512 l 1,348,-1
 768 768 l 1,345,-1
256 512 m 1,393,-1
 512 512 l 1,394,-1
 512 256 l 1,395,-1
 256 256 l 1,396,-1
 256 512 l 1,393,-1
512 512 m 1,401,-1
 768 512 l 1,402,-1
 768 256 l 1,403,-1
 512 256 l 1,404,-1
 512 512 l 1,401,-1
768 512 m 1,409,-1
 1024 512 l 1,410,-1
 1024 256 l 1,411,-1
 768 256 l 1,412,-1
 768 512 l 1,409,-1
EndSplineSet
EndChar

StartChar: uniFF45
Encoding: 65349 65349 76
Width: 1280
Flags: W
LayerCount: 2
Fore
SplineSet
256 1536 m 1,137,-1
 512 1536 l 1,138,-1
 512 1280 l 1,139,-1
 256 1280 l 1,140,-1
 256 1536 l 1,137,-1
512 1536 m 1,145,-1
 768 1536 l 1,146,-1
 768 1280 l 1,147,-1
 512 1280 l 1,148,-1
 512 1536 l 1,145,-1
0 1280 m 1,193,-1
 256 1280 l 1,194,-1
 256 1024 l 1,195,-1
 0 1024 l 1,196,-1
 0 1280 l 1,193,-1
768 1280 m 1,217,-1
 1024 1280 l 1,218,-1
 1024 1024 l 1,219,-1
 768 1024 l 1,220,-1
 768 1280 l 1,217,-1
0 1024 m 1,257,-1
 256 1024 l 1,258,-1
 256 768 l 1,259,-1
 0 768 l 1,260,-1
 0 1024 l 1,257,-1
256 1024 m 1,265,-1
 512 1024 l 1,266,-1
 512 768 l 1,267,-1
 256 768 l 1,268,-1
 256 1024 l 1,265,-1
512 1024 m 1,273,-1
 768 1024 l 1,274,-1
 768 768 l 1,275,-1
 512 768 l 1,276,-1
 512 1024 l 1,273,-1
768 1024 m 1,281,-1
 1024 1024 l 1,282,-1
 1024 768 l 1,283,-1
 768 768 l 1,284,-1
 768 1024 l 1,281,-1
0 768 m 1,321,-1
 256 768 l 1,322,-1
 256 512 l 1,323,-1
 0 512 l 1,324,-1
 0 768 l 1,321,-1
256 512 m 1,393,-1
 512 512 l 1,394,-1
 512 256 l 1,395,-1
 256 256 l 1,396,-1
 256 512 l 1,393,-1
512 512 m 1,401,-1
 768 512 l 1,402,-1
 768 256 l 1,403,-1
 512 256 l 1,404,-1
 512 512 l 1,401,-1
768 512 m 1,409,-1
 1024 512 l 1,410,-1
 1024 256 l 1,411,-1
 768 256 l 1,412,-1
 768 512 l 1,409,-1
EndSplineSet
EndChar

StartChar: uniFF46
Encoding: 65350 65350 77
Width: 1280
Flags: W
LayerCount: 2
Fore
SplineSet
512 2048 m 1,17,-1
 768 2048 l 1,18,-1
 768 1792 l 1,19,-1
 512 1792 l 1,20,-1
 512 2048 l 1,17,-1
768 2048 m 1,25,-1
 1024 2048 l 1,26,-1
 1024 1792 l 1,27,-1
 768 1792 l 1,28,-1
 768 2048 l 1,25,-1
256 1792 m 1,73,-1
 512 1792 l 1,74,-1
 512 1536 l 1,75,-1
 256 1536 l 1,76,-1
 256 1792 l 1,73,-1
0 1536 m 1,129,-1
 256 1536 l 1,130,-1
 256 1280 l 1,131,-1
 0 1280 l 1,132,-1
 0 1536 l 1,129,-1
256 1536 m 1,137,-1
 512 1536 l 1,138,-1
 512 1280 l 1,139,-1
 256 1280 l 1,140,-1
 256 1536 l 1,137,-1
512 1536 m 1,145,-1
 768 1536 l 1,146,-1
 768 1280 l 1,147,-1
 512 1280 l 1,148,-1
 512 1536 l 1,145,-1
256 1280 m 1,201,-1
 512 1280 l 1,202,-1
 512 1024 l 1,203,-1
 256 1024 l 1,204,-1
 256 1280 l 1,201,-1
256 1024 m 1,265,-1
 512 1024 l 1,266,-1
 512 768 l 1,267,-1
 256 768 l 1,268,-1
 256 1024 l 1,265,-1
256 768 m 1,329,-1
 512 768 l 1,330,-1
 512 512 l 1,331,-1
 256 512 l 1,332,-1
 256 768 l 1,329,-1
256 512 m 1,393,-1
 512 512 l 1,394,-1
 512 256 l 1,395,-1
 256 256 l 1,396,-1
 256 512 l 1,393,-1
EndSplineSet
EndChar

StartChar: uniFF47
Encoding: 65351 65351 78
Width: 1280
Flags: W
LayerCount: 2
Fore
SplineSet
256 1536 m 1,137,-1
 512 1536 l 1,138,-1
 512 1280 l 1,139,-1
 256 1280 l 1,140,-1
 256 1536 l 1,137,-1
768 1536 m 1,153,-1
 1024 1536 l 1,154,-1
 1024 1280 l 1,155,-1
 768 1280 l 1,156,-1
 768 1536 l 1,153,-1
0 1280 m 1,193,-1
 256 1280 l 1,194,-1
 256 1024 l 1,195,-1
 0 1024 l 1,196,-1
 0 1280 l 1,193,-1
512 1280 m 1,209,-1
 768 1280 l 1,210,-1
 768 1024 l 1,211,-1
 512 1024 l 1,212,-1
 512 1280 l 1,209,-1
768 1280 m 1,217,-1
 1024 1280 l 1,218,-1
 1024 1024 l 1,219,-1
 768 1024 l 1,220,-1
 768 1280 l 1,217,-1
0 1024 m 1,257,-1
 256 1024 l 1,258,-1
 256 768 l 1,259,-1
 0 768 l 1,260,-1
 0 1024 l 1,257,-1
768 1024 m 1,281,-1
 1024 1024 l 1,282,-1
 1024 768 l 1,283,-1
 768 768 l 1,284,-1
 768 1024 l 1,281,-1
256 768 m 1,329,-1
 512 768 l 1,330,-1
 512 512 l 1,331,-1
 256 512 l 1,332,-1
 256 768 l 1,329,-1
512 768 m 1,337,-1
 768 768 l 1,338,-1
 768 512 l 1,339,-1
 512 512 l 1,340,-1
 512 768 l 1,337,-1
768 768 m 1,345,-1
 1024 768 l 1,346,-1
 1024 512 l 1,347,-1
 768 512 l 1,348,-1
 768 768 l 1,345,-1
0 512 m 1,385,-1
 256 512 l 1,386,-1
 256 256 l 1,387,-1
 0 256 l 1,388,-1
 0 512 l 1,385,-1
768 512 m 1,409,-1
 1024 512 l 1,410,-1
 1024 256 l 1,411,-1
 768 256 l 1,412,-1
 768 512 l 1,409,-1
256 256 m 1,457,-1
 512 256 l 1,458,-1
 512 0 l 1,459,-1
 256 0 l 1,460,-1
 256 256 l 1,457,-1
512 256 m 1,465,-1
 768 256 l 1,466,-1
 768 0 l 1,467,-1
 512 0 l 1,468,-1
 512 256 l 1,465,-1
EndSplineSet
EndChar

StartChar: uniFF48
Encoding: 65352 65352 79
Width: 1280
Flags: W
LayerCount: 2
Fore
SplineSet
0 2048 m 1,1,-1
 256 2048 l 1,2,-1
 256 1792 l 1,3,-1
 0 1792 l 1,4,-1
 0 2048 l 1,1,-1
0 1792 m 1,65,-1
 256 1792 l 1,66,-1
 256 1536 l 1,67,-1
 0 1536 l 1,68,-1
 0 1792 l 1,65,-1
0 1536 m 1,129,-1
 256 1536 l 1,130,-1
 256 1280 l 1,131,-1
 0 1280 l 1,132,-1
 0 1536 l 1,129,-1
256 1536 m 1,137,-1
 512 1536 l 1,138,-1
 512 1280 l 1,139,-1
 256 1280 l 1,140,-1
 256 1536 l 1,137,-1
512 1536 m 1,145,-1
 768 1536 l 1,146,-1
 768 1280 l 1,147,-1
 512 1280 l 1,148,-1
 512 1536 l 1,145,-1
0 1280 m 1,193,-1
 256 1280 l 1,194,-1
 256 1024 l 1,195,-1
 0 1024 l 1,196,-1
 0 1280 l 1,193,-1
768 1280 m 1,217,-1
 1024 1280 l 1,218,-1
 1024 1024 l 1,219,-1
 768 1024 l 1,220,-1
 768 1280 l 1,217,-1
0 1024 m 1,257,-1
 256 1024 l 1,258,-1
 256 768 l 1,259,-1
 0 768 l 1,260,-1
 0 1024 l 1,257,-1
768 1024 m 1,281,-1
 1024 1024 l 1,282,-1
 1024 768 l 1,283,-1
 768 768 l 1,284,-1
 768 1024 l 1,281,-1
0 768 m 1,321,-1
 256 768 l 1,322,-1
 256 512 l 1,323,-1
 0 512 l 1,324,-1
 0 768 l 1,321,-1
768 768 m 1,345,-1
 1024 768 l 1,346,-1
 1024 512 l 1,347,-1
 768 512 l 1,348,-1
 768 768 l 1,345,-1
0 512 m 1,385,-1
 256 512 l 1,386,-1
 256 256 l 1,387,-1
 0 256 l 1,388,-1
 0 512 l 1,385,-1
768 512 m 1,409,-1
 1024 512 l 1,410,-1
 1024 256 l 1,411,-1
 768 256 l 1,412,-1
 768 512 l 1,409,-1
EndSplineSet
EndChar

StartChar: uniFF49
Encoding: 65353 65353 80
Width: 1280
Flags: W
LayerCount: 2
Fore
SplineSet
512 2048 m 1,17,-1
 768 2048 l 1,18,-1
 768 1792 l 1,19,-1
 512 1792 l 1,20,-1
 512 2048 l 1,17,-1
256 1536 m 1,137,-1
 512 1536 l 1,138,-1
 512 1280 l 1,139,-1
 256 1280 l 1,140,-1
 256 1536 l 1,137,-1
512 1536 m 1,145,-1
 768 1536 l 1,146,-1
 768 1280 l 1,147,-1
 512 1280 l 1,148,-1
 512 1536 l 1,145,-1
512 1280 m 1,209,-1
 768 1280 l 1,210,-1
 768 1024 l 1,211,-1
 512 1024 l 1,212,-1
 512 1280 l 1,209,-1
512 1024 m 1,273,-1
 768 1024 l 1,274,-1
 768 768 l 1,275,-1
 512 768 l 1,276,-1
 512 1024 l 1,273,-1
512 768 m 1,337,-1
 768 768 l 1,338,-1
 768 512 l 1,339,-1
 512 512 l 1,340,-1
 512 768 l 1,337,-1
256 512 m 1,393,-1
 512 512 l 1,394,-1
 512 256 l 1,395,-1
 256 256 l 1,396,-1
 256 512 l 1,393,-1
512 512 m 1,401,-1
 768 512 l 1,402,-1
 768 256 l 1,403,-1
 512 256 l 1,404,-1
 512 512 l 1,401,-1
768 512 m 1,409,-1
 1024 512 l 1,410,-1
 1024 256 l 1,411,-1
 768 256 l 1,412,-1
 768 512 l 1,409,-1
EndSplineSet
EndChar

StartChar: uniFF4A
Encoding: 65354 65354 81
Width: 1280
Flags: W
LayerCount: 2
Fore
SplineSet
768 2048 m 1,25,-1
 1024 2048 l 1,26,-1
 1024 1792 l 1,27,-1
 768 1792 l 1,28,-1
 768 2048 l 1,25,-1
512 1536 m 1,145,-1
 768 1536 l 1,146,-1
 768 1280 l 1,147,-1
 512 1280 l 1,148,-1
 512 1536 l 1,145,-1
768 1536 m 1,153,-1
 1024 1536 l 1,154,-1
 1024 1280 l 1,155,-1
 768 1280 l 1,156,-1
 768 1536 l 1,153,-1
768 1280 m 1,217,-1
 1024 1280 l 1,218,-1
 1024 1024 l 1,219,-1
 768 1024 l 1,220,-1
 768 1280 l 1,217,-1
768 1024 m 1,281,-1
 1024 1024 l 1,282,-1
 1024 768 l 1,283,-1
 768 768 l 1,284,-1
 768 1024 l 1,281,-1
0 768 m 1,321,-1
 256 768 l 1,322,-1
 256 512 l 1,323,-1
 0 512 l 1,324,-1
 0 768 l 1,321,-1
768 768 m 1,345,-1
 1024 768 l 1,346,-1
 1024 512 l 1,347,-1
 768 512 l 1,348,-1
 768 768 l 1,345,-1
256 512 m 1,393,-1
 512 512 l 1,394,-1
 512 256 l 1,395,-1
 256 256 l 1,396,-1
 256 512 l 1,393,-1
512 512 m 1,401,-1
 768 512 l 1,402,-1
 768 256 l 1,403,-1
 512 256 l 1,404,-1
 512 512 l 1,401,-1
EndSplineSet
EndChar

StartChar: uniFF4B
Encoding: 65355 65355 82
Width: 1280
Flags: W
LayerCount: 2
Fore
SplineSet
0 2048 m 1,1,-1
 256 2048 l 1,2,-1
 256 1792 l 1,3,-1
 0 1792 l 1,4,-1
 0 2048 l 1,1,-1
0 1792 m 1,65,-1
 256 1792 l 1,66,-1
 256 1536 l 1,67,-1
 0 1536 l 1,68,-1
 0 1792 l 1,65,-1
0 1536 m 1,129,-1
 256 1536 l 1,130,-1
 256 1280 l 1,131,-1
 0 1280 l 1,132,-1
 0 1536 l 1,129,-1
768 1536 m 1,153,-1
 1024 1536 l 1,154,-1
 1024 1280 l 1,155,-1
 768 1280 l 1,156,-1
 768 1536 l 1,153,-1
0 1280 m 1,193,-1
 256 1280 l 1,194,-1
 256 1024 l 1,195,-1
 0 1024 l 1,196,-1
 0 1280 l 1,193,-1
512 1280 m 1,209,-1
 768 1280 l 1,210,-1
 768 1024 l 1,211,-1
 512 1024 l 1,212,-1
 512 1280 l 1,209,-1
0 1024 m 1,257,-1
 256 1024 l 1,258,-1
 256 768 l 1,259,-1
 0 768 l 1,260,-1
 0 1024 l 1,257,-1
256 1024 m 1,265,-1
 512 1024 l 1,266,-1
 512 768 l 1,267,-1
 256 768 l 1,268,-1
 256 1024 l 1,265,-1
0 768 m 1,321,-1
 256 768 l 1,322,-1
 256 512 l 1,323,-1
 0 512 l 1,324,-1
 0 768 l 1,321,-1
512 768 m 1,337,-1
 768 768 l 1,338,-1
 768 512 l 1,339,-1
 512 512 l 1,340,-1
 512 768 l 1,337,-1
0 512 m 1,385,-1
 256 512 l 1,386,-1
 256 256 l 1,387,-1
 0 256 l 1,388,-1
 0 512 l 1,385,-1
768 512 m 1,409,-1
 1024 512 l 1,410,-1
 1024 256 l 1,411,-1
 768 256 l 1,412,-1
 768 512 l 1,409,-1
EndSplineSet
EndChar

StartChar: uniFF4C
Encoding: 65356 65356 83
Width: 1280
Flags: W
LayerCount: 2
Fore
SplineSet
512 2048 m 1,17,-1
 768 2048 l 1,18,-1
 768 1792 l 1,19,-1
 512 1792 l 1,20,-1
 512 2048 l 1,17,-1
512 1792 m 1,81,-1
 768 1792 l 1,82,-1
 768 1536 l 1,83,-1
 512 1536 l 1,84,-1
 512 1792 l 1,81,-1
512 1536 m 1,145,-1
 768 1536 l 1,146,-1
 768 1280 l 1,147,-1
 512 1280 l 1,148,-1
 512 1536 l 1,145,-1
512 1280 m 1,209,-1
 768 1280 l 1,210,-1
 768 1024 l 1,211,-1
 512 1024 l 1,212,-1
 512 1280 l 1,209,-1
512 1024 m 1,273,-1
 768 1024 l 1,274,-1
 768 768 l 1,275,-1
 512 768 l 1,276,-1
 512 1024 l 1,273,-1
512 768 m 1,337,-1
 768 768 l 1,338,-1
 768 512 l 1,339,-1
 512 512 l 1,340,-1
 512 768 l 1,337,-1
512 512 m 1,401,-1
 768 512 l 1,402,-1
 768 256 l 1,403,-1
 512 256 l 1,404,-1
 512 512 l 1,401,-1
EndSplineSet
EndChar

StartChar: uniFF4D
Encoding: 65357 65357 84
Width: 1280
Flags: W
LayerCount: 2
Fore
SplineSet
0 1536 m 1,129,-1
 256 1536 l 1,130,-1
 256 1280 l 1,131,-1
 0 1280 l 1,132,-1
 0 1536 l 1,129,-1
256 1536 m 1,137,-1
 512 1536 l 1,138,-1
 512 1280 l 1,139,-1
 256 1280 l 1,140,-1
 256 1536 l 1,137,-1
512 1536 m 1,145,-1
 768 1536 l 1,146,-1
 768 1280 l 1,147,-1
 512 1280 l 1,148,-1
 512 1536 l 1,145,-1
768 1408 m 1,185,-1
 896 1408 l 1,186,-1
 896 1280 l 1,187,-1
 768 1280 l 1,188,-1
 768 1408 l 1,185,-1
0 1280 m 1,193,-1
 256 1280 l 1,194,-1
 256 1024 l 1,195,-1
 0 1024 l 1,196,-1
 0 1280 l 1,193,-1
384 1280 m 1,205,-1
 512 1280 l 1,206,-1
 512 1152 l 1,207,-1
 384 1152 l 1,208,-1
 384 1280 l 1,205,-1
512 1280 m 1,209,-1
 640 1280 l 1,210,-1
 640 1152 l 1,211,-1
 512 1152 l 1,212,-1
 512 1280 l 1,209,-1
768 1280 m 1,217,-1
 1024 1280 l 1,218,-1
 1024 1024 l 1,219,-1
 768 1024 l 1,220,-1
 768 1280 l 1,217,-1
384 1152 m 1,237,-1
 512 1152 l 1,238,-1
 512 1024 l 1,239,-1
 384 1024 l 1,240,-1
 384 1152 l 1,237,-1
512 1152 m 1,241,-1
 640 1152 l 1,242,-1
 640 1024 l 1,243,-1
 512 1024 l 1,244,-1
 512 1152 l 1,241,-1
0 1024 m 1,257,-1
 256 1024 l 1,258,-1
 256 768 l 1,259,-1
 0 768 l 1,260,-1
 0 1024 l 1,257,-1
384 1024 m 1,269,-1
 512 1024 l 1,270,-1
 512 896 l 1,271,-1
 384 896 l 1,272,-1
 384 1024 l 1,269,-1
512 1024 m 1,273,-1
 640 1024 l 1,274,-1
 640 896 l 1,275,-1
 512 896 l 1,276,-1
 512 1024 l 1,273,-1
768 1024 m 1,281,-1
 1024 1024 l 1,282,-1
 1024 768 l 1,283,-1
 768 768 l 1,284,-1
 768 1024 l 1,281,-1
384 896 m 1,301,-1
 512 896 l 1,302,-1
 512 768 l 1,303,-1
 384 768 l 1,304,-1
 384 896 l 1,301,-1
512 896 m 1,305,-1
 640 896 l 1,306,-1
 640 768 l 1,307,-1
 512 768 l 1,308,-1
 512 896 l 1,305,-1
0 768 m 1,321,-1
 256 768 l 1,322,-1
 256 512 l 1,323,-1
 0 512 l 1,324,-1
 0 768 l 1,321,-1
384 768 m 1,333,-1
 512 768 l 1,334,-1
 512 640 l 1,335,-1
 384 640 l 1,336,-1
 384 768 l 1,333,-1
512 768 m 1,337,-1
 640 768 l 1,338,-1
 640 640 l 1,339,-1
 512 640 l 1,340,-1
 512 768 l 1,337,-1
768 768 m 1,345,-1
 1024 768 l 1,346,-1
 1024 512 l 1,347,-1
 768 512 l 1,348,-1
 768 768 l 1,345,-1
384 640 m 1,365,-1
 512 640 l 1,366,-1
 512 512 l 1,367,-1
 384 512 l 1,368,-1
 384 640 l 1,365,-1
512 640 m 1,369,-1
 640 640 l 1,370,-1
 640 512 l 1,371,-1
 512 512 l 1,372,-1
 512 640 l 1,369,-1
0 512 m 1,385,-1
 256 512 l 1,386,-1
 256 256 l 1,387,-1
 0 256 l 1,388,-1
 0 512 l 1,385,-1
384 512 m 1,397,-1
 512 512 l 1,398,-1
 512 384 l 1,399,-1
 384 384 l 1,400,-1
 384 512 l 1,397,-1
512 512 m 1,401,-1
 640 512 l 1,402,-1
 640 384 l 1,403,-1
 512 384 l 1,404,-1
 512 512 l 1,401,-1
768 512 m 1,409,-1
 1024 512 l 1,410,-1
 1024 256 l 1,411,-1
 768 256 l 1,412,-1
 768 512 l 1,409,-1
384 384 m 1,429,-1
 512 384 l 1,430,-1
 512 256 l 1,431,-1
 384 256 l 1,432,-1
 384 384 l 1,429,-1
512 384 m 1,433,-1
 640 384 l 1,434,-1
 640 256 l 1,435,-1
 512 256 l 1,436,-1
 512 384 l 1,433,-1
EndSplineSet
EndChar

StartChar: uniFF4E
Encoding: 65358 65358 85
Width: 1280
Flags: W
LayerCount: 2
Fore
SplineSet
0 1536 m 1,129,-1
 256 1536 l 1,130,-1
 256 1280 l 1,131,-1
 0 1280 l 1,132,-1
 0 1536 l 1,129,-1
512 1536 m 1,145,-1
 768 1536 l 1,146,-1
 768 1280 l 1,147,-1
 512 1280 l 1,148,-1
 512 1536 l 1,145,-1
0 1280 m 1,193,-1
 256 1280 l 1,194,-1
 256 1024 l 1,195,-1
 0 1024 l 1,196,-1
 0 1280 l 1,193,-1
256 1280 m 1,201,-1
 512 1280 l 1,202,-1
 512 1024 l 1,203,-1
 256 1024 l 1,204,-1
 256 1280 l 1,201,-1
768 1280 m 1,217,-1
 1024 1280 l 1,218,-1
 1024 1024 l 1,219,-1
 768 1024 l 1,220,-1
 768 1280 l 1,217,-1
0 1024 m 1,257,-1
 256 1024 l 1,258,-1
 256 768 l 1,259,-1
 0 768 l 1,260,-1
 0 1024 l 1,257,-1
768 1024 m 1,281,-1
 1024 1024 l 1,282,-1
 1024 768 l 1,283,-1
 768 768 l 1,284,-1
 768 1024 l 1,281,-1
0 768 m 1,321,-1
 256 768 l 1,322,-1
 256 512 l 1,323,-1
 0 512 l 1,324,-1
 0 768 l 1,321,-1
768 768 m 1,345,-1
 1024 768 l 1,346,-1
 1024 512 l 1,347,-1
 768 512 l 1,348,-1
 768 768 l 1,345,-1
0 512 m 1,385,-1
 256 512 l 1,386,-1
 256 256 l 1,387,-1
 0 256 l 1,388,-1
 0 512 l 1,385,-1
768 512 m 1,409,-1
 1024 512 l 1,410,-1
 1024 256 l 1,411,-1
 768 256 l 1,412,-1
 768 512 l 1,409,-1
EndSplineSet
EndChar

StartChar: uniFF4F
Encoding: 65359 65359 86
Width: 1280
Flags: W
LayerCount: 2
Fore
SplineSet
256 1536 m 1,137,-1
 512 1536 l 1,138,-1
 512 1280 l 1,139,-1
 256 1280 l 1,140,-1
 256 1536 l 1,137,-1
512 1536 m 1,145,-1
 768 1536 l 1,146,-1
 768 1280 l 1,147,-1
 512 1280 l 1,148,-1
 512 1536 l 1,145,-1
0 1280 m 1,193,-1
 256 1280 l 1,194,-1
 256 1024 l 1,195,-1
 0 1024 l 1,196,-1
 0 1280 l 1,193,-1
768 1280 m 1,217,-1
 1024 1280 l 1,218,-1
 1024 1024 l 1,219,-1
 768 1024 l 1,220,-1
 768 1280 l 1,217,-1
0 1024 m 1,257,-1
 256 1024 l 1,258,-1
 256 768 l 1,259,-1
 0 768 l 1,260,-1
 0 1024 l 1,257,-1
768 1024 m 1,281,-1
 1024 1024 l 1,282,-1
 1024 768 l 1,283,-1
 768 768 l 1,284,-1
 768 1024 l 1,281,-1
0 768 m 1,321,-1
 256 768 l 1,322,-1
 256 512 l 1,323,-1
 0 512 l 1,324,-1
 0 768 l 1,321,-1
768 768 m 1,345,-1
 1024 768 l 1,346,-1
 1024 512 l 1,347,-1
 768 512 l 1,348,-1
 768 768 l 1,345,-1
256 512 m 1,393,-1
 512 512 l 1,394,-1
 512 256 l 1,395,-1
 256 256 l 1,396,-1
 256 512 l 1,393,-1
512 512 m 1,401,-1
 768 512 l 1,402,-1
 768 256 l 1,403,-1
 512 256 l 1,404,-1
 512 512 l 1,401,-1
EndSplineSet
EndChar

StartChar: uniFF50
Encoding: 65360 65360 87
Width: 1280
Flags: W
LayerCount: 2
Fore
SplineSet
0 1536 m 1,129,-1
 256 1536 l 1,130,-1
 256 1280 l 1,131,-1
 0 1280 l 1,132,-1
 0 1536 l 1,129,-1
256 1536 m 1,137,-1
 512 1536 l 1,138,-1
 512 1280 l 1,139,-1
 256 1280 l 1,140,-1
 256 1536 l 1,137,-1
512 1536 m 1,145,-1
 768 1536 l 1,146,-1
 768 1280 l 1,147,-1
 512 1280 l 1,148,-1
 512 1536 l 1,145,-1
0 1280 m 1,193,-1
 256 1280 l 1,194,-1
 256 1024 l 1,195,-1
 0 1024 l 1,196,-1
 0 1280 l 1,193,-1
768 1280 m 1,217,-1
 1024 1280 l 1,218,-1
 1024 1024 l 1,219,-1
 768 1024 l 1,220,-1
 768 1280 l 1,217,-1
0 1024 m 1,257,-1
 256 1024 l 1,258,-1
 256 768 l 1,259,-1
 0 768 l 1,260,-1
 0 1024 l 1,257,-1
768 1024 m 1,281,-1
 1024 1024 l 1,282,-1
 1024 768 l 1,283,-1
 768 768 l 1,284,-1
 768 1024 l 1,281,-1
0 768 m 1,321,-1
 256 768 l 1,322,-1
 256 512 l 1,323,-1
 0 512 l 1,324,-1
 0 768 l 1,321,-1
256 768 m 1,329,-1
 512 768 l 1,330,-1
 512 512 l 1,331,-1
 256 512 l 1,332,-1
 256 768 l 1,329,-1
512 768 m 1,337,-1
 768 768 l 1,338,-1
 768 512 l 1,339,-1
 512 512 l 1,340,-1
 512 768 l 1,337,-1
0 512 m 1,385,-1
 256 512 l 1,386,-1
 256 256 l 1,387,-1
 0 256 l 1,388,-1
 0 512 l 1,385,-1
0 256 m 1,449,-1
 256 256 l 1,450,-1
 256 0 l 1,451,-1
 0 0 l 1,452,-1
 0 256 l 1,449,-1
EndSplineSet
EndChar

StartChar: uniFF51
Encoding: 65361 65361 88
Width: 1280
Flags: W
LayerCount: 2
Fore
SplineSet
256 1536 m 1,137,-1
 512 1536 l 1,138,-1
 512 1280 l 1,139,-1
 256 1280 l 1,140,-1
 256 1536 l 1,137,-1
512 1536 m 1,145,-1
 768 1536 l 1,146,-1
 768 1280 l 1,147,-1
 512 1280 l 1,148,-1
 512 1536 l 1,145,-1
768 1536 m 1,153,-1
 1024 1536 l 1,154,-1
 1024 1280 l 1,155,-1
 768 1280 l 1,156,-1
 768 1536 l 1,153,-1
0 1280 m 1,193,-1
 256 1280 l 1,194,-1
 256 1024 l 1,195,-1
 0 1024 l 1,196,-1
 0 1280 l 1,193,-1
768 1280 m 1,217,-1
 1024 1280 l 1,218,-1
 1024 1024 l 1,219,-1
 768 1024 l 1,220,-1
 768 1280 l 1,217,-1
0 1024 m 1,257,-1
 256 1024 l 1,258,-1
 256 768 l 1,259,-1
 0 768 l 1,260,-1
 0 1024 l 1,257,-1
768 1024 m 1,281,-1
 1024 1024 l 1,282,-1
 1024 768 l 1,283,-1
 768 768 l 1,284,-1
 768 1024 l 1,281,-1
256 768 m 1,329,-1
 512 768 l 1,330,-1
 512 512 l 1,331,-1
 256 512 l 1,332,-1
 256 768 l 1,329,-1
512 768 m 1,337,-1
 768 768 l 1,338,-1
 768 512 l 1,339,-1
 512 512 l 1,340,-1
 512 768 l 1,337,-1
768 768 m 1,345,-1
 1024 768 l 1,346,-1
 1024 512 l 1,347,-1
 768 512 l 1,348,-1
 768 768 l 1,345,-1
768 512 m 1,409,-1
 1024 512 l 1,410,-1
 1024 256 l 1,411,-1
 768 256 l 1,412,-1
 768 512 l 1,409,-1
768 256 m 1,473,-1
 1024 256 l 1,474,-1
 1024 0 l 1,475,-1
 768 0 l 1,476,-1
 768 256 l 1,473,-1
EndSplineSet
EndChar

StartChar: uniFF52
Encoding: 65362 65362 89
Width: 1280
Flags: W
LayerCount: 2
Fore
SplineSet
0 1536 m 1,129,-1
 256 1536 l 1,130,-1
 256 1280 l 1,131,-1
 0 1280 l 1,132,-1
 0 1536 l 1,129,-1
512 1536 m 1,145,-1
 768 1536 l 1,146,-1
 768 1280 l 1,147,-1
 512 1280 l 1,148,-1
 512 1536 l 1,145,-1
768 1536 m 1,153,-1
 1024 1536 l 1,154,-1
 1024 1280 l 1,155,-1
 768 1280 l 1,156,-1
 768 1536 l 1,153,-1
0 1280 m 1,193,-1
 256 1280 l 1,194,-1
 256 1024 l 1,195,-1
 0 1024 l 1,196,-1
 0 1280 l 1,193,-1
256 1280 m 1,201,-1
 512 1280 l 1,202,-1
 512 1024 l 1,203,-1
 256 1024 l 1,204,-1
 256 1280 l 1,201,-1
0 1024 m 1,257,-1
 256 1024 l 1,258,-1
 256 768 l 1,259,-1
 0 768 l 1,260,-1
 0 1024 l 1,257,-1
0 768 m 1,321,-1
 256 768 l 1,322,-1
 256 512 l 1,323,-1
 0 512 l 1,324,-1
 0 768 l 1,321,-1
0 512 m 1,385,-1
 256 512 l 1,386,-1
 256 256 l 1,387,-1
 0 256 l 1,388,-1
 0 512 l 1,385,-1
EndSplineSet
EndChar

StartChar: uniFF53
Encoding: 65363 65363 90
Width: 1280
Flags: W
LayerCount: 2
Fore
SplineSet
256 1536 m 1,137,-1
 512 1536 l 1,138,-1
 512 1280 l 1,139,-1
 256 1280 l 1,140,-1
 256 1536 l 1,137,-1
512 1536 m 1,145,-1
 768 1536 l 1,146,-1
 768 1280 l 1,147,-1
 512 1280 l 1,148,-1
 512 1536 l 1,145,-1
768 1536 m 1,153,-1
 1024 1536 l 1,154,-1
 1024 1280 l 1,155,-1
 768 1280 l 1,156,-1
 768 1536 l 1,153,-1
0 1280 m 1,193,-1
 256 1280 l 1,194,-1
 256 1024 l 1,195,-1
 0 1024 l 1,196,-1
 0 1280 l 1,193,-1
256 1024 m 1,265,-1
 512 1024 l 1,266,-1
 512 768 l 1,267,-1
 256 768 l 1,268,-1
 256 1024 l 1,265,-1
512 1024 m 1,273,-1
 768 1024 l 1,274,-1
 768 768 l 1,275,-1
 512 768 l 1,276,-1
 512 1024 l 1,273,-1
768 768 m 1,345,-1
 1024 768 l 1,346,-1
 1024 512 l 1,347,-1
 768 512 l 1,348,-1
 768 768 l 1,345,-1
0 512 m 1,385,-1
 256 512 l 1,386,-1
 256 256 l 1,387,-1
 0 256 l 1,388,-1
 0 512 l 1,385,-1
256 512 m 1,393,-1
 512 512 l 1,394,-1
 512 256 l 1,395,-1
 256 256 l 1,396,-1
 256 512 l 1,393,-1
512 512 m 1,401,-1
 768 512 l 1,402,-1
 768 256 l 1,403,-1
 512 256 l 1,404,-1
 512 512 l 1,401,-1
EndSplineSet
EndChar

StartChar: uniFF54
Encoding: 65364 65364 91
Width: 1280
Flags: W
LayerCount: 2
Fore
SplineSet
256 2048 m 1,9,-1
 512 2048 l 1,10,-1
 512 1792 l 1,11,-1
 256 1792 l 1,12,-1
 256 2048 l 1,9,-1
256 1792 m 1,73,-1
 512 1792 l 1,74,-1
 512 1536 l 1,75,-1
 256 1536 l 1,76,-1
 256 1792 l 1,73,-1
0 1536 m 1,129,-1
 256 1536 l 1,130,-1
 256 1280 l 1,131,-1
 0 1280 l 1,132,-1
 0 1536 l 1,129,-1
256 1536 m 1,137,-1
 512 1536 l 1,138,-1
 512 1280 l 1,139,-1
 256 1280 l 1,140,-1
 256 1536 l 1,137,-1
512 1536 m 1,145,-1
 768 1536 l 1,146,-1
 768 1280 l 1,147,-1
 512 1280 l 1,148,-1
 512 1536 l 1,145,-1
256 1280 m 1,201,-1
 512 1280 l 1,202,-1
 512 1024 l 1,203,-1
 256 1024 l 1,204,-1
 256 1280 l 1,201,-1
256 1024 m 1,265,-1
 512 1024 l 1,266,-1
 512 768 l 1,267,-1
 256 768 l 1,268,-1
 256 1024 l 1,265,-1
256 768 m 1,329,-1
 512 768 l 1,330,-1
 512 512 l 1,331,-1
 256 512 l 1,332,-1
 256 768 l 1,329,-1
512 512 m 1,401,-1
 768 512 l 1,402,-1
 768 256 l 1,403,-1
 512 256 l 1,404,-1
 512 512 l 1,401,-1
768 512 m 1,409,-1
 1024 512 l 1,410,-1
 1024 256 l 1,411,-1
 768 256 l 1,412,-1
 768 512 l 1,409,-1
EndSplineSet
EndChar

StartChar: uniFF55
Encoding: 65365 65365 92
Width: 1280
Flags: W
LayerCount: 2
Fore
SplineSet
0 1536 m 1,129,-1
 256 1536 l 1,130,-1
 256 1280 l 1,131,-1
 0 1280 l 1,132,-1
 0 1536 l 1,129,-1
768 1536 m 1,153,-1
 1024 1536 l 1,154,-1
 1024 1280 l 1,155,-1
 768 1280 l 1,156,-1
 768 1536 l 1,153,-1
0 1280 m 1,193,-1
 256 1280 l 1,194,-1
 256 1024 l 1,195,-1
 0 1024 l 1,196,-1
 0 1280 l 1,193,-1
768 1280 m 1,217,-1
 1024 1280 l 1,218,-1
 1024 1024 l 1,219,-1
 768 1024 l 1,220,-1
 768 1280 l 1,217,-1
0 1024 m 1,257,-1
 256 1024 l 1,258,-1
 256 768 l 1,259,-1
 0 768 l 1,260,-1
 0 1024 l 1,257,-1
768 1024 m 1,281,-1
 1024 1024 l 1,282,-1
 1024 768 l 1,283,-1
 768 768 l 1,284,-1
 768 1024 l 1,281,-1
0 768 m 1,321,-1
 256 768 l 1,322,-1
 256 512 l 1,323,-1
 0 512 l 1,324,-1
 0 768 l 1,321,-1
512 768 m 1,337,-1
 768 768 l 1,338,-1
 768 512 l 1,339,-1
 512 512 l 1,340,-1
 512 768 l 1,337,-1
768 768 m 1,345,-1
 1024 768 l 1,346,-1
 1024 512 l 1,347,-1
 768 512 l 1,348,-1
 768 768 l 1,345,-1
256 512 m 1,393,-1
 512 512 l 1,394,-1
 512 256 l 1,395,-1
 256 256 l 1,396,-1
 256 512 l 1,393,-1
768 512 m 1,409,-1
 1024 512 l 1,410,-1
 1024 256 l 1,411,-1
 768 256 l 1,412,-1
 768 512 l 1,409,-1
EndSplineSet
EndChar

StartChar: uniFF56
Encoding: 65366 65366 93
Width: 1280
Flags: W
LayerCount: 2
Fore
SplineSet
0 1536 m 1,129,-1
 256 1536 l 1,130,-1
 256 1280 l 1,131,-1
 0 1280 l 1,132,-1
 0 1536 l 1,129,-1
768 1536 m 1,153,-1
 1024 1536 l 1,154,-1
 1024 1280 l 1,155,-1
 768 1280 l 1,156,-1
 768 1536 l 1,153,-1
0 1280 m 1,193,-1
 256 1280 l 1,194,-1
 256 1024 l 1,195,-1
 0 1024 l 1,196,-1
 0 1280 l 1,193,-1
768 1280 m 1,217,-1
 1024 1280 l 1,218,-1
 1024 1024 l 1,219,-1
 768 1024 l 1,220,-1
 768 1280 l 1,217,-1
0 1024 m 1,257,-1
 256 1024 l 1,258,-1
 256 768 l 1,259,-1
 0 768 l 1,260,-1
 0 1024 l 1,257,-1
768 1024 m 1,281,-1
 1024 1024 l 1,282,-1
 1024 768 l 1,283,-1
 768 768 l 1,284,-1
 768 1024 l 1,281,-1
0 768 m 1,321,-1
 256 768 l 1,322,-1
 256 512 l 1,323,-1
 0 512 l 1,324,-1
 0 768 l 1,321,-1
512 768 m 1,337,-1
 768 768 l 1,338,-1
 768 512 l 1,339,-1
 512 512 l 1,340,-1
 512 768 l 1,337,-1
256 512 m 1,393,-1
 512 512 l 1,394,-1
 512 256 l 1,395,-1
 256 256 l 1,396,-1
 256 512 l 1,393,-1
EndSplineSet
EndChar

StartChar: uniFF57
Encoding: 65367 65367 94
Width: 1280
Flags: W
LayerCount: 2
Fore
SplineSet
0 1408 m 1,161,-1
 128 1408 l 1,162,-1
 128 1280 l 1,163,-1
 0 1280 l 1,164,-1
 0 1408 l 1,161,-1
128 1408 m 1,165,-1
 256 1408 l 1,166,-1
 256 1280 l 1,167,-1
 128 1280 l 1,168,-1
 128 1408 l 1,165,-1
768 1408 m 1,185,-1
 896 1408 l 1,186,-1
 896 1280 l 1,187,-1
 768 1280 l 1,188,-1
 768 1408 l 1,185,-1
896 1408 m 1,189,-1
 1024 1408 l 1,190,-1
 1024 1280 l 1,191,-1
 896 1280 l 1,192,-1
 896 1408 l 1,189,-1
0 1280 m 1,193,-1
 256 1280 l 1,194,-1
 256 1024 l 1,195,-1
 0 1024 l 1,196,-1
 0 1280 l 1,193,-1
768 1280 m 1,217,-1
 1024 1280 l 1,218,-1
 1024 1024 l 1,219,-1
 768 1024 l 1,220,-1
 768 1280 l 1,217,-1
384 1152 m 1,237,-1
 512 1152 l 1,238,-1
 512 1024 l 1,239,-1
 384 1024 l 1,240,-1
 384 1152 l 1,237,-1
512 1152 m 1,241,-1
 640 1152 l 1,242,-1
 640 1024 l 1,243,-1
 512 1024 l 1,244,-1
 512 1152 l 1,241,-1
0 1024 m 1,257,-1
 256 1024 l 1,258,-1
 256 768 l 1,259,-1
 0 768 l 1,260,-1
 0 1024 l 1,257,-1
384 1024 m 1,269,-1
 512 1024 l 1,270,-1
 512 896 l 1,271,-1
 384 896 l 1,272,-1
 384 1024 l 1,269,-1
512 1024 m 1,273,-1
 640 1024 l 1,274,-1
 640 896 l 1,275,-1
 512 896 l 1,276,-1
 512 1024 l 1,273,-1
768 1024 m 1,281,-1
 1024 1024 l 1,282,-1
 1024 768 l 1,283,-1
 768 768 l 1,284,-1
 768 1024 l 1,281,-1
384 896 m 1,301,-1
 512 896 l 1,302,-1
 512 768 l 1,303,-1
 384 768 l 1,304,-1
 384 896 l 1,301,-1
512 896 m 1,305,-1
 640 896 l 1,306,-1
 640 768 l 1,307,-1
 512 768 l 1,308,-1
 512 896 l 1,305,-1
0 768 m 1,321,-1
 256 768 l 1,322,-1
 256 512 l 1,323,-1
 0 512 l 1,324,-1
 0 768 l 1,321,-1
256 768 m 1,329,-1
 512 768 l 1,330,-1
 512 512 l 1,331,-1
 256 512 l 1,332,-1
 256 768 l 1,329,-1
512 768 m 1,337,-1
 768 768 l 1,338,-1
 768 512 l 1,339,-1
 512 512 l 1,340,-1
 512 768 l 1,337,-1
768 768 m 1,345,-1
 1024 768 l 1,346,-1
 1024 512 l 1,347,-1
 768 512 l 1,348,-1
 768 768 l 1,345,-1
0 512 m 1,385,-1
 256 512 l 1,386,-1
 256 256 l 1,387,-1
 0 256 l 1,388,-1
 0 512 l 1,385,-1
256 512 m 1,393,-1
 384 512 l 1,394,-1
 384 384 l 1,395,-1
 256 384 l 1,396,-1
 256 512 l 1,393,-1
640 512 m 1,405,-1
 768 512 l 1,406,-1
 768 384 l 1,407,-1
 640 384 l 1,408,-1
 640 512 l 1,405,-1
768 512 m 1,409,-1
 1024 512 l 1,410,-1
 1024 256 l 1,411,-1
 768 256 l 1,412,-1
 768 512 l 1,409,-1
EndSplineSet
EndChar

StartChar: uniFF58
Encoding: 65368 65368 95
Width: 1280
Flags: W
LayerCount: 2
Fore
SplineSet
0 1536 m 1,129,-1
 256 1536 l 1,130,-1
 256 1280 l 1,131,-1
 0 1280 l 1,132,-1
 0 1536 l 1,129,-1
768 1536 m 1,153,-1
 1024 1536 l 1,154,-1
 1024 1280 l 1,155,-1
 768 1280 l 1,156,-1
 768 1536 l 1,153,-1
0 1280 m 1,193,-1
 256 1280 l 1,194,-1
 256 1024 l 1,195,-1
 0 1024 l 1,196,-1
 0 1280 l 1,193,-1
512 1280 m 1,209,-1
 768 1280 l 1,210,-1
 768 1024 l 1,211,-1
 512 1024 l 1,212,-1
 512 1280 l 1,209,-1
256 1024 m 1,265,-1
 512 1024 l 1,266,-1
 512 768 l 1,267,-1
 256 768 l 1,268,-1
 256 1024 l 1,265,-1
512 1024 m 1,273,-1
 768 1024 l 1,274,-1
 768 768 l 1,275,-1
 512 768 l 1,276,-1
 512 1024 l 1,273,-1
256 768 m 1,329,-1
 512 768 l 1,330,-1
 512 512 l 1,331,-1
 256 512 l 1,332,-1
 256 768 l 1,329,-1
768 768 m 1,345,-1
 1024 768 l 1,346,-1
 1024 512 l 1,347,-1
 768 512 l 1,348,-1
 768 768 l 1,345,-1
0 512 m 1,385,-1
 256 512 l 1,386,-1
 256 256 l 1,387,-1
 0 256 l 1,388,-1
 0 512 l 1,385,-1
768 512 m 1,409,-1
 1024 512 l 1,410,-1
 1024 256 l 1,411,-1
 768 256 l 1,412,-1
 768 512 l 1,409,-1
EndSplineSet
EndChar

StartChar: uniFF59
Encoding: 65369 65369 96
Width: 1280
Flags: W
LayerCount: 2
Fore
SplineSet
0 1536 m 1,129,-1
 256 1536 l 1,130,-1
 256 1280 l 1,131,-1
 0 1280 l 1,132,-1
 0 1536 l 1,129,-1
768 1536 m 1,153,-1
 1024 1536 l 1,154,-1
 1024 1280 l 1,155,-1
 768 1280 l 1,156,-1
 768 1536 l 1,153,-1
0 1280 m 1,193,-1
 256 1280 l 1,194,-1
 256 1024 l 1,195,-1
 0 1024 l 1,196,-1
 0 1280 l 1,193,-1
768 1280 m 1,217,-1
 1024 1280 l 1,218,-1
 1024 1024 l 1,219,-1
 768 1024 l 1,220,-1
 768 1280 l 1,217,-1
256 1024 m 1,265,-1
 512 1024 l 1,266,-1
 512 768 l 1,267,-1
 256 768 l 1,268,-1
 256 1024 l 1,265,-1
768 1024 m 1,281,-1
 1024 1024 l 1,282,-1
 1024 768 l 1,283,-1
 768 768 l 1,284,-1
 768 1024 l 1,281,-1
512 768 m 1,337,-1
 768 768 l 1,338,-1
 768 512 l 1,339,-1
 512 512 l 1,340,-1
 512 768 l 1,337,-1
768 768 m 1,345,-1
 1024 768 l 1,346,-1
 1024 512 l 1,347,-1
 768 512 l 1,348,-1
 768 768 l 1,345,-1
768 512 m 1,409,-1
 1024 512 l 1,410,-1
 1024 256 l 1,411,-1
 768 256 l 1,412,-1
 768 512 l 1,409,-1
256 256 m 1,457,-1
 512 256 l 1,458,-1
 512 0 l 1,459,-1
 256 0 l 1,460,-1
 256 256 l 1,457,-1
512 256 m 1,465,-1
 768 256 l 1,466,-1
 768 0 l 1,467,-1
 512 0 l 1,468,-1
 512 256 l 1,465,-1
EndSplineSet
EndChar

StartChar: uniFF5A
Encoding: 65370 65370 97
Width: 1280
Flags: W
LayerCount: 2
Fore
SplineSet
0 1536 m 1,129,-1
 256 1536 l 1,130,-1
 256 1280 l 1,131,-1
 0 1280 l 1,132,-1
 0 1536 l 1,129,-1
256 1536 m 1,137,-1
 512 1536 l 1,138,-1
 512 1280 l 1,139,-1
 256 1280 l 1,140,-1
 256 1536 l 1,137,-1
512 1536 m 1,145,-1
 768 1536 l 1,146,-1
 768 1280 l 1,147,-1
 512 1280 l 1,148,-1
 512 1536 l 1,145,-1
768 1536 m 1,153,-1
 1024 1536 l 1,154,-1
 1024 1280 l 1,155,-1
 768 1280 l 1,156,-1
 768 1536 l 1,153,-1
768 1280 m 1,217,-1
 1024 1280 l 1,218,-1
 1024 1024 l 1,219,-1
 768 1024 l 1,220,-1
 768 1280 l 1,217,-1
256 1024 m 1,265,-1
 512 1024 l 1,266,-1
 512 768 l 1,267,-1
 256 768 l 1,268,-1
 256 1024 l 1,265,-1
512 1024 m 1,273,-1
 768 1024 l 1,274,-1
 768 768 l 1,275,-1
 512 768 l 1,276,-1
 512 1024 l 1,273,-1
0 768 m 1,321,-1
 256 768 l 1,322,-1
 256 512 l 1,323,-1
 0 512 l 1,324,-1
 0 768 l 1,321,-1
0 512 m 1,385,-1
 256 512 l 1,386,-1
 256 256 l 1,387,-1
 0 256 l 1,388,-1
 0 512 l 1,385,-1
256 512 m 1,393,-1
 512 512 l 1,394,-1
 512 256 l 1,395,-1
 256 256 l 1,396,-1
 256 512 l 1,393,-1
512 512 m 1,401,-1
 768 512 l 1,402,-1
 768 256 l 1,403,-1
 512 256 l 1,404,-1
 512 512 l 1,401,-1
768 512 m 1,409,-1
 1024 512 l 1,410,-1
 1024 256 l 1,411,-1
 768 256 l 1,412,-1
 768 512 l 1,409,-1
EndSplineSet
EndChar

StartChar: uniFF5B
Encoding: 65371 65371 98
Width: 1280
Flags: W
LayerCount: 2
Fore
SplineSet
512 2048 m 1,17,-1
 768 2048 l 1,18,-1
 768 1792 l 1,19,-1
 512 1792 l 1,20,-1
 512 2048 l 1,17,-1
256 1792 m 1,73,-1
 512 1792 l 1,74,-1
 512 1536 l 1,75,-1
 256 1536 l 1,76,-1
 256 1792 l 1,73,-1
256 1536 m 1,137,-1
 512 1536 l 1,138,-1
 512 1280 l 1,139,-1
 256 1280 l 1,140,-1
 256 1536 l 1,137,-1
0 1280 m 1,193,-1
 256 1280 l 1,194,-1
 256 1024 l 1,195,-1
 0 1024 l 1,196,-1
 0 1280 l 1,193,-1
256 1024 m 1,265,-1
 512 1024 l 1,266,-1
 512 768 l 1,267,-1
 256 768 l 1,268,-1
 256 1024 l 1,265,-1
256 768 m 1,329,-1
 512 768 l 1,330,-1
 512 512 l 1,331,-1
 256 512 l 1,332,-1
 256 768 l 1,329,-1
512 512 m 1,401,-1
 768 512 l 1,402,-1
 768 256 l 1,403,-1
 512 256 l 1,404,-1
 512 512 l 1,401,-1
EndSplineSet
EndChar

StartChar: uniFF5C
Encoding: 65372 65372 99
Width: 1280
Flags: W
LayerCount: 2
Fore
SplineSet
256 2048 m 1,9,-1
 512 2048 l 1,10,-1
 512 1792 l 1,11,-1
 256 1792 l 1,12,-1
 256 2048 l 1,9,-1
256 1792 m 1,73,-1
 512 1792 l 1,74,-1
 512 1536 l 1,75,-1
 256 1536 l 1,76,-1
 256 1792 l 1,73,-1
256 1536 m 1,137,-1
 512 1536 l 1,138,-1
 512 1280 l 1,139,-1
 256 1280 l 1,140,-1
 256 1536 l 1,137,-1
256 1280 m 1,201,-1
 512 1280 l 1,202,-1
 512 1024 l 1,203,-1
 256 1024 l 1,204,-1
 256 1280 l 1,201,-1
256 1024 m 1,265,-1
 512 1024 l 1,266,-1
 512 768 l 1,267,-1
 256 768 l 1,268,-1
 256 1024 l 1,265,-1
256 768 m 1,329,-1
 512 768 l 1,330,-1
 512 512 l 1,331,-1
 256 512 l 1,332,-1
 256 768 l 1,329,-1
256 512 m 1,393,-1
 512 512 l 1,394,-1
 512 256 l 1,395,-1
 256 256 l 1,396,-1
 256 512 l 1,393,-1
EndSplineSet
EndChar

StartChar: uniFF5D
Encoding: 65373 65373 100
Width: 1280
Flags: W
LayerCount: 2
Fore
SplineSet
256 2048 m 1,9,-1
 512 2048 l 1,10,-1
 512 1792 l 1,11,-1
 256 1792 l 1,12,-1
 256 2048 l 1,9,-1
512 1792 m 1,81,-1
 768 1792 l 1,82,-1
 768 1536 l 1,83,-1
 512 1536 l 1,84,-1
 512 1792 l 1,81,-1
512 1536 m 1,145,-1
 768 1536 l 1,146,-1
 768 1280 l 1,147,-1
 512 1280 l 1,148,-1
 512 1536 l 1,145,-1
768 1280 m 1,217,-1
 1024 1280 l 1,218,-1
 1024 1024 l 1,219,-1
 768 1024 l 1,220,-1
 768 1280 l 1,217,-1
512 1024 m 1,273,-1
 768 1024 l 1,274,-1
 768 768 l 1,275,-1
 512 768 l 1,276,-1
 512 1024 l 1,273,-1
512 768 m 1,337,-1
 768 768 l 1,338,-1
 768 512 l 1,339,-1
 512 512 l 1,340,-1
 512 768 l 1,337,-1
256 512 m 1,393,-1
 512 512 l 1,394,-1
 512 256 l 1,395,-1
 256 256 l 1,396,-1
 256 512 l 1,393,-1
EndSplineSet
EndChar

StartChar: uniFF5E
Encoding: 65374 65374 101
Width: 1280
Flags: W
LayerCount: 2
Fore
SplineSet
256 1792 m 1,73,-1
 512 1792 l 1,74,-1
 512 1536 l 1,75,-1
 256 1536 l 1,76,-1
 256 1792 l 1,73,-1
768 1792 m 1,89,-1
 1024 1792 l 1,90,-1
 1024 1536 l 1,91,-1
 768 1536 l 1,92,-1
 768 1792 l 1,89,-1
0 1536 m 1,129,-1
 256 1536 l 1,130,-1
 256 1280 l 1,131,-1
 0 1280 l 1,132,-1
 0 1536 l 1,129,-1
512 1536 m 1,145,-1
 768 1536 l 1,146,-1
 768 1280 l 1,147,-1
 512 1280 l 1,148,-1
 512 1536 l 1,145,-1
EndSplineSet
EndChar

StartChar: uni20BF
Encoding: 8383 8383 102
Width: 1280
Flags: W
LayerCount: 2
Fore
SplineSet
0 1792 m 1,0,-1
 768 1792 l 1,1,-1
 768 1664 l 1,2,-1
 896 1664 l 1,3,-1
 896 1536 l 1,4,-1
 1024 1536 l 1,5,-1
 1024 1280 l 1,6,-1
 768 1280 l 1,7,-1
 768 1536 l 1,8,-1
 512 1536 l 1,9,-1
 512 1280 l 1,10,-1
 768 1280 l 1,11,-1
 768 1024 l 1,12,-1
 512 1024 l 1,13,-1
 512 768 l 1,14,-1
 768 768 l 1,15,-1
 768 1024 l 1,16,-1
 1024 1024 l 1,17,-1
 1024 768 l 1,18,-1
 896 768 l 1,19,-1
 896 640 l 1,20,-1
 768 640 l 1,21,-1
 768 512 l 1,22,-1
 640 512 l 1,23,-1
 0 512 l 1,24,-1
 0 768 l 1,25,-1
 256 768 l 1,26,-1
 256 1536 l 1,27,-1
 0 1536 l 1,28,-1
 0 1792 l 1,0,-1
256 2048 m 1,29,-1
 384 2048 l 1,30,-1
 384 1632 l 1,31,-1
 256 1632 l 1,32,-1
 256 2048 l 1,29,-1
512 2048 m 1,33,-1
 640 2048 l 1,34,-1
 640 1632 l 1,35,-1
 512 1632 l 1,36,-1
 512 2048 l 1,33,-1
256 696 m 1,37,-1
 384 696 l 1,38,-1
 384 256 l 1,39,-1
 256 256 l 1,40,-1
 256 696 l 1,37,-1
512 696 m 1,41,-1
 640 696 l 1,42,-1
 640 256 l 1,43,-1
 512 256 l 1,44,-1
 512 696 l 1,41,-1
EndSplineSet
EndChar

StartChar: uniFF01
Encoding: 65281 65281 103
Width: 1280
Flags: W
LayerCount: 2
Fore
SplineSet
512 2048 m 1,17,-1
 768 2048 l 1,18,-1
 768 1792 l 1,19,-1
 512 1792 l 1,20,-1
 512 2048 l 1,17,-1
512 1792 m 1,81,-1
 768 1792 l 1,82,-1
 768 1536 l 1,83,-1
 512 1536 l 1,84,-1
 512 1792 l 1,81,-1
512 1536 m 1,145,-1
 768 1536 l 1,146,-1
 768 1280 l 1,147,-1
 512 1280 l 1,148,-1
 512 1536 l 1,145,-1
512 1280 m 1,209,-1
 768 1280 l 1,210,-1
 768 1024 l 1,211,-1
 512 1024 l 1,212,-1
 512 1280 l 1,209,-1
512 1024 m 1,273,-1
 768 1024 l 1,274,-1
 768 768 l 1,275,-1
 512 768 l 1,276,-1
 512 1024 l 1,273,-1
512 512 m 1,401,-1
 768 512 l 1,402,-1
 768 256 l 1,403,-1
 512 256 l 1,404,-1
 512 512 l 1,401,-1
EndSplineSet
EndChar

StartChar: uniFF02
Encoding: 65282 65282 104
Width: 1280
Flags: W
LayerCount: 2
Fore
SplineSet
0 2048 m 1,1,-1
 256 2048 l 1,2,-1
 256 1792 l 1,3,-1
 0 1792 l 1,4,-1
 0 2048 l 1,1,-1
512 2048 m 1,17,-1
 768 2048 l 1,18,-1
 768 1792 l 1,19,-1
 512 1792 l 1,20,-1
 512 2048 l 1,17,-1
0 1792 m 1,65,-1
 256 1792 l 1,66,-1
 256 1536 l 1,67,-1
 0 1536 l 1,68,-1
 0 1792 l 1,65,-1
512 1792 m 1,81,-1
 768 1792 l 1,82,-1
 768 1536 l 1,83,-1
 512 1536 l 1,84,-1
 512 1792 l 1,81,-1
0 1536 m 1,129,-1
 256 1536 l 1,130,-1
 256 1280 l 1,131,-1
 0 1280 l 1,132,-1
 0 1536 l 1,129,-1
512 1536 m 1,145,-1
 768 1536 l 1,146,-1
 768 1280 l 1,147,-1
 512 1280 l 1,148,-1
 512 1536 l 1,145,-1
EndSplineSet
EndChar

StartChar: uniFF03
Encoding: 65283 65283 105
Width: 1280
Flags: W
LayerCount: 2
Fore
SplineSet
256 1792 m 1,73,-1
 512 1792 l 1,74,-1
 512 1536 l 1,75,-1
 256 1536 l 1,76,-1
 256 1792 l 1,73,-1
640 1792 m 1,85,-1
 768 1792 l 1,86,-1
 768 1664 l 1,87,-1
 640 1664 l 1,88,-1
 640 1792 l 1,85,-1
768 1792 m 1,89,-1
 896 1792 l 1,90,-1
 896 1664 l 1,91,-1
 768 1664 l 1,92,-1
 768 1792 l 1,89,-1
640 1664 m 1,117,-1
 768 1664 l 1,118,-1
 768 1536 l 1,119,-1
 640 1536 l 1,120,-1
 640 1664 l 1,117,-1
768 1664 m 1,121,-1
 896 1664 l 1,122,-1
 896 1536 l 1,123,-1
 768 1536 l 1,124,-1
 768 1664 l 1,121,-1
0 1536 m 1,129,-1
 256 1536 l 1,130,-1
 256 1280 l 1,131,-1
 0 1280 l 1,132,-1
 0 1536 l 1,129,-1
256 1536 m 1,137,-1
 512 1536 l 1,138,-1
 512 1280 l 1,139,-1
 256 1280 l 1,140,-1
 256 1536 l 1,137,-1
512 1536 m 1,145,-1
 768 1536 l 1,146,-1
 768 1280 l 1,147,-1
 512 1280 l 1,148,-1
 512 1536 l 1,145,-1
768 1536 m 1,153,-1
 1024 1536 l 1,154,-1
 1024 1280 l 1,155,-1
 768 1280 l 1,156,-1
 768 1536 l 1,153,-1
256 1280 m 1,201,-1
 512 1280 l 1,202,-1
 512 1024 l 1,203,-1
 256 1024 l 1,204,-1
 256 1280 l 1,201,-1
640 1280 m 1,213,-1
 768 1280 l 1,214,-1
 768 1152 l 1,215,-1
 640 1152 l 1,216,-1
 640 1280 l 1,213,-1
768 1280 m 1,217,-1
 896 1280 l 1,218,-1
 896 1152 l 1,219,-1
 768 1152 l 1,220,-1
 768 1280 l 1,217,-1
640 1152 m 1,245,-1
 768 1152 l 1,246,-1
 768 1024 l 1,247,-1
 640 1024 l 1,248,-1
 640 1152 l 1,245,-1
768 1152 m 1,249,-1
 896 1152 l 1,250,-1
 896 1024 l 1,251,-1
 768 1024 l 1,252,-1
 768 1152 l 1,249,-1
256 1024 m 1,265,-1
 512 1024 l 1,266,-1
 512 768 l 1,267,-1
 256 768 l 1,268,-1
 256 1024 l 1,265,-1
640 1024 m 1,277,-1
 768 1024 l 1,278,-1
 768 896 l 1,279,-1
 640 896 l 1,280,-1
 640 1024 l 1,277,-1
768 1024 m 1,281,-1
 896 1024 l 1,282,-1
 896 896 l 1,283,-1
 768 896 l 1,284,-1
 768 1024 l 1,281,-1
640 896 m 1,309,-1
 768 896 l 1,310,-1
 768 768 l 1,311,-1
 640 768 l 1,312,-1
 640 896 l 1,309,-1
768 896 m 1,313,-1
 896 896 l 1,314,-1
 896 768 l 1,315,-1
 768 768 l 1,316,-1
 768 896 l 1,313,-1
0 768 m 1,321,-1
 256 768 l 1,322,-1
 256 512 l 1,323,-1
 0 512 l 1,324,-1
 0 768 l 1,321,-1
256 768 m 1,329,-1
 512 768 l 1,330,-1
 512 512 l 1,331,-1
 256 512 l 1,332,-1
 256 768 l 1,329,-1
512 768 m 1,337,-1
 768 768 l 1,338,-1
 768 512 l 1,339,-1
 512 512 l 1,340,-1
 512 768 l 1,337,-1
768 768 m 1,345,-1
 1024 768 l 1,346,-1
 1024 512 l 1,347,-1
 768 512 l 1,348,-1
 768 768 l 1,345,-1
256 512 m 1,393,-1
 512 512 l 1,394,-1
 512 256 l 1,395,-1
 256 256 l 1,396,-1
 256 512 l 1,393,-1
640 512 m 1,405,-1
 768 512 l 1,406,-1
 768 384 l 1,407,-1
 640 384 l 1,408,-1
 640 512 l 1,405,-1
768 512 m 1,409,-1
 896 512 l 1,410,-1
 896 384 l 1,411,-1
 768 384 l 1,412,-1
 768 512 l 1,409,-1
640 384 m 1,437,-1
 768 384 l 1,438,-1
 768 256 l 1,439,-1
 640 256 l 1,440,-1
 640 384 l 1,437,-1
768 384 m 1,441,-1
 896 384 l 1,442,-1
 896 256 l 1,443,-1
 768 256 l 1,444,-1
 768 384 l 1,441,-1
EndSplineSet
EndChar

StartChar: uniFF04
Encoding: 65284 65284 106
Width: 1280
Flags: W
LayerCount: 2
Fore
SplineSet
512 2048 m 1,17,-1
 768 2048 l 1,18,-1
 768 1792 l 1,19,-1
 512 1792 l 1,20,-1
 512 2048 l 1,17,-1
256 1792 m 1,73,-1
 512 1792 l 1,74,-1
 512 1536 l 1,75,-1
 256 1536 l 1,76,-1
 256 1792 l 1,73,-1
512 1792 m 1,81,-1
 768 1792 l 1,82,-1
 768 1536 l 1,83,-1
 512 1536 l 1,84,-1
 512 1792 l 1,81,-1
768 1792 m 1,89,-1
 1024 1792 l 1,90,-1
 1024 1536 l 1,91,-1
 768 1536 l 1,92,-1
 768 1792 l 1,89,-1
0 1536 m 1,129,-1
 256 1536 l 1,130,-1
 256 1280 l 1,131,-1
 0 1280 l 1,132,-1
 0 1536 l 1,129,-1
512 1536 m 1,145,-1
 640 1536 l 1,146,-1
 640 1408 l 1,147,-1
 512 1408 l 1,148,-1
 512 1536 l 1,145,-1
512 1408 m 1,177,-1
 640 1408 l 1,178,-1
 640 1280 l 1,179,-1
 512 1280 l 1,180,-1
 512 1408 l 1,177,-1
256 1280 m 1,201,-1
 512 1280 l 1,202,-1
 512 1024 l 1,203,-1
 256 1024 l 1,204,-1
 256 1280 l 1,201,-1
512 1280 m 1,209,-1
 768 1280 l 1,210,-1
 768 1024 l 1,211,-1
 512 1024 l 1,212,-1
 512 1280 l 1,209,-1
384 1024 m 1,269,-1
 512 1024 l 1,270,-1
 512 896 l 1,271,-1
 384 896 l 1,272,-1
 384 1024 l 1,269,-1
768 1024 m 1,281,-1
 1024 1024 l 1,282,-1
 1024 768 l 1,283,-1
 768 768 l 1,284,-1
 768 1024 l 1,281,-1
384 896 m 1,301,-1
 512 896 l 1,302,-1
 512 768 l 1,303,-1
 384 768 l 1,304,-1
 384 896 l 1,301,-1
0 768 m 1,321,-1
 256 768 l 1,322,-1
 256 512 l 1,323,-1
 0 512 l 1,324,-1
 0 768 l 1,321,-1
256 768 m 1,329,-1
 512 768 l 1,330,-1
 512 512 l 1,331,-1
 256 512 l 1,332,-1
 256 768 l 1,329,-1
512 768 m 1,337,-1
 768 768 l 1,338,-1
 768 512 l 1,339,-1
 512 512 l 1,340,-1
 512 768 l 1,337,-1
256 512 m 1,393,-1
 512 512 l 1,394,-1
 512 256 l 1,395,-1
 256 256 l 1,396,-1
 256 512 l 1,393,-1
EndSplineSet
EndChar
